%TF.GenerationSoftware,KiCad,Pcbnew,(5.1.8)-1*%
%TF.CreationDate,2020-11-27T18:17:46-07:00*%
%TF.ProjectId,FieldSensorYSO,4669656c-6453-4656-9e73-6f7259534f2e,1*%
%TF.SameCoordinates,Original*%
%TF.FileFunction,Legend,Top*%
%TF.FilePolarity,Positive*%
%FSLAX46Y46*%
G04 Gerber Fmt 4.6, Leading zero omitted, Abs format (unit mm)*
G04 Created by KiCad (PCBNEW (5.1.8)-1) date 2020-11-27 18:17:46*
%MOMM*%
%LPD*%
G01*
G04 APERTURE LIST*
%ADD10C,0.300000*%
%ADD11C,0.150000*%
G04 APERTURE END LIST*
D10*
X104335714Y-102778571D02*
X104335714Y-101278571D01*
X104835714Y-102350000D01*
X105335714Y-101278571D01*
X105335714Y-102778571D01*
X106692857Y-102778571D02*
X106692857Y-101992857D01*
X106621428Y-101850000D01*
X106478571Y-101778571D01*
X106192857Y-101778571D01*
X106050000Y-101850000D01*
X106692857Y-102707142D02*
X106550000Y-102778571D01*
X106192857Y-102778571D01*
X106050000Y-102707142D01*
X105978571Y-102564285D01*
X105978571Y-102421428D01*
X106050000Y-102278571D01*
X106192857Y-102207142D01*
X106550000Y-102207142D01*
X106692857Y-102135714D01*
X108050000Y-101778571D02*
X108050000Y-102992857D01*
X107978571Y-103135714D01*
X107907142Y-103207142D01*
X107764285Y-103278571D01*
X107550000Y-103278571D01*
X107407142Y-103207142D01*
X108050000Y-102707142D02*
X107907142Y-102778571D01*
X107621428Y-102778571D01*
X107478571Y-102707142D01*
X107407142Y-102635714D01*
X107335714Y-102492857D01*
X107335714Y-102064285D01*
X107407142Y-101921428D01*
X107478571Y-101850000D01*
X107621428Y-101778571D01*
X107907142Y-101778571D01*
X108050000Y-101850000D01*
X108764285Y-101778571D02*
X108764285Y-102778571D01*
X108764285Y-101921428D02*
X108835714Y-101850000D01*
X108978571Y-101778571D01*
X109192857Y-101778571D01*
X109335714Y-101850000D01*
X109407142Y-101992857D01*
X109407142Y-102778571D01*
X110692857Y-102707142D02*
X110550000Y-102778571D01*
X110264285Y-102778571D01*
X110121428Y-102707142D01*
X110050000Y-102564285D01*
X110050000Y-101992857D01*
X110121428Y-101850000D01*
X110264285Y-101778571D01*
X110550000Y-101778571D01*
X110692857Y-101850000D01*
X110764285Y-101992857D01*
X110764285Y-102135714D01*
X110050000Y-102278571D01*
X111192857Y-101778571D02*
X111764285Y-101778571D01*
X111407142Y-101278571D02*
X111407142Y-102564285D01*
X111478571Y-102707142D01*
X111621428Y-102778571D01*
X111764285Y-102778571D01*
X112264285Y-102778571D02*
X112264285Y-101778571D01*
X112264285Y-101278571D02*
X112192857Y-101350000D01*
X112264285Y-101421428D01*
X112335714Y-101350000D01*
X112264285Y-101278571D01*
X112264285Y-101421428D01*
X113621428Y-102707142D02*
X113478571Y-102778571D01*
X113192857Y-102778571D01*
X113050000Y-102707142D01*
X112978571Y-102635714D01*
X112907142Y-102492857D01*
X112907142Y-102064285D01*
X112978571Y-101921428D01*
X113050000Y-101850000D01*
X113192857Y-101778571D01*
X113478571Y-101778571D01*
X113621428Y-101850000D01*
X115907142Y-101992857D02*
X115407142Y-101992857D01*
X115407142Y-102778571D02*
X115407142Y-101278571D01*
X116121428Y-101278571D01*
X116692857Y-102778571D02*
X116692857Y-101778571D01*
X116692857Y-101278571D02*
X116621428Y-101350000D01*
X116692857Y-101421428D01*
X116764285Y-101350000D01*
X116692857Y-101278571D01*
X116692857Y-101421428D01*
X117978571Y-102707142D02*
X117835714Y-102778571D01*
X117550000Y-102778571D01*
X117407142Y-102707142D01*
X117335714Y-102564285D01*
X117335714Y-101992857D01*
X117407142Y-101850000D01*
X117550000Y-101778571D01*
X117835714Y-101778571D01*
X117978571Y-101850000D01*
X118050000Y-101992857D01*
X118050000Y-102135714D01*
X117335714Y-102278571D01*
X118907142Y-102778571D02*
X118764285Y-102707142D01*
X118692857Y-102564285D01*
X118692857Y-101278571D01*
X120121428Y-102778571D02*
X120121428Y-101278571D01*
X120121428Y-102707142D02*
X119978571Y-102778571D01*
X119692857Y-102778571D01*
X119550000Y-102707142D01*
X119478571Y-102635714D01*
X119407142Y-102492857D01*
X119407142Y-102064285D01*
X119478571Y-101921428D01*
X119550000Y-101850000D01*
X119692857Y-101778571D01*
X119978571Y-101778571D01*
X120121428Y-101850000D01*
X121907142Y-102707142D02*
X122121428Y-102778571D01*
X122478571Y-102778571D01*
X122621428Y-102707142D01*
X122692857Y-102635714D01*
X122764285Y-102492857D01*
X122764285Y-102350000D01*
X122692857Y-102207142D01*
X122621428Y-102135714D01*
X122478571Y-102064285D01*
X122192857Y-101992857D01*
X122050000Y-101921428D01*
X121978571Y-101850000D01*
X121907142Y-101707142D01*
X121907142Y-101564285D01*
X121978571Y-101421428D01*
X122050000Y-101350000D01*
X122192857Y-101278571D01*
X122550000Y-101278571D01*
X122764285Y-101350000D01*
X123978571Y-102707142D02*
X123835714Y-102778571D01*
X123550000Y-102778571D01*
X123407142Y-102707142D01*
X123335714Y-102564285D01*
X123335714Y-101992857D01*
X123407142Y-101850000D01*
X123550000Y-101778571D01*
X123835714Y-101778571D01*
X123978571Y-101850000D01*
X124050000Y-101992857D01*
X124050000Y-102135714D01*
X123335714Y-102278571D01*
X124692857Y-101778571D02*
X124692857Y-102778571D01*
X124692857Y-101921428D02*
X124764285Y-101850000D01*
X124907142Y-101778571D01*
X125121428Y-101778571D01*
X125264285Y-101850000D01*
X125335714Y-101992857D01*
X125335714Y-102778571D01*
X125978571Y-102707142D02*
X126121428Y-102778571D01*
X126407142Y-102778571D01*
X126550000Y-102707142D01*
X126621428Y-102564285D01*
X126621428Y-102492857D01*
X126550000Y-102350000D01*
X126407142Y-102278571D01*
X126192857Y-102278571D01*
X126050000Y-102207142D01*
X125978571Y-102064285D01*
X125978571Y-101992857D01*
X126050000Y-101850000D01*
X126192857Y-101778571D01*
X126407142Y-101778571D01*
X126550000Y-101850000D01*
X127478571Y-102778571D02*
X127335714Y-102707142D01*
X127264285Y-102635714D01*
X127192857Y-102492857D01*
X127192857Y-102064285D01*
X127264285Y-101921428D01*
X127335714Y-101850000D01*
X127478571Y-101778571D01*
X127692857Y-101778571D01*
X127835714Y-101850000D01*
X127907142Y-101921428D01*
X127978571Y-102064285D01*
X127978571Y-102492857D01*
X127907142Y-102635714D01*
X127835714Y-102707142D01*
X127692857Y-102778571D01*
X127478571Y-102778571D01*
X128621428Y-102778571D02*
X128621428Y-101778571D01*
X128621428Y-102064285D02*
X128692857Y-101921428D01*
X128764285Y-101850000D01*
X128907142Y-101778571D01*
X129050000Y-101778571D01*
X130692857Y-102207142D02*
X131835714Y-102207142D01*
X133978571Y-102064285D02*
X133978571Y-102778571D01*
X133478571Y-101278571D02*
X133978571Y-102064285D01*
X134478571Y-101278571D01*
X134907142Y-102707142D02*
X135121428Y-102778571D01*
X135478571Y-102778571D01*
X135621428Y-102707142D01*
X135692857Y-102635714D01*
X135764285Y-102492857D01*
X135764285Y-102350000D01*
X135692857Y-102207142D01*
X135621428Y-102135714D01*
X135478571Y-102064285D01*
X135192857Y-101992857D01*
X135050000Y-101921428D01*
X134978571Y-101850000D01*
X134907142Y-101707142D01*
X134907142Y-101564285D01*
X134978571Y-101421428D01*
X135050000Y-101350000D01*
X135192857Y-101278571D01*
X135550000Y-101278571D01*
X135764285Y-101350000D01*
X136692857Y-101278571D02*
X136978571Y-101278571D01*
X137121428Y-101350000D01*
X137264285Y-101492857D01*
X137335714Y-101778571D01*
X137335714Y-102278571D01*
X137264285Y-102564285D01*
X137121428Y-102707142D01*
X136978571Y-102778571D01*
X136692857Y-102778571D01*
X136550000Y-102707142D01*
X136407142Y-102564285D01*
X136335714Y-102278571D01*
X136335714Y-101778571D01*
X136407142Y-101492857D01*
X136550000Y-101350000D01*
X136692857Y-101278571D01*
%TO.C,Y1*%
D11*
X96623809Y-112076190D02*
X96623809Y-112552380D01*
X96290476Y-111552380D02*
X96623809Y-112076190D01*
X96957142Y-111552380D01*
X97814285Y-112552380D02*
X97242857Y-112552380D01*
X97528571Y-112552380D02*
X97528571Y-111552380D01*
X97433333Y-111695238D01*
X97338095Y-111790476D01*
X97242857Y-111838095D01*
%TD*%
M02*
