%TF.GenerationSoftware,KiCad,Pcbnew,(5.1.5-0-10_14)*%
%TF.CreationDate,2021-01-27T12:26:26-07:00*%
%TF.ProjectId,FieldSensorYSO,4669656c-6453-4656-9e73-6f7259534f2e,2*%
%TF.SameCoordinates,Original*%
%TF.FileFunction,Copper,L2,Bot*%
%TF.FilePolarity,Positive*%
%FSLAX46Y46*%
G04 Gerber Fmt 4.6, Leading zero omitted, Abs format (unit mm)*
G04 Created by KiCad (PCBNEW (5.1.5-0-10_14)) date 2021-01-27 12:26:26*
%MOMM*%
%LPD*%
G04 APERTURE LIST*
%TA.AperFunction,SMDPad,CuDef*%
%ADD10R,1.062132X1.085043*%
%TD*%
%TA.AperFunction,ViaPad*%
%ADD11C,1.620000*%
%TD*%
%TA.AperFunction,ViaPad*%
%ADD12R,1.620000X1.620000*%
%TD*%
%TA.AperFunction,SMDPad,CuDef*%
%ADD13R,1.450000X1.000000*%
%TD*%
%TA.AperFunction,SMDPad,CuDef*%
%ADD14R,0.900000X0.800000*%
%TD*%
%TA.AperFunction,ComponentPad*%
%ADD15C,1.570000*%
%TD*%
%TA.AperFunction,ComponentPad*%
%ADD16R,1.570000X1.570000*%
%TD*%
%TA.AperFunction,ViaPad*%
%ADD17C,0.800000*%
%TD*%
%TA.AperFunction,Conductor*%
%ADD18C,0.250000*%
%TD*%
G04 APERTURE END LIST*
D10*
%TO.P,R1,1*%
%TO.N,/LSEN*%
X96500000Y-107659607D03*
%TO.P,R1,2*%
%TO.N,GND*%
X96500000Y-109340394D03*
%TD*%
D11*
%TO.N,GND*%
%TO.C,J1*%
X92000000Y-112620000D03*
%TO.N,/HSEN*%
X92000000Y-110080000D03*
%TO.N,/LSEN*%
X92000000Y-107540000D03*
D12*
%TO.N,/5V*%
X92000000Y-105000000D03*
%TD*%
D13*
%TO.P,D1,C*%
%TO.N,/5V*%
X146000000Y-101700000D03*
%TO.P,D1,A*%
%TO.N,/LSEN*%
X146000000Y-103300000D03*
%TD*%
D14*
%TO.P,C1,1*%
%TO.N,/LSEN*%
X94500000Y-107750000D03*
%TO.P,C1,2*%
%TO.N,GND*%
X94500000Y-109250000D03*
%TD*%
D15*
%TO.P,J2,2*%
%TO.N,Net-(J2-Pad2)*%
X134460000Y-102500000D03*
D16*
%TO.P,J2,1*%
%TO.N,Net-(J2-Pad1)*%
X137000000Y-102500000D03*
%TD*%
D17*
%TO.N,/LSEN*%
X96500000Y-106000000D03*
X144900000Y-103200000D03*
%TD*%
D18*
%TO.N,GND*%
X96409606Y-109250000D02*
X96500000Y-109340394D01*
X94500000Y-109250000D02*
X96409606Y-109250000D01*
X94500000Y-109250000D02*
X93750000Y-109250000D01*
X93750000Y-110870000D02*
X92000000Y-112620000D01*
X93750000Y-109250000D02*
X93750000Y-110870000D01*
%TO.N,/LSEN*%
X94590393Y-107659607D02*
X94500000Y-107750000D01*
X96500000Y-107659607D02*
X94590393Y-107659607D01*
X92210000Y-107750000D02*
X92000000Y-107540000D01*
X94500000Y-107750000D02*
X92210000Y-107750000D01*
X96500000Y-106000000D02*
X96500000Y-107659607D01*
X145000000Y-103300000D02*
X144900000Y-103200000D01*
X146000000Y-103300000D02*
X145000000Y-103300000D01*
%TO.N,/5V*%
X145300000Y-102400000D02*
X146000000Y-101700000D01*
X144000000Y-102400000D02*
X145300000Y-102400000D01*
X141400000Y-105000000D02*
X144000000Y-102400000D01*
X92000000Y-105000000D02*
X141400000Y-105000000D01*
%TD*%
M02*
