%TF.GenerationSoftware,KiCad,Pcbnew,(5.1.5-0-10_14)*%
%TF.CreationDate,2021-01-27T12:26:26-07:00*%
%TF.ProjectId,FieldSensorYSO,4669656c-6453-4656-9e73-6f7259534f2e,2*%
%TF.SameCoordinates,Original*%
%TF.FileFunction,Legend,Top*%
%TF.FilePolarity,Positive*%
%FSLAX46Y46*%
G04 Gerber Fmt 4.6, Leading zero omitted, Abs format (unit mm)*
G04 Created by KiCad (PCBNEW (5.1.5-0-10_14)) date 2021-01-27 12:26:26*
%MOMM*%
%LPD*%
G04 APERTURE LIST*
%ADD10C,0.150000*%
G04 APERTURE END LIST*
D10*
X106476190Y-98452380D02*
X106476190Y-97452380D01*
X106809523Y-98166666D01*
X107142857Y-97452380D01*
X107142857Y-98452380D01*
X108047619Y-98452380D02*
X108047619Y-97928571D01*
X108000000Y-97833333D01*
X107904761Y-97785714D01*
X107714285Y-97785714D01*
X107619047Y-97833333D01*
X108047619Y-98404761D02*
X107952380Y-98452380D01*
X107714285Y-98452380D01*
X107619047Y-98404761D01*
X107571428Y-98309523D01*
X107571428Y-98214285D01*
X107619047Y-98119047D01*
X107714285Y-98071428D01*
X107952380Y-98071428D01*
X108047619Y-98023809D01*
X108952380Y-97785714D02*
X108952380Y-98595238D01*
X108904761Y-98690476D01*
X108857142Y-98738095D01*
X108761904Y-98785714D01*
X108619047Y-98785714D01*
X108523809Y-98738095D01*
X108952380Y-98404761D02*
X108857142Y-98452380D01*
X108666666Y-98452380D01*
X108571428Y-98404761D01*
X108523809Y-98357142D01*
X108476190Y-98261904D01*
X108476190Y-97976190D01*
X108523809Y-97880952D01*
X108571428Y-97833333D01*
X108666666Y-97785714D01*
X108857142Y-97785714D01*
X108952380Y-97833333D01*
X109428571Y-97785714D02*
X109428571Y-98452380D01*
X109428571Y-97880952D02*
X109476190Y-97833333D01*
X109571428Y-97785714D01*
X109714285Y-97785714D01*
X109809523Y-97833333D01*
X109857142Y-97928571D01*
X109857142Y-98452380D01*
X110714285Y-98404761D02*
X110619047Y-98452380D01*
X110428571Y-98452380D01*
X110333333Y-98404761D01*
X110285714Y-98309523D01*
X110285714Y-97928571D01*
X110333333Y-97833333D01*
X110428571Y-97785714D01*
X110619047Y-97785714D01*
X110714285Y-97833333D01*
X110761904Y-97928571D01*
X110761904Y-98023809D01*
X110285714Y-98119047D01*
X111047619Y-97785714D02*
X111428571Y-97785714D01*
X111190476Y-97452380D02*
X111190476Y-98309523D01*
X111238095Y-98404761D01*
X111333333Y-98452380D01*
X111428571Y-98452380D01*
X111761904Y-98452380D02*
X111761904Y-97785714D01*
X111761904Y-97452380D02*
X111714285Y-97500000D01*
X111761904Y-97547619D01*
X111809523Y-97500000D01*
X111761904Y-97452380D01*
X111761904Y-97547619D01*
X112666666Y-98404761D02*
X112571428Y-98452380D01*
X112380952Y-98452380D01*
X112285714Y-98404761D01*
X112238095Y-98357142D01*
X112190476Y-98261904D01*
X112190476Y-97976190D01*
X112238095Y-97880952D01*
X112285714Y-97833333D01*
X112380952Y-97785714D01*
X112571428Y-97785714D01*
X112666666Y-97833333D01*
X114190476Y-97928571D02*
X113857142Y-97928571D01*
X113857142Y-98452380D02*
X113857142Y-97452380D01*
X114333333Y-97452380D01*
X114714285Y-98452380D02*
X114714285Y-97785714D01*
X114714285Y-97452380D02*
X114666666Y-97500000D01*
X114714285Y-97547619D01*
X114761904Y-97500000D01*
X114714285Y-97452380D01*
X114714285Y-97547619D01*
X115571428Y-98404761D02*
X115476190Y-98452380D01*
X115285714Y-98452380D01*
X115190476Y-98404761D01*
X115142857Y-98309523D01*
X115142857Y-97928571D01*
X115190476Y-97833333D01*
X115285714Y-97785714D01*
X115476190Y-97785714D01*
X115571428Y-97833333D01*
X115619047Y-97928571D01*
X115619047Y-98023809D01*
X115142857Y-98119047D01*
X116190476Y-98452380D02*
X116095238Y-98404761D01*
X116047619Y-98309523D01*
X116047619Y-97452380D01*
X117000000Y-98452380D02*
X117000000Y-97452380D01*
X117000000Y-98404761D02*
X116904761Y-98452380D01*
X116714285Y-98452380D01*
X116619047Y-98404761D01*
X116571428Y-98357142D01*
X116523809Y-98261904D01*
X116523809Y-97976190D01*
X116571428Y-97880952D01*
X116619047Y-97833333D01*
X116714285Y-97785714D01*
X116904761Y-97785714D01*
X117000000Y-97833333D01*
X118190476Y-98404761D02*
X118333333Y-98452380D01*
X118571428Y-98452380D01*
X118666666Y-98404761D01*
X118714285Y-98357142D01*
X118761904Y-98261904D01*
X118761904Y-98166666D01*
X118714285Y-98071428D01*
X118666666Y-98023809D01*
X118571428Y-97976190D01*
X118380952Y-97928571D01*
X118285714Y-97880952D01*
X118238095Y-97833333D01*
X118190476Y-97738095D01*
X118190476Y-97642857D01*
X118238095Y-97547619D01*
X118285714Y-97500000D01*
X118380952Y-97452380D01*
X118619047Y-97452380D01*
X118761904Y-97500000D01*
X119571428Y-98404761D02*
X119476190Y-98452380D01*
X119285714Y-98452380D01*
X119190476Y-98404761D01*
X119142857Y-98309523D01*
X119142857Y-97928571D01*
X119190476Y-97833333D01*
X119285714Y-97785714D01*
X119476190Y-97785714D01*
X119571428Y-97833333D01*
X119619047Y-97928571D01*
X119619047Y-98023809D01*
X119142857Y-98119047D01*
X120047619Y-97785714D02*
X120047619Y-98452380D01*
X120047619Y-97880952D02*
X120095238Y-97833333D01*
X120190476Y-97785714D01*
X120333333Y-97785714D01*
X120428571Y-97833333D01*
X120476190Y-97928571D01*
X120476190Y-98452380D01*
X120904761Y-98404761D02*
X121000000Y-98452380D01*
X121190476Y-98452380D01*
X121285714Y-98404761D01*
X121333333Y-98309523D01*
X121333333Y-98261904D01*
X121285714Y-98166666D01*
X121190476Y-98119047D01*
X121047619Y-98119047D01*
X120952380Y-98071428D01*
X120904761Y-97976190D01*
X120904761Y-97928571D01*
X120952380Y-97833333D01*
X121047619Y-97785714D01*
X121190476Y-97785714D01*
X121285714Y-97833333D01*
X121904761Y-98452380D02*
X121809523Y-98404761D01*
X121761904Y-98357142D01*
X121714285Y-98261904D01*
X121714285Y-97976190D01*
X121761904Y-97880952D01*
X121809523Y-97833333D01*
X121904761Y-97785714D01*
X122047619Y-97785714D01*
X122142857Y-97833333D01*
X122190476Y-97880952D01*
X122238095Y-97976190D01*
X122238095Y-98261904D01*
X122190476Y-98357142D01*
X122142857Y-98404761D01*
X122047619Y-98452380D01*
X121904761Y-98452380D01*
X122666666Y-98452380D02*
X122666666Y-97785714D01*
X122666666Y-97976190D02*
X122714285Y-97880952D01*
X122761904Y-97833333D01*
X122857142Y-97785714D01*
X122952380Y-97785714D01*
X124047619Y-98071428D02*
X124809523Y-98071428D01*
X126238095Y-97976190D02*
X126238095Y-98452380D01*
X125904761Y-97452380D02*
X126238095Y-97976190D01*
X126571428Y-97452380D01*
X126857142Y-98404761D02*
X127000000Y-98452380D01*
X127238095Y-98452380D01*
X127333333Y-98404761D01*
X127380952Y-98357142D01*
X127428571Y-98261904D01*
X127428571Y-98166666D01*
X127380952Y-98071428D01*
X127333333Y-98023809D01*
X127238095Y-97976190D01*
X127047619Y-97928571D01*
X126952380Y-97880952D01*
X126904761Y-97833333D01*
X126857142Y-97738095D01*
X126857142Y-97642857D01*
X126904761Y-97547619D01*
X126952380Y-97500000D01*
X127047619Y-97452380D01*
X127285714Y-97452380D01*
X127428571Y-97500000D01*
X128047619Y-97452380D02*
X128238095Y-97452380D01*
X128333333Y-97500000D01*
X128428571Y-97595238D01*
X128476190Y-97785714D01*
X128476190Y-98119047D01*
X128428571Y-98309523D01*
X128333333Y-98404761D01*
X128238095Y-98452380D01*
X128047619Y-98452380D01*
X127952380Y-98404761D01*
X127857142Y-98309523D01*
X127809523Y-98119047D01*
X127809523Y-97785714D01*
X127857142Y-97595238D01*
X127952380Y-97500000D01*
X128047619Y-97452380D01*
X129666666Y-98071428D02*
X130428571Y-98071428D01*
X132238095Y-98452380D02*
X131904761Y-97976190D01*
X131666666Y-98452380D02*
X131666666Y-97452380D01*
X132047619Y-97452380D01*
X132142857Y-97500000D01*
X132190476Y-97547619D01*
X132238095Y-97642857D01*
X132238095Y-97785714D01*
X132190476Y-97880952D01*
X132142857Y-97928571D01*
X132047619Y-97976190D01*
X131666666Y-97976190D01*
X133047619Y-98404761D02*
X132952380Y-98452380D01*
X132761904Y-98452380D01*
X132666666Y-98404761D01*
X132619047Y-98309523D01*
X132619047Y-97928571D01*
X132666666Y-97833333D01*
X132761904Y-97785714D01*
X132952380Y-97785714D01*
X133047619Y-97833333D01*
X133095238Y-97928571D01*
X133095238Y-98023809D01*
X132619047Y-98119047D01*
X133428571Y-97785714D02*
X133666666Y-98452380D01*
X133904761Y-97785714D01*
X135000000Y-97547619D02*
X135047619Y-97500000D01*
X135142857Y-97452380D01*
X135380952Y-97452380D01*
X135476190Y-97500000D01*
X135523809Y-97547619D01*
X135571428Y-97642857D01*
X135571428Y-97738095D01*
X135523809Y-97880952D01*
X134952380Y-98452380D01*
X135571428Y-98452380D01*
%TO.C,Y1*%
X96623809Y-112076190D02*
X96623809Y-112552380D01*
X96290476Y-111552380D02*
X96623809Y-112076190D01*
X96957142Y-111552380D01*
X97814285Y-112552380D02*
X97242857Y-112552380D01*
X97528571Y-112552380D02*
X97528571Y-111552380D01*
X97433333Y-111695238D01*
X97338095Y-111790476D01*
X97242857Y-111838095D01*
%TD*%
M02*
