%TF.GenerationSoftware,KiCad,Pcbnew,(5.1.8)-1*%
%TF.CreationDate,2020-11-27T18:17:46-07:00*%
%TF.ProjectId,FieldSensorYSO,4669656c-6453-4656-9e73-6f7259534f2e,1*%
%TF.SameCoordinates,Original*%
%TF.FileFunction,Legend,Bot*%
%TF.FilePolarity,Positive*%
%FSLAX46Y46*%
G04 Gerber Fmt 4.6, Leading zero omitted, Abs format (unit mm)*
G04 Created by KiCad (PCBNEW (5.1.8)-1) date 2020-11-27 18:17:46*
%MOMM*%
%LPD*%
G01*
G04 APERTURE LIST*
%ADD10C,0.150000*%
G04 APERTURE END LIST*
D10*
%TO.C,J2*%
X149630000Y-90605000D02*
X149630000Y-95935000D01*
X152370000Y-95935000D02*
X149630000Y-95935000D01*
X152370000Y-90605000D02*
X152370000Y-95935000D01*
X152370000Y-90605000D02*
X149630000Y-90605000D01*
%TO.C,J1*%
X90630000Y-108605000D02*
X90630000Y-113935000D01*
X93370000Y-113935000D02*
X90630000Y-113935000D01*
X93370000Y-108605000D02*
X93370000Y-113935000D01*
X93370000Y-108605000D02*
X90630000Y-108605000D01*
%TO.C,J2*%
X150352380Y-96612023D02*
X151066666Y-96612023D01*
X151209523Y-96564404D01*
X151304761Y-96469166D01*
X151352380Y-96326309D01*
X151352380Y-96231071D01*
X150447619Y-97040595D02*
X150400000Y-97088214D01*
X150352380Y-97183452D01*
X150352380Y-97421547D01*
X150400000Y-97516785D01*
X150447619Y-97564404D01*
X150542857Y-97612023D01*
X150638095Y-97612023D01*
X150780952Y-97564404D01*
X151352380Y-96992976D01*
X151352380Y-97612023D01*
%TO.C,J1*%
X91452380Y-107212023D02*
X92166666Y-107212023D01*
X92309523Y-107164404D01*
X92404761Y-107069166D01*
X92452380Y-106926309D01*
X92452380Y-106831071D01*
X92452380Y-108212023D02*
X92452380Y-107640595D01*
X92452380Y-107926309D02*
X91452380Y-107926309D01*
X91595238Y-107831071D01*
X91690476Y-107735833D01*
X91738095Y-107640595D01*
%TD*%
M02*
