%TF.GenerationSoftware,KiCad,Pcbnew,(5.1.5-0-10_14)*%
%TF.CreationDate,2021-01-27T12:26:26-07:00*%
%TF.ProjectId,FieldSensorYSO,4669656c-6453-4656-9e73-6f7259534f2e,2*%
%TF.SameCoordinates,Original*%
%TF.FileFunction,OtherDrawing,Comment*%
%FSLAX46Y46*%
G04 Gerber Fmt 4.6, Leading zero omitted, Abs format (unit mm)*
G04 Created by KiCad (PCBNEW (5.1.5-0-10_14)) date 2021-01-27 12:26:26*
%MOMM*%
%LPD*%
G04 APERTURE LIST*
%ADD10C,0.150000*%
%ADD11C,1.270000*%
G04 APERTURE END LIST*
D10*
X116880952Y-121752379D02*
X116404761Y-121752379D01*
X116357142Y-122228570D01*
X116404761Y-122180951D01*
X116500000Y-122133332D01*
X116738095Y-122133332D01*
X116833333Y-122180951D01*
X116880952Y-122228570D01*
X116928571Y-122323808D01*
X116928571Y-122561903D01*
X116880952Y-122657141D01*
X116833333Y-122704760D01*
X116738095Y-122752379D01*
X116500000Y-122752379D01*
X116404761Y-122704760D01*
X116357142Y-122657141D01*
X117261904Y-121752379D02*
X117928571Y-121752379D01*
X117500000Y-122752379D01*
X118309523Y-122657141D02*
X118357142Y-122704760D01*
X118309523Y-122752379D01*
X118261904Y-122704760D01*
X118309523Y-122657141D01*
X118309523Y-122752379D01*
X118976190Y-121752379D02*
X119071428Y-121752379D01*
X119166666Y-121799999D01*
X119214285Y-121847618D01*
X119261904Y-121942856D01*
X119309523Y-122133332D01*
X119309523Y-122371427D01*
X119261904Y-122561903D01*
X119214285Y-122657141D01*
X119166666Y-122704760D01*
X119071428Y-122752379D01*
X118976190Y-122752379D01*
X118880952Y-122704760D01*
X118833333Y-122657141D01*
X118785714Y-122561903D01*
X118738095Y-122371427D01*
X118738095Y-122133332D01*
X118785714Y-121942856D01*
X118833333Y-121847618D01*
X118880952Y-121799999D01*
X118976190Y-121752379D01*
X119928571Y-121752379D02*
X120023809Y-121752379D01*
X120119047Y-121799999D01*
X120166666Y-121847618D01*
X120214285Y-121942856D01*
X120261904Y-122133332D01*
X120261904Y-122371427D01*
X120214285Y-122561903D01*
X120166666Y-122657141D01*
X120119047Y-122704760D01*
X120023809Y-122752379D01*
X119928571Y-122752379D01*
X119833333Y-122704760D01*
X119785714Y-122657141D01*
X119738095Y-122561903D01*
X119690476Y-122371427D01*
X119690476Y-122133332D01*
X119738095Y-121942856D01*
X119785714Y-121847618D01*
X119833333Y-121799999D01*
X119928571Y-121752379D01*
X120880952Y-121752379D02*
X120976190Y-121752379D01*
X121071428Y-121799999D01*
X121119047Y-121847618D01*
X121166666Y-121942856D01*
X121214285Y-122133332D01*
X121214285Y-122371427D01*
X121166666Y-122561903D01*
X121119047Y-122657141D01*
X121071428Y-122704760D01*
X120976190Y-122752379D01*
X120880952Y-122752379D01*
X120785714Y-122704760D01*
X120738095Y-122657141D01*
X120690476Y-122561903D01*
X120642857Y-122371427D01*
X120642857Y-122133332D01*
X120690476Y-121942856D01*
X120738095Y-121847618D01*
X120785714Y-121799999D01*
X120880952Y-121752379D01*
X122404761Y-122752379D02*
X122404761Y-122085713D01*
X122404761Y-122180951D02*
X122452380Y-122133332D01*
X122547619Y-122085713D01*
X122690476Y-122085713D01*
X122785714Y-122133332D01*
X122833333Y-122228570D01*
X122833333Y-122752379D01*
X122833333Y-122228570D02*
X122880952Y-122133332D01*
X122976190Y-122085713D01*
X123119047Y-122085713D01*
X123214285Y-122133332D01*
X123261904Y-122228570D01*
X123261904Y-122752379D01*
X123738095Y-122752379D02*
X123738095Y-122085713D01*
X123738095Y-122180951D02*
X123785714Y-122133332D01*
X123880952Y-122085713D01*
X124023809Y-122085713D01*
X124119047Y-122133332D01*
X124166666Y-122228570D01*
X124166666Y-122752379D01*
X124166666Y-122228570D02*
X124214285Y-122133332D01*
X124309523Y-122085713D01*
X124452380Y-122085713D01*
X124547619Y-122133332D01*
X124595238Y-122228570D01*
X124595238Y-122752379D01*
X92000000Y-120999999D02*
X149000000Y-120999999D01*
X92000000Y-105000000D02*
X92000000Y-121586420D01*
X149000000Y-105000000D02*
X149000000Y-121586420D01*
X149000000Y-120999999D02*
X147873496Y-121586420D01*
X149000000Y-120999999D02*
X147873496Y-120413578D01*
X92000000Y-120999999D02*
X93126504Y-121586420D01*
X92000000Y-120999999D02*
X93126504Y-120413578D01*
X158847619Y-105178571D02*
X158847619Y-104607142D01*
X158847619Y-104892857D02*
X159847619Y-104892857D01*
X159704761Y-104797619D01*
X159609523Y-104702380D01*
X159561904Y-104607142D01*
X159752380Y-105559523D02*
X159800000Y-105607142D01*
X159847619Y-105702380D01*
X159847619Y-105940476D01*
X159800000Y-106035714D01*
X159752380Y-106083333D01*
X159657142Y-106130952D01*
X159561904Y-106130952D01*
X159419047Y-106083333D01*
X158847619Y-105511904D01*
X158847619Y-106130952D01*
X158942857Y-106559523D02*
X158895238Y-106607142D01*
X158847619Y-106559523D01*
X158895238Y-106511904D01*
X158942857Y-106559523D01*
X158847619Y-106559523D01*
X159847619Y-107511904D02*
X159847619Y-107035714D01*
X159371428Y-106988095D01*
X159419047Y-107035714D01*
X159466666Y-107130952D01*
X159466666Y-107369047D01*
X159419047Y-107464285D01*
X159371428Y-107511904D01*
X159276190Y-107559523D01*
X159038095Y-107559523D01*
X158942857Y-107511904D01*
X158895238Y-107464285D01*
X158847619Y-107369047D01*
X158847619Y-107130952D01*
X158895238Y-107035714D01*
X158942857Y-106988095D01*
X159847619Y-108178571D02*
X159847619Y-108273809D01*
X159800000Y-108369047D01*
X159752380Y-108416666D01*
X159657142Y-108464285D01*
X159466666Y-108511904D01*
X159228571Y-108511904D01*
X159038095Y-108464285D01*
X158942857Y-108416666D01*
X158895238Y-108369047D01*
X158847619Y-108273809D01*
X158847619Y-108178571D01*
X158895238Y-108083333D01*
X158942857Y-108035714D01*
X159038095Y-107988095D01*
X159228571Y-107940476D01*
X159466666Y-107940476D01*
X159657142Y-107988095D01*
X159752380Y-108035714D01*
X159800000Y-108083333D01*
X159847619Y-108178571D01*
X159847619Y-109130952D02*
X159847619Y-109226190D01*
X159800000Y-109321428D01*
X159752380Y-109369047D01*
X159657142Y-109416666D01*
X159466666Y-109464285D01*
X159228571Y-109464285D01*
X159038095Y-109416666D01*
X158942857Y-109369047D01*
X158895238Y-109321428D01*
X158847619Y-109226190D01*
X158847619Y-109130952D01*
X158895238Y-109035714D01*
X158942857Y-108988095D01*
X159038095Y-108940476D01*
X159228571Y-108892857D01*
X159466666Y-108892857D01*
X159657142Y-108940476D01*
X159752380Y-108988095D01*
X159800000Y-109035714D01*
X159847619Y-109130952D01*
X158847619Y-110654761D02*
X159514285Y-110654761D01*
X159419047Y-110654761D02*
X159466666Y-110702380D01*
X159514285Y-110797619D01*
X159514285Y-110940476D01*
X159466666Y-111035714D01*
X159371428Y-111083333D01*
X158847619Y-111083333D01*
X159371428Y-111083333D02*
X159466666Y-111130952D01*
X159514285Y-111226190D01*
X159514285Y-111369047D01*
X159466666Y-111464285D01*
X159371428Y-111511904D01*
X158847619Y-111511904D01*
X158847619Y-111988095D02*
X159514285Y-111988095D01*
X159419047Y-111988095D02*
X159466666Y-112035714D01*
X159514285Y-112130952D01*
X159514285Y-112273809D01*
X159466666Y-112369047D01*
X159371428Y-112416666D01*
X158847619Y-112416666D01*
X159371428Y-112416666D02*
X159466666Y-112464285D01*
X159514285Y-112559523D01*
X159514285Y-112702380D01*
X159466666Y-112797619D01*
X159371428Y-112845238D01*
X158847619Y-112845238D01*
X158000000Y-102500000D02*
X158000000Y-115000000D01*
X137000000Y-102500000D02*
X158586421Y-102500000D01*
X137000000Y-115000000D02*
X158586421Y-115000000D01*
X158000000Y-115000000D02*
X157413579Y-113873496D01*
X158000000Y-115000000D02*
X158586421Y-113873496D01*
X158000000Y-102500000D02*
X157413579Y-103626504D01*
X158000000Y-102500000D02*
X158586421Y-103626504D01*
X139428571Y-84652380D02*
X138857142Y-84652380D01*
X139142857Y-84652380D02*
X139142857Y-83652380D01*
X139047619Y-83795238D01*
X138952380Y-83890476D01*
X138857142Y-83938095D01*
X139809523Y-83747619D02*
X139857142Y-83700000D01*
X139952380Y-83652380D01*
X140190476Y-83652380D01*
X140285714Y-83700000D01*
X140333333Y-83747619D01*
X140380952Y-83842857D01*
X140380952Y-83938095D01*
X140333333Y-84080952D01*
X139761904Y-84652380D01*
X140380952Y-84652380D01*
X140809523Y-84557142D02*
X140857142Y-84604761D01*
X140809523Y-84652380D01*
X140761904Y-84604761D01*
X140809523Y-84557142D01*
X140809523Y-84652380D01*
X141476190Y-83652380D02*
X141571428Y-83652380D01*
X141666666Y-83700000D01*
X141714285Y-83747619D01*
X141761904Y-83842857D01*
X141809523Y-84033333D01*
X141809523Y-84271428D01*
X141761904Y-84461904D01*
X141714285Y-84557142D01*
X141666666Y-84604761D01*
X141571428Y-84652380D01*
X141476190Y-84652380D01*
X141380952Y-84604761D01*
X141333333Y-84557142D01*
X141285714Y-84461904D01*
X141238095Y-84271428D01*
X141238095Y-84033333D01*
X141285714Y-83842857D01*
X141333333Y-83747619D01*
X141380952Y-83700000D01*
X141476190Y-83652380D01*
X142428571Y-83652380D02*
X142523809Y-83652380D01*
X142619047Y-83700000D01*
X142666666Y-83747619D01*
X142714285Y-83842857D01*
X142761904Y-84033333D01*
X142761904Y-84271428D01*
X142714285Y-84461904D01*
X142666666Y-84557142D01*
X142619047Y-84604761D01*
X142523809Y-84652380D01*
X142428571Y-84652380D01*
X142333333Y-84604761D01*
X142285714Y-84557142D01*
X142238095Y-84461904D01*
X142190476Y-84271428D01*
X142190476Y-84033333D01*
X142238095Y-83842857D01*
X142285714Y-83747619D01*
X142333333Y-83700000D01*
X142428571Y-83652380D01*
X143380952Y-83652380D02*
X143476190Y-83652380D01*
X143571428Y-83700000D01*
X143619047Y-83747619D01*
X143666666Y-83842857D01*
X143714285Y-84033333D01*
X143714285Y-84271428D01*
X143666666Y-84461904D01*
X143619047Y-84557142D01*
X143571428Y-84604761D01*
X143476190Y-84652380D01*
X143380952Y-84652380D01*
X143285714Y-84604761D01*
X143238095Y-84557142D01*
X143190476Y-84461904D01*
X143142857Y-84271428D01*
X143142857Y-84033333D01*
X143190476Y-83842857D01*
X143238095Y-83747619D01*
X143285714Y-83700000D01*
X143380952Y-83652380D01*
X144904761Y-84652380D02*
X144904761Y-83985714D01*
X144904761Y-84080952D02*
X144952380Y-84033333D01*
X145047619Y-83985714D01*
X145190476Y-83985714D01*
X145285714Y-84033333D01*
X145333333Y-84128571D01*
X145333333Y-84652380D01*
X145333333Y-84128571D02*
X145380952Y-84033333D01*
X145476190Y-83985714D01*
X145619047Y-83985714D01*
X145714285Y-84033333D01*
X145761904Y-84128571D01*
X145761904Y-84652380D01*
X146238095Y-84652380D02*
X146238095Y-83985714D01*
X146238095Y-84080952D02*
X146285714Y-84033333D01*
X146380952Y-83985714D01*
X146523809Y-83985714D01*
X146619047Y-84033333D01*
X146666666Y-84128571D01*
X146666666Y-84652380D01*
X146666666Y-84128571D02*
X146714285Y-84033333D01*
X146809523Y-83985714D01*
X146952380Y-83985714D01*
X147047619Y-84033333D01*
X147095238Y-84128571D01*
X147095238Y-84652380D01*
X137000000Y-85500000D02*
X149000000Y-85500000D01*
X137000000Y-102500000D02*
X137000000Y-84913579D01*
X149000000Y-102500000D02*
X149000000Y-84913579D01*
X149000000Y-85500000D02*
X147873496Y-86086421D01*
X149000000Y-85500000D02*
X147873496Y-84913579D01*
X137000000Y-85500000D02*
X138126504Y-86086421D01*
X137000000Y-85500000D02*
X138126504Y-84913579D01*
X89785714Y-86152380D02*
X90404761Y-86152380D01*
X90071428Y-86533333D01*
X90214285Y-86533333D01*
X90309523Y-86580952D01*
X90357142Y-86628571D01*
X90404761Y-86723809D01*
X90404761Y-86961904D01*
X90357142Y-87057142D01*
X90309523Y-87104761D01*
X90214285Y-87152380D01*
X89928571Y-87152380D01*
X89833333Y-87104761D01*
X89785714Y-87057142D01*
X90833333Y-87057142D02*
X90880952Y-87104761D01*
X90833333Y-87152380D01*
X90785714Y-87104761D01*
X90833333Y-87057142D01*
X90833333Y-87152380D01*
X91500000Y-86152380D02*
X91595238Y-86152380D01*
X91690476Y-86200000D01*
X91738095Y-86247619D01*
X91785714Y-86342857D01*
X91833333Y-86533333D01*
X91833333Y-86771428D01*
X91785714Y-86961904D01*
X91738095Y-87057142D01*
X91690476Y-87104761D01*
X91595238Y-87152380D01*
X91500000Y-87152380D01*
X91404761Y-87104761D01*
X91357142Y-87057142D01*
X91309523Y-86961904D01*
X91261904Y-86771428D01*
X91261904Y-86533333D01*
X91309523Y-86342857D01*
X91357142Y-86247619D01*
X91404761Y-86200000D01*
X91500000Y-86152380D01*
X92452380Y-86152380D02*
X92547619Y-86152380D01*
X92642857Y-86200000D01*
X92690476Y-86247619D01*
X92738095Y-86342857D01*
X92785714Y-86533333D01*
X92785714Y-86771428D01*
X92738095Y-86961904D01*
X92690476Y-87057142D01*
X92642857Y-87104761D01*
X92547619Y-87152380D01*
X92452380Y-87152380D01*
X92357142Y-87104761D01*
X92309523Y-87057142D01*
X92261904Y-86961904D01*
X92214285Y-86771428D01*
X92214285Y-86533333D01*
X92261904Y-86342857D01*
X92309523Y-86247619D01*
X92357142Y-86200000D01*
X92452380Y-86152380D01*
X93404761Y-86152380D02*
X93500000Y-86152380D01*
X93595238Y-86200000D01*
X93642857Y-86247619D01*
X93690476Y-86342857D01*
X93738095Y-86533333D01*
X93738095Y-86771428D01*
X93690476Y-86961904D01*
X93642857Y-87057142D01*
X93595238Y-87104761D01*
X93500000Y-87152380D01*
X93404761Y-87152380D01*
X93309523Y-87104761D01*
X93261904Y-87057142D01*
X93214285Y-86961904D01*
X93166666Y-86771428D01*
X93166666Y-86533333D01*
X93214285Y-86342857D01*
X93261904Y-86247619D01*
X93309523Y-86200000D01*
X93404761Y-86152380D01*
X94928571Y-87152380D02*
X94928571Y-86485714D01*
X94928571Y-86580952D02*
X94976190Y-86533333D01*
X95071428Y-86485714D01*
X95214285Y-86485714D01*
X95309523Y-86533333D01*
X95357142Y-86628571D01*
X95357142Y-87152380D01*
X95357142Y-86628571D02*
X95404761Y-86533333D01*
X95500000Y-86485714D01*
X95642857Y-86485714D01*
X95738095Y-86533333D01*
X95785714Y-86628571D01*
X95785714Y-87152380D01*
X96261904Y-87152380D02*
X96261904Y-86485714D01*
X96261904Y-86580952D02*
X96309523Y-86533333D01*
X96404761Y-86485714D01*
X96547619Y-86485714D01*
X96642857Y-86533333D01*
X96690476Y-86628571D01*
X96690476Y-87152380D01*
X96690476Y-86628571D02*
X96738095Y-86533333D01*
X96833333Y-86485714D01*
X96976190Y-86485714D01*
X97071428Y-86533333D01*
X97119047Y-86628571D01*
X97119047Y-87152380D01*
X92000000Y-88000000D02*
X95000000Y-88000000D01*
X92000000Y-105000000D02*
X92000000Y-87413579D01*
X95000000Y-105000000D02*
X95000000Y-87413579D01*
X95000000Y-88000000D02*
X93873496Y-88586421D01*
X95000000Y-88000000D02*
X93873496Y-87413579D01*
X92000000Y-88000000D02*
X93126504Y-88586421D01*
X92000000Y-88000000D02*
X93126504Y-87413579D01*
X154252380Y-110333333D02*
X154300000Y-110380952D01*
X154347619Y-110476190D01*
X154347619Y-110714285D01*
X154300000Y-110809523D01*
X154252380Y-110857142D01*
X154157142Y-110904761D01*
X154061904Y-110904761D01*
X153919047Y-110857142D01*
X153347619Y-110285714D01*
X153347619Y-110904761D01*
X153442857Y-111333333D02*
X153395238Y-111380952D01*
X153347619Y-111333333D01*
X153395238Y-111285714D01*
X153442857Y-111333333D01*
X153347619Y-111333333D01*
X154347619Y-112000000D02*
X154347619Y-112095238D01*
X154300000Y-112190476D01*
X154252380Y-112238095D01*
X154157142Y-112285714D01*
X153966666Y-112333333D01*
X153728571Y-112333333D01*
X153538095Y-112285714D01*
X153442857Y-112238095D01*
X153395238Y-112190476D01*
X153347619Y-112095238D01*
X153347619Y-112000000D01*
X153395238Y-111904761D01*
X153442857Y-111857142D01*
X153538095Y-111809523D01*
X153728571Y-111761904D01*
X153966666Y-111761904D01*
X154157142Y-111809523D01*
X154252380Y-111857142D01*
X154300000Y-111904761D01*
X154347619Y-112000000D01*
X154347619Y-112952380D02*
X154347619Y-113047619D01*
X154300000Y-113142857D01*
X154252380Y-113190476D01*
X154157142Y-113238095D01*
X153966666Y-113285714D01*
X153728571Y-113285714D01*
X153538095Y-113238095D01*
X153442857Y-113190476D01*
X153395238Y-113142857D01*
X153347619Y-113047619D01*
X153347619Y-112952380D01*
X153395238Y-112857142D01*
X153442857Y-112809523D01*
X153538095Y-112761904D01*
X153728571Y-112714285D01*
X153966666Y-112714285D01*
X154157142Y-112761904D01*
X154252380Y-112809523D01*
X154300000Y-112857142D01*
X154347619Y-112952380D01*
X154347619Y-113904761D02*
X154347619Y-114000000D01*
X154300000Y-114095238D01*
X154252380Y-114142857D01*
X154157142Y-114190476D01*
X153966666Y-114238095D01*
X153728571Y-114238095D01*
X153538095Y-114190476D01*
X153442857Y-114142857D01*
X153395238Y-114095238D01*
X153347619Y-114000000D01*
X153347619Y-113904761D01*
X153395238Y-113809523D01*
X153442857Y-113761904D01*
X153538095Y-113714285D01*
X153728571Y-113666666D01*
X153966666Y-113666666D01*
X154157142Y-113714285D01*
X154252380Y-113761904D01*
X154300000Y-113809523D01*
X154347619Y-113904761D01*
X153347619Y-115428571D02*
X154014285Y-115428571D01*
X153919047Y-115428571D02*
X153966666Y-115476190D01*
X154014285Y-115571428D01*
X154014285Y-115714285D01*
X153966666Y-115809523D01*
X153871428Y-115857142D01*
X153347619Y-115857142D01*
X153871428Y-115857142D02*
X153966666Y-115904761D01*
X154014285Y-116000000D01*
X154014285Y-116142857D01*
X153966666Y-116238095D01*
X153871428Y-116285714D01*
X153347619Y-116285714D01*
X153347619Y-116761904D02*
X154014285Y-116761904D01*
X153919047Y-116761904D02*
X153966666Y-116809523D01*
X154014285Y-116904761D01*
X154014285Y-117047619D01*
X153966666Y-117142857D01*
X153871428Y-117190476D01*
X153347619Y-117190476D01*
X153871428Y-117190476D02*
X153966666Y-117238095D01*
X154014285Y-117333333D01*
X154014285Y-117476190D01*
X153966666Y-117571428D01*
X153871428Y-117619047D01*
X153347619Y-117619047D01*
X152500000Y-113000000D02*
X152500000Y-115000000D01*
X147500000Y-113000000D02*
X153086421Y-113000000D01*
X147500000Y-115000000D02*
X153086421Y-115000000D01*
X152500000Y-115000000D02*
X151913579Y-113873496D01*
X152500000Y-115000000D02*
X153086421Y-113873496D01*
X152500000Y-113000000D02*
X151913579Y-114126504D01*
X152500000Y-113000000D02*
X153086421Y-114126504D01*
X145154761Y-118752380D02*
X144583333Y-118752380D01*
X144869047Y-118752380D02*
X144869047Y-117752380D01*
X144773809Y-117895238D01*
X144678571Y-117990476D01*
X144583333Y-118038095D01*
X145583333Y-118657142D02*
X145630952Y-118704761D01*
X145583333Y-118752380D01*
X145535714Y-118704761D01*
X145583333Y-118657142D01*
X145583333Y-118752380D01*
X146535714Y-117752380D02*
X146059523Y-117752380D01*
X146011904Y-118228571D01*
X146059523Y-118180952D01*
X146154761Y-118133333D01*
X146392857Y-118133333D01*
X146488095Y-118180952D01*
X146535714Y-118228571D01*
X146583333Y-118323809D01*
X146583333Y-118561904D01*
X146535714Y-118657142D01*
X146488095Y-118704761D01*
X146392857Y-118752380D01*
X146154761Y-118752380D01*
X146059523Y-118704761D01*
X146011904Y-118657142D01*
X147202380Y-117752380D02*
X147297619Y-117752380D01*
X147392857Y-117800000D01*
X147440476Y-117847619D01*
X147488095Y-117942857D01*
X147535714Y-118133333D01*
X147535714Y-118371428D01*
X147488095Y-118561904D01*
X147440476Y-118657142D01*
X147392857Y-118704761D01*
X147297619Y-118752380D01*
X147202380Y-118752380D01*
X147107142Y-118704761D01*
X147059523Y-118657142D01*
X147011904Y-118561904D01*
X146964285Y-118371428D01*
X146964285Y-118133333D01*
X147011904Y-117942857D01*
X147059523Y-117847619D01*
X147107142Y-117800000D01*
X147202380Y-117752380D01*
X148154761Y-117752380D02*
X148250000Y-117752380D01*
X148345238Y-117800000D01*
X148392857Y-117847619D01*
X148440476Y-117942857D01*
X148488095Y-118133333D01*
X148488095Y-118371428D01*
X148440476Y-118561904D01*
X148392857Y-118657142D01*
X148345238Y-118704761D01*
X148250000Y-118752380D01*
X148154761Y-118752380D01*
X148059523Y-118704761D01*
X148011904Y-118657142D01*
X147964285Y-118561904D01*
X147916666Y-118371428D01*
X147916666Y-118133333D01*
X147964285Y-117942857D01*
X148011904Y-117847619D01*
X148059523Y-117800000D01*
X148154761Y-117752380D01*
X149678571Y-118752380D02*
X149678571Y-118085714D01*
X149678571Y-118180952D02*
X149726190Y-118133333D01*
X149821428Y-118085714D01*
X149964285Y-118085714D01*
X150059523Y-118133333D01*
X150107142Y-118228571D01*
X150107142Y-118752380D01*
X150107142Y-118228571D02*
X150154761Y-118133333D01*
X150250000Y-118085714D01*
X150392857Y-118085714D01*
X150488095Y-118133333D01*
X150535714Y-118228571D01*
X150535714Y-118752380D01*
X151011904Y-118752380D02*
X151011904Y-118085714D01*
X151011904Y-118180952D02*
X151059523Y-118133333D01*
X151154761Y-118085714D01*
X151297619Y-118085714D01*
X151392857Y-118133333D01*
X151440476Y-118228571D01*
X151440476Y-118752380D01*
X151440476Y-118228571D02*
X151488095Y-118133333D01*
X151583333Y-118085714D01*
X151726190Y-118085714D01*
X151821428Y-118133333D01*
X151869047Y-118228571D01*
X151869047Y-118752380D01*
X149000000Y-117000000D02*
X147500000Y-117000000D01*
X149000000Y-113000000D02*
X149000000Y-117586421D01*
X147500000Y-113000000D02*
X147500000Y-117586421D01*
X147500000Y-117000000D02*
X148626504Y-116413579D01*
X147500000Y-117000000D02*
X148626504Y-117586421D01*
X149000000Y-117000000D02*
X147873496Y-116413579D01*
X149000000Y-117000000D02*
X147873496Y-117586421D01*
X86752380Y-113571428D02*
X86752380Y-114142857D01*
X86752380Y-113857142D02*
X85752380Y-113857142D01*
X85895238Y-113952380D01*
X85990476Y-114047619D01*
X86038095Y-114142857D01*
X85752380Y-112952380D02*
X85752380Y-112857142D01*
X85800000Y-112761904D01*
X85847619Y-112714285D01*
X85942857Y-112666666D01*
X86133333Y-112619047D01*
X86371428Y-112619047D01*
X86561904Y-112666666D01*
X86657142Y-112714285D01*
X86704761Y-112761904D01*
X86752380Y-112857142D01*
X86752380Y-112952380D01*
X86704761Y-113047619D01*
X86657142Y-113095238D01*
X86561904Y-113142857D01*
X86371428Y-113190476D01*
X86133333Y-113190476D01*
X85942857Y-113142857D01*
X85847619Y-113095238D01*
X85800000Y-113047619D01*
X85752380Y-112952380D01*
X86657142Y-112190476D02*
X86704761Y-112142857D01*
X86752380Y-112190476D01*
X86704761Y-112238095D01*
X86657142Y-112190476D01*
X86752380Y-112190476D01*
X85752380Y-111523809D02*
X85752380Y-111428571D01*
X85800000Y-111333333D01*
X85847619Y-111285714D01*
X85942857Y-111238095D01*
X86133333Y-111190476D01*
X86371428Y-111190476D01*
X86561904Y-111238095D01*
X86657142Y-111285714D01*
X86704761Y-111333333D01*
X86752380Y-111428571D01*
X86752380Y-111523809D01*
X86704761Y-111619047D01*
X86657142Y-111666666D01*
X86561904Y-111714285D01*
X86371428Y-111761904D01*
X86133333Y-111761904D01*
X85942857Y-111714285D01*
X85847619Y-111666666D01*
X85800000Y-111619047D01*
X85752380Y-111523809D01*
X85752380Y-110571428D02*
X85752380Y-110476190D01*
X85800000Y-110380952D01*
X85847619Y-110333333D01*
X85942857Y-110285714D01*
X86133333Y-110238095D01*
X86371428Y-110238095D01*
X86561904Y-110285714D01*
X86657142Y-110333333D01*
X86704761Y-110380952D01*
X86752380Y-110476190D01*
X86752380Y-110571428D01*
X86704761Y-110666666D01*
X86657142Y-110714285D01*
X86561904Y-110761904D01*
X86371428Y-110809523D01*
X86133333Y-110809523D01*
X85942857Y-110761904D01*
X85847619Y-110714285D01*
X85800000Y-110666666D01*
X85752380Y-110571428D01*
X85752380Y-109619047D02*
X85752380Y-109523809D01*
X85800000Y-109428571D01*
X85847619Y-109380952D01*
X85942857Y-109333333D01*
X86133333Y-109285714D01*
X86371428Y-109285714D01*
X86561904Y-109333333D01*
X86657142Y-109380952D01*
X86704761Y-109428571D01*
X86752380Y-109523809D01*
X86752380Y-109619047D01*
X86704761Y-109714285D01*
X86657142Y-109761904D01*
X86561904Y-109809523D01*
X86371428Y-109857142D01*
X86133333Y-109857142D01*
X85942857Y-109809523D01*
X85847619Y-109761904D01*
X85800000Y-109714285D01*
X85752380Y-109619047D01*
X86752380Y-108095238D02*
X86085714Y-108095238D01*
X86180952Y-108095238D02*
X86133333Y-108047619D01*
X86085714Y-107952380D01*
X86085714Y-107809523D01*
X86133333Y-107714285D01*
X86228571Y-107666666D01*
X86752380Y-107666666D01*
X86228571Y-107666666D02*
X86133333Y-107619047D01*
X86085714Y-107523809D01*
X86085714Y-107380952D01*
X86133333Y-107285714D01*
X86228571Y-107238095D01*
X86752380Y-107238095D01*
X86752380Y-106761904D02*
X86085714Y-106761904D01*
X86180952Y-106761904D02*
X86133333Y-106714285D01*
X86085714Y-106619047D01*
X86085714Y-106476190D01*
X86133333Y-106380952D01*
X86228571Y-106333333D01*
X86752380Y-106333333D01*
X86228571Y-106333333D02*
X86133333Y-106285714D01*
X86085714Y-106190476D01*
X86085714Y-106047619D01*
X86133333Y-105952380D01*
X86228571Y-105904761D01*
X86752380Y-105904761D01*
X87600000Y-115000000D02*
X87600000Y-105000000D01*
X92000000Y-115000000D02*
X87013579Y-115000000D01*
X92000000Y-105000000D02*
X87013579Y-105000000D01*
X87600000Y-105000000D02*
X88186421Y-106126504D01*
X87600000Y-105000000D02*
X87013579Y-106126504D01*
X87600000Y-115000000D02*
X88186421Y-113873496D01*
X87600000Y-115000000D02*
X87013579Y-113873496D01*
X87333333Y-99247619D02*
X87380952Y-99200000D01*
X87476190Y-99152380D01*
X87714285Y-99152380D01*
X87809523Y-99200000D01*
X87857142Y-99247619D01*
X87904761Y-99342857D01*
X87904761Y-99438095D01*
X87857142Y-99580952D01*
X87285714Y-100152380D01*
X87904761Y-100152380D01*
X88333333Y-100057142D02*
X88380952Y-100104761D01*
X88333333Y-100152380D01*
X88285714Y-100104761D01*
X88333333Y-100057142D01*
X88333333Y-100152380D01*
X89000000Y-99152380D02*
X89095238Y-99152380D01*
X89190476Y-99200000D01*
X89238095Y-99247619D01*
X89285714Y-99342857D01*
X89333333Y-99533333D01*
X89333333Y-99771428D01*
X89285714Y-99961904D01*
X89238095Y-100057142D01*
X89190476Y-100104761D01*
X89095238Y-100152380D01*
X89000000Y-100152380D01*
X88904761Y-100104761D01*
X88857142Y-100057142D01*
X88809523Y-99961904D01*
X88761904Y-99771428D01*
X88761904Y-99533333D01*
X88809523Y-99342857D01*
X88857142Y-99247619D01*
X88904761Y-99200000D01*
X89000000Y-99152380D01*
X89952380Y-99152380D02*
X90047619Y-99152380D01*
X90142857Y-99200000D01*
X90190476Y-99247619D01*
X90238095Y-99342857D01*
X90285714Y-99533333D01*
X90285714Y-99771428D01*
X90238095Y-99961904D01*
X90190476Y-100057142D01*
X90142857Y-100104761D01*
X90047619Y-100152380D01*
X89952380Y-100152380D01*
X89857142Y-100104761D01*
X89809523Y-100057142D01*
X89761904Y-99961904D01*
X89714285Y-99771428D01*
X89714285Y-99533333D01*
X89761904Y-99342857D01*
X89809523Y-99247619D01*
X89857142Y-99200000D01*
X89952380Y-99152380D01*
X90904761Y-99152380D02*
X91000000Y-99152380D01*
X91095238Y-99200000D01*
X91142857Y-99247619D01*
X91190476Y-99342857D01*
X91238095Y-99533333D01*
X91238095Y-99771428D01*
X91190476Y-99961904D01*
X91142857Y-100057142D01*
X91095238Y-100104761D01*
X91000000Y-100152380D01*
X90904761Y-100152380D01*
X90809523Y-100104761D01*
X90761904Y-100057142D01*
X90714285Y-99961904D01*
X90666666Y-99771428D01*
X90666666Y-99533333D01*
X90714285Y-99342857D01*
X90761904Y-99247619D01*
X90809523Y-99200000D01*
X90904761Y-99152380D01*
X92428571Y-100152380D02*
X92428571Y-99485714D01*
X92428571Y-99580952D02*
X92476190Y-99533333D01*
X92571428Y-99485714D01*
X92714285Y-99485714D01*
X92809523Y-99533333D01*
X92857142Y-99628571D01*
X92857142Y-100152380D01*
X92857142Y-99628571D02*
X92904761Y-99533333D01*
X93000000Y-99485714D01*
X93142857Y-99485714D01*
X93238095Y-99533333D01*
X93285714Y-99628571D01*
X93285714Y-100152380D01*
X93761904Y-100152380D02*
X93761904Y-99485714D01*
X93761904Y-99580952D02*
X93809523Y-99533333D01*
X93904761Y-99485714D01*
X94047619Y-99485714D01*
X94142857Y-99533333D01*
X94190476Y-99628571D01*
X94190476Y-100152380D01*
X94190476Y-99628571D02*
X94238095Y-99533333D01*
X94333333Y-99485714D01*
X94476190Y-99485714D01*
X94571428Y-99533333D01*
X94619047Y-99628571D01*
X94619047Y-100152380D01*
X90000000Y-101000000D02*
X92000000Y-101000000D01*
X90000000Y-110000000D02*
X90000000Y-100413579D01*
X92000000Y-110000000D02*
X92000000Y-100413579D01*
X92000000Y-101000000D02*
X90873496Y-101586421D01*
X92000000Y-101000000D02*
X90873496Y-100413579D01*
X90000000Y-101000000D02*
X91126504Y-101586421D01*
X90000000Y-101000000D02*
X91126504Y-100413579D01*
X115880952Y-125752380D02*
X115404761Y-125752380D01*
X115357142Y-126228571D01*
X115404761Y-126180952D01*
X115500000Y-126133333D01*
X115738095Y-126133333D01*
X115833333Y-126180952D01*
X115880952Y-126228571D01*
X115928571Y-126323809D01*
X115928571Y-126561904D01*
X115880952Y-126657142D01*
X115833333Y-126704761D01*
X115738095Y-126752380D01*
X115500000Y-126752380D01*
X115404761Y-126704761D01*
X115357142Y-126657142D01*
X116404761Y-126752380D02*
X116595238Y-126752380D01*
X116690476Y-126704761D01*
X116738095Y-126657142D01*
X116833333Y-126514285D01*
X116880952Y-126323809D01*
X116880952Y-125942857D01*
X116833333Y-125847619D01*
X116785714Y-125800000D01*
X116690476Y-125752380D01*
X116500000Y-125752380D01*
X116404761Y-125800000D01*
X116357142Y-125847619D01*
X116309523Y-125942857D01*
X116309523Y-126180952D01*
X116357142Y-126276190D01*
X116404761Y-126323809D01*
X116500000Y-126371428D01*
X116690476Y-126371428D01*
X116785714Y-126323809D01*
X116833333Y-126276190D01*
X116880952Y-126180952D01*
X117309523Y-126657142D02*
X117357142Y-126704761D01*
X117309523Y-126752380D01*
X117261904Y-126704761D01*
X117309523Y-126657142D01*
X117309523Y-126752380D01*
X117976190Y-125752380D02*
X118071428Y-125752380D01*
X118166666Y-125800000D01*
X118214285Y-125847619D01*
X118261904Y-125942857D01*
X118309523Y-126133333D01*
X118309523Y-126371428D01*
X118261904Y-126561904D01*
X118214285Y-126657142D01*
X118166666Y-126704761D01*
X118071428Y-126752380D01*
X117976190Y-126752380D01*
X117880952Y-126704761D01*
X117833333Y-126657142D01*
X117785714Y-126561904D01*
X117738095Y-126371428D01*
X117738095Y-126133333D01*
X117785714Y-125942857D01*
X117833333Y-125847619D01*
X117880952Y-125800000D01*
X117976190Y-125752380D01*
X118928571Y-125752380D02*
X119023809Y-125752380D01*
X119119047Y-125800000D01*
X119166666Y-125847619D01*
X119214285Y-125942857D01*
X119261904Y-126133333D01*
X119261904Y-126371428D01*
X119214285Y-126561904D01*
X119166666Y-126657142D01*
X119119047Y-126704761D01*
X119023809Y-126752380D01*
X118928571Y-126752380D01*
X118833333Y-126704761D01*
X118785714Y-126657142D01*
X118738095Y-126561904D01*
X118690476Y-126371428D01*
X118690476Y-126133333D01*
X118738095Y-125942857D01*
X118785714Y-125847619D01*
X118833333Y-125800000D01*
X118928571Y-125752380D01*
X119880952Y-125752380D02*
X119976190Y-125752380D01*
X120071428Y-125800000D01*
X120119047Y-125847619D01*
X120166666Y-125942857D01*
X120214285Y-126133333D01*
X120214285Y-126371428D01*
X120166666Y-126561904D01*
X120119047Y-126657142D01*
X120071428Y-126704761D01*
X119976190Y-126752380D01*
X119880952Y-126752380D01*
X119785714Y-126704761D01*
X119738095Y-126657142D01*
X119690476Y-126561904D01*
X119642857Y-126371428D01*
X119642857Y-126133333D01*
X119690476Y-125942857D01*
X119738095Y-125847619D01*
X119785714Y-125800000D01*
X119880952Y-125752380D01*
X121404761Y-126752380D02*
X121404761Y-126085714D01*
X121404761Y-126180952D02*
X121452380Y-126133333D01*
X121547619Y-126085714D01*
X121690476Y-126085714D01*
X121785714Y-126133333D01*
X121833333Y-126228571D01*
X121833333Y-126752380D01*
X121833333Y-126228571D02*
X121880952Y-126133333D01*
X121976190Y-126085714D01*
X122119047Y-126085714D01*
X122214285Y-126133333D01*
X122261904Y-126228571D01*
X122261904Y-126752380D01*
X122738095Y-126752380D02*
X122738095Y-126085714D01*
X122738095Y-126180952D02*
X122785714Y-126133333D01*
X122880952Y-126085714D01*
X123023809Y-126085714D01*
X123119047Y-126133333D01*
X123166666Y-126228571D01*
X123166666Y-126752380D01*
X123166666Y-126228571D02*
X123214285Y-126133333D01*
X123309523Y-126085714D01*
X123452380Y-126085714D01*
X123547619Y-126133333D01*
X123595238Y-126228571D01*
X123595238Y-126752380D01*
X90000000Y-125000000D02*
X149000000Y-125000000D01*
X90000000Y-115000000D02*
X90000000Y-125586421D01*
X149000000Y-115000000D02*
X149000000Y-125586421D01*
X149000000Y-125000000D02*
X147873496Y-125586421D01*
X149000000Y-125000000D02*
X147873496Y-124413579D01*
X90000000Y-125000000D02*
X91126504Y-125586421D01*
X90000000Y-125000000D02*
X91126504Y-124413579D01*
X78247619Y-106892857D02*
X78200000Y-106845238D01*
X78152380Y-106750000D01*
X78152380Y-106511904D01*
X78200000Y-106416666D01*
X78247619Y-106369047D01*
X78342857Y-106321428D01*
X78438095Y-106321428D01*
X78580952Y-106369047D01*
X79152380Y-106940476D01*
X79152380Y-106321428D01*
X78485714Y-105464285D02*
X79152380Y-105464285D01*
X78104761Y-105702380D02*
X78819047Y-105940476D01*
X78819047Y-105321428D01*
X79057142Y-104940476D02*
X79104761Y-104892857D01*
X79152380Y-104940476D01*
X79104761Y-104988095D01*
X79057142Y-104940476D01*
X79152380Y-104940476D01*
X78152380Y-103988095D02*
X78152380Y-104464285D01*
X78628571Y-104511904D01*
X78580952Y-104464285D01*
X78533333Y-104369047D01*
X78533333Y-104130952D01*
X78580952Y-104035714D01*
X78628571Y-103988095D01*
X78723809Y-103940476D01*
X78961904Y-103940476D01*
X79057142Y-103988095D01*
X79104761Y-104035714D01*
X79152380Y-104130952D01*
X79152380Y-104369047D01*
X79104761Y-104464285D01*
X79057142Y-104511904D01*
X78152380Y-103321428D02*
X78152380Y-103226190D01*
X78200000Y-103130952D01*
X78247619Y-103083333D01*
X78342857Y-103035714D01*
X78533333Y-102988095D01*
X78771428Y-102988095D01*
X78961904Y-103035714D01*
X79057142Y-103083333D01*
X79104761Y-103130952D01*
X79152380Y-103226190D01*
X79152380Y-103321428D01*
X79104761Y-103416666D01*
X79057142Y-103464285D01*
X78961904Y-103511904D01*
X78771428Y-103559523D01*
X78533333Y-103559523D01*
X78342857Y-103511904D01*
X78247619Y-103464285D01*
X78200000Y-103416666D01*
X78152380Y-103321428D01*
X78152380Y-102369047D02*
X78152380Y-102273809D01*
X78200000Y-102178571D01*
X78247619Y-102130952D01*
X78342857Y-102083333D01*
X78533333Y-102035714D01*
X78771428Y-102035714D01*
X78961904Y-102083333D01*
X79057142Y-102130952D01*
X79104761Y-102178571D01*
X79152380Y-102273809D01*
X79152380Y-102369047D01*
X79104761Y-102464285D01*
X79057142Y-102511904D01*
X78961904Y-102559523D01*
X78771428Y-102607142D01*
X78533333Y-102607142D01*
X78342857Y-102559523D01*
X78247619Y-102511904D01*
X78200000Y-102464285D01*
X78152380Y-102369047D01*
X79152380Y-100845238D02*
X78485714Y-100845238D01*
X78580952Y-100845238D02*
X78533333Y-100797619D01*
X78485714Y-100702380D01*
X78485714Y-100559523D01*
X78533333Y-100464285D01*
X78628571Y-100416666D01*
X79152380Y-100416666D01*
X78628571Y-100416666D02*
X78533333Y-100369047D01*
X78485714Y-100273809D01*
X78485714Y-100130952D01*
X78533333Y-100035714D01*
X78628571Y-99988095D01*
X79152380Y-99988095D01*
X79152380Y-99511904D02*
X78485714Y-99511904D01*
X78580952Y-99511904D02*
X78533333Y-99464285D01*
X78485714Y-99369047D01*
X78485714Y-99226190D01*
X78533333Y-99130952D01*
X78628571Y-99083333D01*
X79152380Y-99083333D01*
X78628571Y-99083333D02*
X78533333Y-99035714D01*
X78485714Y-98940476D01*
X78485714Y-98797619D01*
X78533333Y-98702380D01*
X78628571Y-98654761D01*
X79152380Y-98654761D01*
X80000000Y-115000000D02*
X80000000Y-90500000D01*
X95000000Y-115000000D02*
X79413579Y-115000000D01*
X95000000Y-90500000D02*
X79413579Y-90500000D01*
X80000000Y-90500000D02*
X80586421Y-91626504D01*
X80000000Y-90500000D02*
X79413579Y-91626504D01*
X80000000Y-115000000D02*
X80586421Y-113873496D01*
X80000000Y-115000000D02*
X79413579Y-113873496D01*
D11*
%TO.C,Y1*%
X96500000Y-111390000D02*
X96500000Y-103770000D01*
X146030000Y-111390000D02*
X96500000Y-111390000D01*
X146030000Y-111390000D02*
X146030000Y-94880000D01*
X96500000Y-93610000D02*
X144760000Y-93610000D01*
X96500000Y-101230000D02*
X96500000Y-93610000D01*
%TD*%
M02*
