%TF.GenerationSoftware,KiCad,Pcbnew,(5.1.5-0-10_14)*%
%TF.CreationDate,2021-01-27T12:26:26-07:00*%
%TF.ProjectId,FieldSensorYSO,4669656c-6453-4656-9e73-6f7259534f2e,2*%
%TF.SameCoordinates,Original*%
%TF.FileFunction,Legend,Bot*%
%TF.FilePolarity,Positive*%
%FSLAX46Y46*%
G04 Gerber Fmt 4.6, Leading zero omitted, Abs format (unit mm)*
G04 Created by KiCad (PCBNEW (5.1.5-0-10_14)) date 2021-01-27 12:26:26*
%MOMM*%
%LPD*%
G04 APERTURE LIST*
%ADD10C,0.150000*%
%ADD11C,0.250000*%
%ADD12C,0.200000*%
G04 APERTURE END LIST*
D10*
%TO.C,R1*%
X95568934Y-107117085D02*
X95568934Y-109882915D01*
X97431066Y-107117085D02*
X97431066Y-109882915D01*
%TO.C,J1*%
X93245000Y-106270000D02*
X90755000Y-106270000D01*
X90755000Y-113890000D02*
X93245000Y-113890000D01*
X90755000Y-103730000D02*
X90755000Y-113890000D01*
X93245000Y-103730000D02*
X90755000Y-103730000D01*
X93245000Y-113890000D02*
X93245000Y-103730000D01*
D11*
X94120000Y-105000000D02*
G75*
G03X94120000Y-105000000I-125000J0D01*
G01*
D10*
%TO.C,D1*%
X146500000Y-102300000D02*
X146500000Y-102700000D01*
X145500000Y-102300000D02*
X146500000Y-102300000D01*
X145500000Y-102700000D02*
X145500000Y-102300000D01*
X146500000Y-102700000D02*
X145500000Y-102700000D01*
D12*
X147100000Y-101700000D02*
G75*
G03X147100000Y-101700000I-100000J0D01*
G01*
D10*
%TO.C,C1*%
X95325000Y-107700000D02*
X95325000Y-109300000D01*
X93675000Y-107700000D02*
X93675000Y-109300000D01*
%TO.C,J2*%
X138395000Y-101130000D02*
X133065000Y-101130000D01*
X133065000Y-103870000D02*
X133065000Y-101130000D01*
X138395000Y-103870000D02*
X133065000Y-103870000D01*
X138395000Y-103870000D02*
X138395000Y-101130000D01*
%TO.C,R1*%
X96752380Y-111589938D02*
X96276190Y-111256605D01*
X96752380Y-111018510D02*
X95752380Y-111018510D01*
X95752380Y-111399462D01*
X95800000Y-111494700D01*
X95847619Y-111542319D01*
X95942857Y-111589938D01*
X96085714Y-111589938D01*
X96180952Y-111542319D01*
X96228571Y-111494700D01*
X96276190Y-111399462D01*
X96276190Y-111018510D01*
X96752380Y-112542319D02*
X96752380Y-111970891D01*
X96752380Y-112256605D02*
X95752380Y-112256605D01*
X95895238Y-112161367D01*
X95990476Y-112066129D01*
X96038095Y-111970891D01*
%TO.C,J1*%
X93173690Y-102132380D02*
X93173690Y-102846666D01*
X93221309Y-102989523D01*
X93316547Y-103084761D01*
X93459404Y-103132380D01*
X93554642Y-103132380D01*
X92173690Y-103132380D02*
X92745119Y-103132380D01*
X92459404Y-103132380D02*
X92459404Y-102132380D01*
X92554642Y-102275238D01*
X92649880Y-102370476D01*
X92745119Y-102418095D01*
%TO.C,D1*%
X148127380Y-101086904D02*
X147127380Y-101086904D01*
X147127380Y-101325000D01*
X147175000Y-101467857D01*
X147270238Y-101563095D01*
X147365476Y-101610714D01*
X147555952Y-101658333D01*
X147698809Y-101658333D01*
X147889285Y-101610714D01*
X147984523Y-101563095D01*
X148079761Y-101467857D01*
X148127380Y-101325000D01*
X148127380Y-101086904D01*
X148127380Y-102610714D02*
X148127380Y-102039285D01*
X148127380Y-102325000D02*
X147127380Y-102325000D01*
X147270238Y-102229761D01*
X147365476Y-102134523D01*
X147413095Y-102039285D01*
%TO.C,C1*%
X94682142Y-110882023D02*
X94729761Y-110834404D01*
X94777380Y-110691547D01*
X94777380Y-110596309D01*
X94729761Y-110453452D01*
X94634523Y-110358214D01*
X94539285Y-110310595D01*
X94348809Y-110262976D01*
X94205952Y-110262976D01*
X94015476Y-110310595D01*
X93920238Y-110358214D01*
X93825000Y-110453452D01*
X93777380Y-110596309D01*
X93777380Y-110691547D01*
X93825000Y-110834404D01*
X93872619Y-110882023D01*
X94777380Y-111834404D02*
X94777380Y-111262976D01*
X94777380Y-111548690D02*
X93777380Y-111548690D01*
X93920238Y-111453452D01*
X94015476Y-111358214D01*
X94063095Y-111262976D01*
%TO.C,J2*%
X132387976Y-101852380D02*
X132387976Y-102566666D01*
X132435595Y-102709523D01*
X132530833Y-102804761D01*
X132673690Y-102852380D01*
X132768928Y-102852380D01*
X131959404Y-101947619D02*
X131911785Y-101900000D01*
X131816547Y-101852380D01*
X131578452Y-101852380D01*
X131483214Y-101900000D01*
X131435595Y-101947619D01*
X131387976Y-102042857D01*
X131387976Y-102138095D01*
X131435595Y-102280952D01*
X132007023Y-102852380D01*
X131387976Y-102852380D01*
%TD*%
M02*
