%TF.GenerationSoftware,KiCad,Pcbnew,(5.1.8)-1*%
%TF.CreationDate,2020-11-27T18:17:46-07:00*%
%TF.ProjectId,FieldSensorYSO,4669656c-6453-4656-9e73-6f7259534f2e,1*%
%TF.SameCoordinates,Original*%
%TF.FileFunction,OtherDrawing,Comment*%
%FSLAX46Y46*%
G04 Gerber Fmt 4.6, Leading zero omitted, Abs format (unit mm)*
G04 Created by KiCad (PCBNEW (5.1.8)-1) date 2020-11-27 18:17:46*
%MOMM*%
%LPD*%
G01*
G04 APERTURE LIST*
%ADD10C,0.150000*%
%ADD11C,1.270000*%
G04 APERTURE END LIST*
D10*
X87252380Y-93845238D02*
X87252380Y-94416666D01*
X87252380Y-94130952D02*
X86252380Y-94130952D01*
X86395238Y-94226190D01*
X86490476Y-94321428D01*
X86538095Y-94416666D01*
X87157142Y-93416666D02*
X87204761Y-93369047D01*
X87252380Y-93416666D01*
X87204761Y-93464285D01*
X87157142Y-93416666D01*
X87252380Y-93416666D01*
X86252380Y-92464285D02*
X86252380Y-92940476D01*
X86728571Y-92988095D01*
X86680952Y-92940476D01*
X86633333Y-92845238D01*
X86633333Y-92607142D01*
X86680952Y-92511904D01*
X86728571Y-92464285D01*
X86823809Y-92416666D01*
X87061904Y-92416666D01*
X87157142Y-92464285D01*
X87204761Y-92511904D01*
X87252380Y-92607142D01*
X87252380Y-92845238D01*
X87204761Y-92940476D01*
X87157142Y-92988095D01*
X86252380Y-91797619D02*
X86252380Y-91702380D01*
X86300000Y-91607142D01*
X86347619Y-91559523D01*
X86442857Y-91511904D01*
X86633333Y-91464285D01*
X86871428Y-91464285D01*
X87061904Y-91511904D01*
X87157142Y-91559523D01*
X87204761Y-91607142D01*
X87252380Y-91702380D01*
X87252380Y-91797619D01*
X87204761Y-91892857D01*
X87157142Y-91940476D01*
X87061904Y-91988095D01*
X86871428Y-92035714D01*
X86633333Y-92035714D01*
X86442857Y-91988095D01*
X86347619Y-91940476D01*
X86300000Y-91892857D01*
X86252380Y-91797619D01*
X86252380Y-90845238D02*
X86252380Y-90750000D01*
X86300000Y-90654761D01*
X86347619Y-90607142D01*
X86442857Y-90559523D01*
X86633333Y-90511904D01*
X86871428Y-90511904D01*
X87061904Y-90559523D01*
X87157142Y-90607142D01*
X87204761Y-90654761D01*
X87252380Y-90750000D01*
X87252380Y-90845238D01*
X87204761Y-90940476D01*
X87157142Y-90988095D01*
X87061904Y-91035714D01*
X86871428Y-91083333D01*
X86633333Y-91083333D01*
X86442857Y-91035714D01*
X86347619Y-90988095D01*
X86300000Y-90940476D01*
X86252380Y-90845238D01*
X87252380Y-89321428D02*
X86585714Y-89321428D01*
X86680952Y-89321428D02*
X86633333Y-89273809D01*
X86585714Y-89178571D01*
X86585714Y-89035714D01*
X86633333Y-88940476D01*
X86728571Y-88892857D01*
X87252380Y-88892857D01*
X86728571Y-88892857D02*
X86633333Y-88845238D01*
X86585714Y-88750000D01*
X86585714Y-88607142D01*
X86633333Y-88511904D01*
X86728571Y-88464285D01*
X87252380Y-88464285D01*
X87252380Y-87988095D02*
X86585714Y-87988095D01*
X86680952Y-87988095D02*
X86633333Y-87940476D01*
X86585714Y-87845238D01*
X86585714Y-87702380D01*
X86633333Y-87607142D01*
X86728571Y-87559523D01*
X87252380Y-87559523D01*
X86728571Y-87559523D02*
X86633333Y-87511904D01*
X86585714Y-87416666D01*
X86585714Y-87273809D01*
X86633333Y-87178571D01*
X86728571Y-87130952D01*
X87252380Y-87130952D01*
X88100000Y-91500000D02*
X88100000Y-90000000D01*
X96000000Y-91500000D02*
X87513579Y-91500000D01*
X96000000Y-90000000D02*
X87513579Y-90000000D01*
X88100000Y-90000000D02*
X88686421Y-91126504D01*
X88100000Y-90000000D02*
X87513579Y-91126504D01*
X88100000Y-91500000D02*
X88686421Y-90373496D01*
X88100000Y-91500000D02*
X87513579Y-90373496D01*
X146083333Y-82547619D02*
X146130952Y-82500000D01*
X146226190Y-82452380D01*
X146464285Y-82452380D01*
X146559523Y-82500000D01*
X146607142Y-82547619D01*
X146654761Y-82642857D01*
X146654761Y-82738095D01*
X146607142Y-82880952D01*
X146035714Y-83452380D01*
X146654761Y-83452380D01*
X147083333Y-83357142D02*
X147130952Y-83404761D01*
X147083333Y-83452380D01*
X147035714Y-83404761D01*
X147083333Y-83357142D01*
X147083333Y-83452380D01*
X148035714Y-82452380D02*
X147559523Y-82452380D01*
X147511904Y-82928571D01*
X147559523Y-82880952D01*
X147654761Y-82833333D01*
X147892857Y-82833333D01*
X147988095Y-82880952D01*
X148035714Y-82928571D01*
X148083333Y-83023809D01*
X148083333Y-83261904D01*
X148035714Y-83357142D01*
X147988095Y-83404761D01*
X147892857Y-83452380D01*
X147654761Y-83452380D01*
X147559523Y-83404761D01*
X147511904Y-83357142D01*
X148702380Y-82452380D02*
X148797619Y-82452380D01*
X148892857Y-82500000D01*
X148940476Y-82547619D01*
X148988095Y-82642857D01*
X149035714Y-82833333D01*
X149035714Y-83071428D01*
X148988095Y-83261904D01*
X148940476Y-83357142D01*
X148892857Y-83404761D01*
X148797619Y-83452380D01*
X148702380Y-83452380D01*
X148607142Y-83404761D01*
X148559523Y-83357142D01*
X148511904Y-83261904D01*
X148464285Y-83071428D01*
X148464285Y-82833333D01*
X148511904Y-82642857D01*
X148559523Y-82547619D01*
X148607142Y-82500000D01*
X148702380Y-82452380D01*
X149654761Y-82452380D02*
X149750000Y-82452380D01*
X149845238Y-82500000D01*
X149892857Y-82547619D01*
X149940476Y-82642857D01*
X149988095Y-82833333D01*
X149988095Y-83071428D01*
X149940476Y-83261904D01*
X149892857Y-83357142D01*
X149845238Y-83404761D01*
X149750000Y-83452380D01*
X149654761Y-83452380D01*
X149559523Y-83404761D01*
X149511904Y-83357142D01*
X149464285Y-83261904D01*
X149416666Y-83071428D01*
X149416666Y-82833333D01*
X149464285Y-82642857D01*
X149511904Y-82547619D01*
X149559523Y-82500000D01*
X149654761Y-82452380D01*
X151178571Y-83452380D02*
X151178571Y-82785714D01*
X151178571Y-82880952D02*
X151226190Y-82833333D01*
X151321428Y-82785714D01*
X151464285Y-82785714D01*
X151559523Y-82833333D01*
X151607142Y-82928571D01*
X151607142Y-83452380D01*
X151607142Y-82928571D02*
X151654761Y-82833333D01*
X151750000Y-82785714D01*
X151892857Y-82785714D01*
X151988095Y-82833333D01*
X152035714Y-82928571D01*
X152035714Y-83452380D01*
X152511904Y-83452380D02*
X152511904Y-82785714D01*
X152511904Y-82880952D02*
X152559523Y-82833333D01*
X152654761Y-82785714D01*
X152797619Y-82785714D01*
X152892857Y-82833333D01*
X152940476Y-82928571D01*
X152940476Y-83452380D01*
X152940476Y-82928571D02*
X152988095Y-82833333D01*
X153083333Y-82785714D01*
X153226190Y-82785714D01*
X153321428Y-82833333D01*
X153369047Y-82928571D01*
X153369047Y-83452380D01*
X151000000Y-84300000D02*
X148500000Y-84300000D01*
X151000000Y-91900000D02*
X151000000Y-83713579D01*
X148500000Y-91900000D02*
X148500000Y-83713579D01*
X148500000Y-84300000D02*
X149626504Y-83713579D01*
X148500000Y-84300000D02*
X149626504Y-84886421D01*
X151000000Y-84300000D02*
X149873496Y-83713579D01*
X151000000Y-84300000D02*
X149873496Y-84886421D01*
X147559523Y-118885714D02*
X147559523Y-119552380D01*
X147321428Y-118504761D02*
X147083333Y-119219047D01*
X147702380Y-119219047D01*
X148083333Y-119457142D02*
X148130952Y-119504761D01*
X148083333Y-119552380D01*
X148035714Y-119504761D01*
X148083333Y-119457142D01*
X148083333Y-119552380D01*
X149035714Y-118552380D02*
X148559523Y-118552380D01*
X148511904Y-119028571D01*
X148559523Y-118980952D01*
X148654761Y-118933333D01*
X148892857Y-118933333D01*
X148988095Y-118980952D01*
X149035714Y-119028571D01*
X149083333Y-119123809D01*
X149083333Y-119361904D01*
X149035714Y-119457142D01*
X148988095Y-119504761D01*
X148892857Y-119552380D01*
X148654761Y-119552380D01*
X148559523Y-119504761D01*
X148511904Y-119457142D01*
X149702380Y-118552380D02*
X149797619Y-118552380D01*
X149892857Y-118600000D01*
X149940476Y-118647619D01*
X149988095Y-118742857D01*
X150035714Y-118933333D01*
X150035714Y-119171428D01*
X149988095Y-119361904D01*
X149940476Y-119457142D01*
X149892857Y-119504761D01*
X149797619Y-119552380D01*
X149702380Y-119552380D01*
X149607142Y-119504761D01*
X149559523Y-119457142D01*
X149511904Y-119361904D01*
X149464285Y-119171428D01*
X149464285Y-118933333D01*
X149511904Y-118742857D01*
X149559523Y-118647619D01*
X149607142Y-118600000D01*
X149702380Y-118552380D01*
X150654761Y-118552380D02*
X150750000Y-118552380D01*
X150845238Y-118600000D01*
X150892857Y-118647619D01*
X150940476Y-118742857D01*
X150988095Y-118933333D01*
X150988095Y-119171428D01*
X150940476Y-119361904D01*
X150892857Y-119457142D01*
X150845238Y-119504761D01*
X150750000Y-119552380D01*
X150654761Y-119552380D01*
X150559523Y-119504761D01*
X150511904Y-119457142D01*
X150464285Y-119361904D01*
X150416666Y-119171428D01*
X150416666Y-118933333D01*
X150464285Y-118742857D01*
X150511904Y-118647619D01*
X150559523Y-118600000D01*
X150654761Y-118552380D01*
X152178571Y-119552380D02*
X152178571Y-118885714D01*
X152178571Y-118980952D02*
X152226190Y-118933333D01*
X152321428Y-118885714D01*
X152464285Y-118885714D01*
X152559523Y-118933333D01*
X152607142Y-119028571D01*
X152607142Y-119552380D01*
X152607142Y-119028571D02*
X152654761Y-118933333D01*
X152750000Y-118885714D01*
X152892857Y-118885714D01*
X152988095Y-118933333D01*
X153035714Y-119028571D01*
X153035714Y-119552380D01*
X153511904Y-119552380D02*
X153511904Y-118885714D01*
X153511904Y-118980952D02*
X153559523Y-118933333D01*
X153654761Y-118885714D01*
X153797619Y-118885714D01*
X153892857Y-118933333D01*
X153940476Y-119028571D01*
X153940476Y-119552380D01*
X153940476Y-119028571D02*
X153988095Y-118933333D01*
X154083333Y-118885714D01*
X154226190Y-118885714D01*
X154321428Y-118933333D01*
X154369047Y-119028571D01*
X154369047Y-119552380D01*
X148500000Y-117800000D02*
X153000000Y-117800000D01*
X148500000Y-110400000D02*
X148500000Y-118386421D01*
X153000000Y-110400000D02*
X153000000Y-118386421D01*
X153000000Y-117800000D02*
X151873496Y-118386421D01*
X153000000Y-117800000D02*
X151873496Y-117213579D01*
X148500000Y-117800000D02*
X149626504Y-118386421D01*
X148500000Y-117800000D02*
X149626504Y-117213579D01*
X159147619Y-111154761D02*
X159147619Y-110583333D01*
X159147619Y-110869047D02*
X160147619Y-110869047D01*
X160004761Y-110773809D01*
X159909523Y-110678571D01*
X159861904Y-110583333D01*
X159242857Y-111583333D02*
X159195238Y-111630952D01*
X159147619Y-111583333D01*
X159195238Y-111535714D01*
X159242857Y-111583333D01*
X159147619Y-111583333D01*
X160147619Y-112535714D02*
X160147619Y-112059523D01*
X159671428Y-112011904D01*
X159719047Y-112059523D01*
X159766666Y-112154761D01*
X159766666Y-112392857D01*
X159719047Y-112488095D01*
X159671428Y-112535714D01*
X159576190Y-112583333D01*
X159338095Y-112583333D01*
X159242857Y-112535714D01*
X159195238Y-112488095D01*
X159147619Y-112392857D01*
X159147619Y-112154761D01*
X159195238Y-112059523D01*
X159242857Y-112011904D01*
X160147619Y-113202380D02*
X160147619Y-113297619D01*
X160100000Y-113392857D01*
X160052380Y-113440476D01*
X159957142Y-113488095D01*
X159766666Y-113535714D01*
X159528571Y-113535714D01*
X159338095Y-113488095D01*
X159242857Y-113440476D01*
X159195238Y-113392857D01*
X159147619Y-113297619D01*
X159147619Y-113202380D01*
X159195238Y-113107142D01*
X159242857Y-113059523D01*
X159338095Y-113011904D01*
X159528571Y-112964285D01*
X159766666Y-112964285D01*
X159957142Y-113011904D01*
X160052380Y-113059523D01*
X160100000Y-113107142D01*
X160147619Y-113202380D01*
X160147619Y-114154761D02*
X160147619Y-114250000D01*
X160100000Y-114345238D01*
X160052380Y-114392857D01*
X159957142Y-114440476D01*
X159766666Y-114488095D01*
X159528571Y-114488095D01*
X159338095Y-114440476D01*
X159242857Y-114392857D01*
X159195238Y-114345238D01*
X159147619Y-114250000D01*
X159147619Y-114154761D01*
X159195238Y-114059523D01*
X159242857Y-114011904D01*
X159338095Y-113964285D01*
X159528571Y-113916666D01*
X159766666Y-113916666D01*
X159957142Y-113964285D01*
X160052380Y-114011904D01*
X160100000Y-114059523D01*
X160147619Y-114154761D01*
X159147619Y-115678571D02*
X159814285Y-115678571D01*
X159719047Y-115678571D02*
X159766666Y-115726190D01*
X159814285Y-115821428D01*
X159814285Y-115964285D01*
X159766666Y-116059523D01*
X159671428Y-116107142D01*
X159147619Y-116107142D01*
X159671428Y-116107142D02*
X159766666Y-116154761D01*
X159814285Y-116250000D01*
X159814285Y-116392857D01*
X159766666Y-116488095D01*
X159671428Y-116535714D01*
X159147619Y-116535714D01*
X159147619Y-117011904D02*
X159814285Y-117011904D01*
X159719047Y-117011904D02*
X159766666Y-117059523D01*
X159814285Y-117154761D01*
X159814285Y-117297619D01*
X159766666Y-117392857D01*
X159671428Y-117440476D01*
X159147619Y-117440476D01*
X159671428Y-117440476D02*
X159766666Y-117488095D01*
X159814285Y-117583333D01*
X159814285Y-117726190D01*
X159766666Y-117821428D01*
X159671428Y-117869047D01*
X159147619Y-117869047D01*
X158300000Y-113500000D02*
X158300000Y-115000000D01*
X146700000Y-113500000D02*
X158886421Y-113500000D01*
X146700000Y-115000000D02*
X158886421Y-115000000D01*
X158300000Y-115000000D02*
X157713579Y-113873496D01*
X158300000Y-115000000D02*
X158886421Y-113873496D01*
X158300000Y-113500000D02*
X157713579Y-114626504D01*
X158300000Y-113500000D02*
X158886421Y-114626504D01*
X156547619Y-94566666D02*
X156500000Y-94519047D01*
X156452380Y-94423809D01*
X156452380Y-94185714D01*
X156500000Y-94090476D01*
X156547619Y-94042857D01*
X156642857Y-93995238D01*
X156738095Y-93995238D01*
X156880952Y-94042857D01*
X157452380Y-94614285D01*
X157452380Y-93995238D01*
X157357142Y-93566666D02*
X157404761Y-93519047D01*
X157452380Y-93566666D01*
X157404761Y-93614285D01*
X157357142Y-93566666D01*
X157452380Y-93566666D01*
X156452380Y-92900000D02*
X156452380Y-92804761D01*
X156500000Y-92709523D01*
X156547619Y-92661904D01*
X156642857Y-92614285D01*
X156833333Y-92566666D01*
X157071428Y-92566666D01*
X157261904Y-92614285D01*
X157357142Y-92661904D01*
X157404761Y-92709523D01*
X157452380Y-92804761D01*
X157452380Y-92900000D01*
X157404761Y-92995238D01*
X157357142Y-93042857D01*
X157261904Y-93090476D01*
X157071428Y-93138095D01*
X156833333Y-93138095D01*
X156642857Y-93090476D01*
X156547619Y-93042857D01*
X156500000Y-92995238D01*
X156452380Y-92900000D01*
X156452380Y-91947619D02*
X156452380Y-91852380D01*
X156500000Y-91757142D01*
X156547619Y-91709523D01*
X156642857Y-91661904D01*
X156833333Y-91614285D01*
X157071428Y-91614285D01*
X157261904Y-91661904D01*
X157357142Y-91709523D01*
X157404761Y-91757142D01*
X157452380Y-91852380D01*
X157452380Y-91947619D01*
X157404761Y-92042857D01*
X157357142Y-92090476D01*
X157261904Y-92138095D01*
X157071428Y-92185714D01*
X156833333Y-92185714D01*
X156642857Y-92138095D01*
X156547619Y-92090476D01*
X156500000Y-92042857D01*
X156452380Y-91947619D01*
X156452380Y-90995238D02*
X156452380Y-90900000D01*
X156500000Y-90804761D01*
X156547619Y-90757142D01*
X156642857Y-90709523D01*
X156833333Y-90661904D01*
X157071428Y-90661904D01*
X157261904Y-90709523D01*
X157357142Y-90757142D01*
X157404761Y-90804761D01*
X157452380Y-90900000D01*
X157452380Y-90995238D01*
X157404761Y-91090476D01*
X157357142Y-91138095D01*
X157261904Y-91185714D01*
X157071428Y-91233333D01*
X156833333Y-91233333D01*
X156642857Y-91185714D01*
X156547619Y-91138095D01*
X156500000Y-91090476D01*
X156452380Y-90995238D01*
X157452380Y-89471428D02*
X156785714Y-89471428D01*
X156880952Y-89471428D02*
X156833333Y-89423809D01*
X156785714Y-89328571D01*
X156785714Y-89185714D01*
X156833333Y-89090476D01*
X156928571Y-89042857D01*
X157452380Y-89042857D01*
X156928571Y-89042857D02*
X156833333Y-88995238D01*
X156785714Y-88900000D01*
X156785714Y-88757142D01*
X156833333Y-88661904D01*
X156928571Y-88614285D01*
X157452380Y-88614285D01*
X157452380Y-88138095D02*
X156785714Y-88138095D01*
X156880952Y-88138095D02*
X156833333Y-88090476D01*
X156785714Y-87995238D01*
X156785714Y-87852380D01*
X156833333Y-87757142D01*
X156928571Y-87709523D01*
X157452380Y-87709523D01*
X156928571Y-87709523D02*
X156833333Y-87661904D01*
X156785714Y-87566666D01*
X156785714Y-87423809D01*
X156833333Y-87328571D01*
X156928571Y-87280952D01*
X157452380Y-87280952D01*
X155700000Y-91900000D02*
X155700000Y-89900000D01*
X151000000Y-91900000D02*
X156286421Y-91900000D01*
X151000000Y-89900000D02*
X156286421Y-89900000D01*
X155700000Y-89900000D02*
X156286421Y-91026504D01*
X155700000Y-89900000D02*
X155113579Y-91026504D01*
X155700000Y-91900000D02*
X156286421Y-90773496D01*
X155700000Y-91900000D02*
X155113579Y-90773496D01*
X148333333Y-86847619D02*
X148380952Y-86800000D01*
X148476190Y-86752380D01*
X148714285Y-86752380D01*
X148809523Y-86800000D01*
X148857142Y-86847619D01*
X148904761Y-86942857D01*
X148904761Y-87038095D01*
X148857142Y-87180952D01*
X148285714Y-87752380D01*
X148904761Y-87752380D01*
X149333333Y-87657142D02*
X149380952Y-87704761D01*
X149333333Y-87752380D01*
X149285714Y-87704761D01*
X149333333Y-87657142D01*
X149333333Y-87752380D01*
X150000000Y-86752380D02*
X150095238Y-86752380D01*
X150190476Y-86800000D01*
X150238095Y-86847619D01*
X150285714Y-86942857D01*
X150333333Y-87133333D01*
X150333333Y-87371428D01*
X150285714Y-87561904D01*
X150238095Y-87657142D01*
X150190476Y-87704761D01*
X150095238Y-87752380D01*
X150000000Y-87752380D01*
X149904761Y-87704761D01*
X149857142Y-87657142D01*
X149809523Y-87561904D01*
X149761904Y-87371428D01*
X149761904Y-87133333D01*
X149809523Y-86942857D01*
X149857142Y-86847619D01*
X149904761Y-86800000D01*
X150000000Y-86752380D01*
X150952380Y-86752380D02*
X151047619Y-86752380D01*
X151142857Y-86800000D01*
X151190476Y-86847619D01*
X151238095Y-86942857D01*
X151285714Y-87133333D01*
X151285714Y-87371428D01*
X151238095Y-87561904D01*
X151190476Y-87657142D01*
X151142857Y-87704761D01*
X151047619Y-87752380D01*
X150952380Y-87752380D01*
X150857142Y-87704761D01*
X150809523Y-87657142D01*
X150761904Y-87561904D01*
X150714285Y-87371428D01*
X150714285Y-87133333D01*
X150761904Y-86942857D01*
X150809523Y-86847619D01*
X150857142Y-86800000D01*
X150952380Y-86752380D01*
X151904761Y-86752380D02*
X152000000Y-86752380D01*
X152095238Y-86800000D01*
X152142857Y-86847619D01*
X152190476Y-86942857D01*
X152238095Y-87133333D01*
X152238095Y-87371428D01*
X152190476Y-87561904D01*
X152142857Y-87657142D01*
X152095238Y-87704761D01*
X152000000Y-87752380D01*
X151904761Y-87752380D01*
X151809523Y-87704761D01*
X151761904Y-87657142D01*
X151714285Y-87561904D01*
X151666666Y-87371428D01*
X151666666Y-87133333D01*
X151714285Y-86942857D01*
X151761904Y-86847619D01*
X151809523Y-86800000D01*
X151904761Y-86752380D01*
X153428571Y-87752380D02*
X153428571Y-87085714D01*
X153428571Y-87180952D02*
X153476190Y-87133333D01*
X153571428Y-87085714D01*
X153714285Y-87085714D01*
X153809523Y-87133333D01*
X153857142Y-87228571D01*
X153857142Y-87752380D01*
X153857142Y-87228571D02*
X153904761Y-87133333D01*
X154000000Y-87085714D01*
X154142857Y-87085714D01*
X154238095Y-87133333D01*
X154285714Y-87228571D01*
X154285714Y-87752380D01*
X154761904Y-87752380D02*
X154761904Y-87085714D01*
X154761904Y-87180952D02*
X154809523Y-87133333D01*
X154904761Y-87085714D01*
X155047619Y-87085714D01*
X155142857Y-87133333D01*
X155190476Y-87228571D01*
X155190476Y-87752380D01*
X155190476Y-87228571D02*
X155238095Y-87133333D01*
X155333333Y-87085714D01*
X155476190Y-87085714D01*
X155571428Y-87133333D01*
X155619047Y-87228571D01*
X155619047Y-87752380D01*
X153000000Y-88600000D02*
X151000000Y-88600000D01*
X153000000Y-92000000D02*
X153000000Y-88013579D01*
X151000000Y-92000000D02*
X151000000Y-88013579D01*
X151000000Y-88600000D02*
X152126504Y-88013579D01*
X151000000Y-88600000D02*
X152126504Y-89186421D01*
X153000000Y-88600000D02*
X151873496Y-88013579D01*
X153000000Y-88600000D02*
X151873496Y-89186421D01*
X85752380Y-115642857D02*
X85752380Y-116119047D01*
X86228571Y-116166666D01*
X86180952Y-116119047D01*
X86133333Y-116023809D01*
X86133333Y-115785714D01*
X86180952Y-115690476D01*
X86228571Y-115642857D01*
X86323809Y-115595238D01*
X86561904Y-115595238D01*
X86657142Y-115642857D01*
X86704761Y-115690476D01*
X86752380Y-115785714D01*
X86752380Y-116023809D01*
X86704761Y-116119047D01*
X86657142Y-116166666D01*
X86657142Y-115166666D02*
X86704761Y-115119047D01*
X86752380Y-115166666D01*
X86704761Y-115214285D01*
X86657142Y-115166666D01*
X86752380Y-115166666D01*
X85752380Y-114500000D02*
X85752380Y-114404761D01*
X85800000Y-114309523D01*
X85847619Y-114261904D01*
X85942857Y-114214285D01*
X86133333Y-114166666D01*
X86371428Y-114166666D01*
X86561904Y-114214285D01*
X86657142Y-114261904D01*
X86704761Y-114309523D01*
X86752380Y-114404761D01*
X86752380Y-114500000D01*
X86704761Y-114595238D01*
X86657142Y-114642857D01*
X86561904Y-114690476D01*
X86371428Y-114738095D01*
X86133333Y-114738095D01*
X85942857Y-114690476D01*
X85847619Y-114642857D01*
X85800000Y-114595238D01*
X85752380Y-114500000D01*
X85752380Y-113547619D02*
X85752380Y-113452380D01*
X85800000Y-113357142D01*
X85847619Y-113309523D01*
X85942857Y-113261904D01*
X86133333Y-113214285D01*
X86371428Y-113214285D01*
X86561904Y-113261904D01*
X86657142Y-113309523D01*
X86704761Y-113357142D01*
X86752380Y-113452380D01*
X86752380Y-113547619D01*
X86704761Y-113642857D01*
X86657142Y-113690476D01*
X86561904Y-113738095D01*
X86371428Y-113785714D01*
X86133333Y-113785714D01*
X85942857Y-113738095D01*
X85847619Y-113690476D01*
X85800000Y-113642857D01*
X85752380Y-113547619D01*
X85752380Y-112595238D02*
X85752380Y-112500000D01*
X85800000Y-112404761D01*
X85847619Y-112357142D01*
X85942857Y-112309523D01*
X86133333Y-112261904D01*
X86371428Y-112261904D01*
X86561904Y-112309523D01*
X86657142Y-112357142D01*
X86704761Y-112404761D01*
X86752380Y-112500000D01*
X86752380Y-112595238D01*
X86704761Y-112690476D01*
X86657142Y-112738095D01*
X86561904Y-112785714D01*
X86371428Y-112833333D01*
X86133333Y-112833333D01*
X85942857Y-112785714D01*
X85847619Y-112738095D01*
X85800000Y-112690476D01*
X85752380Y-112595238D01*
X86752380Y-111071428D02*
X86085714Y-111071428D01*
X86180952Y-111071428D02*
X86133333Y-111023809D01*
X86085714Y-110928571D01*
X86085714Y-110785714D01*
X86133333Y-110690476D01*
X86228571Y-110642857D01*
X86752380Y-110642857D01*
X86228571Y-110642857D02*
X86133333Y-110595238D01*
X86085714Y-110500000D01*
X86085714Y-110357142D01*
X86133333Y-110261904D01*
X86228571Y-110214285D01*
X86752380Y-110214285D01*
X86752380Y-109738095D02*
X86085714Y-109738095D01*
X86180952Y-109738095D02*
X86133333Y-109690476D01*
X86085714Y-109595238D01*
X86085714Y-109452380D01*
X86133333Y-109357142D01*
X86228571Y-109309523D01*
X86752380Y-109309523D01*
X86228571Y-109309523D02*
X86133333Y-109261904D01*
X86085714Y-109166666D01*
X86085714Y-109023809D01*
X86133333Y-108928571D01*
X86228571Y-108880952D01*
X86752380Y-108880952D01*
X87600000Y-115000000D02*
X87600000Y-110000000D01*
X92000000Y-115000000D02*
X87013579Y-115000000D01*
X92000000Y-110000000D02*
X87013579Y-110000000D01*
X87600000Y-110000000D02*
X88186421Y-111126504D01*
X87600000Y-110000000D02*
X87013579Y-111126504D01*
X87600000Y-115000000D02*
X88186421Y-113873496D01*
X87600000Y-115000000D02*
X87013579Y-113873496D01*
X87333333Y-104247619D02*
X87380952Y-104200000D01*
X87476190Y-104152380D01*
X87714285Y-104152380D01*
X87809523Y-104200000D01*
X87857142Y-104247619D01*
X87904761Y-104342857D01*
X87904761Y-104438095D01*
X87857142Y-104580952D01*
X87285714Y-105152380D01*
X87904761Y-105152380D01*
X88333333Y-105057142D02*
X88380952Y-105104761D01*
X88333333Y-105152380D01*
X88285714Y-105104761D01*
X88333333Y-105057142D01*
X88333333Y-105152380D01*
X89000000Y-104152380D02*
X89095238Y-104152380D01*
X89190476Y-104200000D01*
X89238095Y-104247619D01*
X89285714Y-104342857D01*
X89333333Y-104533333D01*
X89333333Y-104771428D01*
X89285714Y-104961904D01*
X89238095Y-105057142D01*
X89190476Y-105104761D01*
X89095238Y-105152380D01*
X89000000Y-105152380D01*
X88904761Y-105104761D01*
X88857142Y-105057142D01*
X88809523Y-104961904D01*
X88761904Y-104771428D01*
X88761904Y-104533333D01*
X88809523Y-104342857D01*
X88857142Y-104247619D01*
X88904761Y-104200000D01*
X89000000Y-104152380D01*
X89952380Y-104152380D02*
X90047619Y-104152380D01*
X90142857Y-104200000D01*
X90190476Y-104247619D01*
X90238095Y-104342857D01*
X90285714Y-104533333D01*
X90285714Y-104771428D01*
X90238095Y-104961904D01*
X90190476Y-105057142D01*
X90142857Y-105104761D01*
X90047619Y-105152380D01*
X89952380Y-105152380D01*
X89857142Y-105104761D01*
X89809523Y-105057142D01*
X89761904Y-104961904D01*
X89714285Y-104771428D01*
X89714285Y-104533333D01*
X89761904Y-104342857D01*
X89809523Y-104247619D01*
X89857142Y-104200000D01*
X89952380Y-104152380D01*
X90904761Y-104152380D02*
X91000000Y-104152380D01*
X91095238Y-104200000D01*
X91142857Y-104247619D01*
X91190476Y-104342857D01*
X91238095Y-104533333D01*
X91238095Y-104771428D01*
X91190476Y-104961904D01*
X91142857Y-105057142D01*
X91095238Y-105104761D01*
X91000000Y-105152380D01*
X90904761Y-105152380D01*
X90809523Y-105104761D01*
X90761904Y-105057142D01*
X90714285Y-104961904D01*
X90666666Y-104771428D01*
X90666666Y-104533333D01*
X90714285Y-104342857D01*
X90761904Y-104247619D01*
X90809523Y-104200000D01*
X90904761Y-104152380D01*
X92428571Y-105152380D02*
X92428571Y-104485714D01*
X92428571Y-104580952D02*
X92476190Y-104533333D01*
X92571428Y-104485714D01*
X92714285Y-104485714D01*
X92809523Y-104533333D01*
X92857142Y-104628571D01*
X92857142Y-105152380D01*
X92857142Y-104628571D02*
X92904761Y-104533333D01*
X93000000Y-104485714D01*
X93142857Y-104485714D01*
X93238095Y-104533333D01*
X93285714Y-104628571D01*
X93285714Y-105152380D01*
X93761904Y-105152380D02*
X93761904Y-104485714D01*
X93761904Y-104580952D02*
X93809523Y-104533333D01*
X93904761Y-104485714D01*
X94047619Y-104485714D01*
X94142857Y-104533333D01*
X94190476Y-104628571D01*
X94190476Y-105152380D01*
X94190476Y-104628571D02*
X94238095Y-104533333D01*
X94333333Y-104485714D01*
X94476190Y-104485714D01*
X94571428Y-104533333D01*
X94619047Y-104628571D01*
X94619047Y-105152380D01*
X90000000Y-106000000D02*
X92000000Y-106000000D01*
X90000000Y-110000000D02*
X90000000Y-105413579D01*
X92000000Y-110000000D02*
X92000000Y-105413579D01*
X92000000Y-106000000D02*
X90873496Y-106586421D01*
X92000000Y-106000000D02*
X90873496Y-105413579D01*
X90000000Y-106000000D02*
X91126504Y-106586421D01*
X90000000Y-106000000D02*
X91126504Y-105413579D01*
X117833333Y-125752380D02*
X117642857Y-125752380D01*
X117547619Y-125800000D01*
X117500000Y-125847619D01*
X117404761Y-125990476D01*
X117357142Y-126180952D01*
X117357142Y-126561904D01*
X117404761Y-126657142D01*
X117452380Y-126704761D01*
X117547619Y-126752380D01*
X117738095Y-126752380D01*
X117833333Y-126704761D01*
X117880952Y-126657142D01*
X117928571Y-126561904D01*
X117928571Y-126323809D01*
X117880952Y-126228571D01*
X117833333Y-126180952D01*
X117738095Y-126133333D01*
X117547619Y-126133333D01*
X117452380Y-126180952D01*
X117404761Y-126228571D01*
X117357142Y-126323809D01*
X118261904Y-125752380D02*
X118880952Y-125752380D01*
X118547619Y-126133333D01*
X118690476Y-126133333D01*
X118785714Y-126180952D01*
X118833333Y-126228571D01*
X118880952Y-126323809D01*
X118880952Y-126561904D01*
X118833333Y-126657142D01*
X118785714Y-126704761D01*
X118690476Y-126752380D01*
X118404761Y-126752380D01*
X118309523Y-126704761D01*
X118261904Y-126657142D01*
X119309523Y-126657142D02*
X119357142Y-126704761D01*
X119309523Y-126752380D01*
X119261904Y-126704761D01*
X119309523Y-126657142D01*
X119309523Y-126752380D01*
X119976190Y-125752380D02*
X120071428Y-125752380D01*
X120166666Y-125800000D01*
X120214285Y-125847619D01*
X120261904Y-125942857D01*
X120309523Y-126133333D01*
X120309523Y-126371428D01*
X120261904Y-126561904D01*
X120214285Y-126657142D01*
X120166666Y-126704761D01*
X120071428Y-126752380D01*
X119976190Y-126752380D01*
X119880952Y-126704761D01*
X119833333Y-126657142D01*
X119785714Y-126561904D01*
X119738095Y-126371428D01*
X119738095Y-126133333D01*
X119785714Y-125942857D01*
X119833333Y-125847619D01*
X119880952Y-125800000D01*
X119976190Y-125752380D01*
X120928571Y-125752380D02*
X121023809Y-125752380D01*
X121119047Y-125800000D01*
X121166666Y-125847619D01*
X121214285Y-125942857D01*
X121261904Y-126133333D01*
X121261904Y-126371428D01*
X121214285Y-126561904D01*
X121166666Y-126657142D01*
X121119047Y-126704761D01*
X121023809Y-126752380D01*
X120928571Y-126752380D01*
X120833333Y-126704761D01*
X120785714Y-126657142D01*
X120738095Y-126561904D01*
X120690476Y-126371428D01*
X120690476Y-126133333D01*
X120738095Y-125942857D01*
X120785714Y-125847619D01*
X120833333Y-125800000D01*
X120928571Y-125752380D01*
X121880952Y-125752380D02*
X121976190Y-125752380D01*
X122071428Y-125800000D01*
X122119047Y-125847619D01*
X122166666Y-125942857D01*
X122214285Y-126133333D01*
X122214285Y-126371428D01*
X122166666Y-126561904D01*
X122119047Y-126657142D01*
X122071428Y-126704761D01*
X121976190Y-126752380D01*
X121880952Y-126752380D01*
X121785714Y-126704761D01*
X121738095Y-126657142D01*
X121690476Y-126561904D01*
X121642857Y-126371428D01*
X121642857Y-126133333D01*
X121690476Y-125942857D01*
X121738095Y-125847619D01*
X121785714Y-125800000D01*
X121880952Y-125752380D01*
X123404761Y-126752380D02*
X123404761Y-126085714D01*
X123404761Y-126180952D02*
X123452380Y-126133333D01*
X123547619Y-126085714D01*
X123690476Y-126085714D01*
X123785714Y-126133333D01*
X123833333Y-126228571D01*
X123833333Y-126752380D01*
X123833333Y-126228571D02*
X123880952Y-126133333D01*
X123976190Y-126085714D01*
X124119047Y-126085714D01*
X124214285Y-126133333D01*
X124261904Y-126228571D01*
X124261904Y-126752380D01*
X124738095Y-126752380D02*
X124738095Y-126085714D01*
X124738095Y-126180952D02*
X124785714Y-126133333D01*
X124880952Y-126085714D01*
X125023809Y-126085714D01*
X125119047Y-126133333D01*
X125166666Y-126228571D01*
X125166666Y-126752380D01*
X125166666Y-126228571D02*
X125214285Y-126133333D01*
X125309523Y-126085714D01*
X125452380Y-126085714D01*
X125547619Y-126133333D01*
X125595238Y-126228571D01*
X125595238Y-126752380D01*
X90000000Y-125000000D02*
X153000000Y-125000000D01*
X90000000Y-115000000D02*
X90000000Y-125586421D01*
X153000000Y-115000000D02*
X153000000Y-125586421D01*
X153000000Y-125000000D02*
X151873496Y-125586421D01*
X153000000Y-125000000D02*
X151873496Y-124413579D01*
X90000000Y-125000000D02*
X91126504Y-125586421D01*
X90000000Y-125000000D02*
X91126504Y-124413579D01*
X78247619Y-106642857D02*
X78200000Y-106595238D01*
X78152380Y-106500000D01*
X78152380Y-106261904D01*
X78200000Y-106166666D01*
X78247619Y-106119047D01*
X78342857Y-106071428D01*
X78438095Y-106071428D01*
X78580952Y-106119047D01*
X79152380Y-106690476D01*
X79152380Y-106071428D01*
X78152380Y-105166666D02*
X78152380Y-105642857D01*
X78628571Y-105690476D01*
X78580952Y-105642857D01*
X78533333Y-105547619D01*
X78533333Y-105309523D01*
X78580952Y-105214285D01*
X78628571Y-105166666D01*
X78723809Y-105119047D01*
X78961904Y-105119047D01*
X79057142Y-105166666D01*
X79104761Y-105214285D01*
X79152380Y-105309523D01*
X79152380Y-105547619D01*
X79104761Y-105642857D01*
X79057142Y-105690476D01*
X79057142Y-104690476D02*
X79104761Y-104642857D01*
X79152380Y-104690476D01*
X79104761Y-104738095D01*
X79057142Y-104690476D01*
X79152380Y-104690476D01*
X78152380Y-104023809D02*
X78152380Y-103928571D01*
X78200000Y-103833333D01*
X78247619Y-103785714D01*
X78342857Y-103738095D01*
X78533333Y-103690476D01*
X78771428Y-103690476D01*
X78961904Y-103738095D01*
X79057142Y-103785714D01*
X79104761Y-103833333D01*
X79152380Y-103928571D01*
X79152380Y-104023809D01*
X79104761Y-104119047D01*
X79057142Y-104166666D01*
X78961904Y-104214285D01*
X78771428Y-104261904D01*
X78533333Y-104261904D01*
X78342857Y-104214285D01*
X78247619Y-104166666D01*
X78200000Y-104119047D01*
X78152380Y-104023809D01*
X78152380Y-103071428D02*
X78152380Y-102976190D01*
X78200000Y-102880952D01*
X78247619Y-102833333D01*
X78342857Y-102785714D01*
X78533333Y-102738095D01*
X78771428Y-102738095D01*
X78961904Y-102785714D01*
X79057142Y-102833333D01*
X79104761Y-102880952D01*
X79152380Y-102976190D01*
X79152380Y-103071428D01*
X79104761Y-103166666D01*
X79057142Y-103214285D01*
X78961904Y-103261904D01*
X78771428Y-103309523D01*
X78533333Y-103309523D01*
X78342857Y-103261904D01*
X78247619Y-103214285D01*
X78200000Y-103166666D01*
X78152380Y-103071428D01*
X78152380Y-102119047D02*
X78152380Y-102023809D01*
X78200000Y-101928571D01*
X78247619Y-101880952D01*
X78342857Y-101833333D01*
X78533333Y-101785714D01*
X78771428Y-101785714D01*
X78961904Y-101833333D01*
X79057142Y-101880952D01*
X79104761Y-101928571D01*
X79152380Y-102023809D01*
X79152380Y-102119047D01*
X79104761Y-102214285D01*
X79057142Y-102261904D01*
X78961904Y-102309523D01*
X78771428Y-102357142D01*
X78533333Y-102357142D01*
X78342857Y-102309523D01*
X78247619Y-102261904D01*
X78200000Y-102214285D01*
X78152380Y-102119047D01*
X79152380Y-100595238D02*
X78485714Y-100595238D01*
X78580952Y-100595238D02*
X78533333Y-100547619D01*
X78485714Y-100452380D01*
X78485714Y-100309523D01*
X78533333Y-100214285D01*
X78628571Y-100166666D01*
X79152380Y-100166666D01*
X78628571Y-100166666D02*
X78533333Y-100119047D01*
X78485714Y-100023809D01*
X78485714Y-99880952D01*
X78533333Y-99785714D01*
X78628571Y-99738095D01*
X79152380Y-99738095D01*
X79152380Y-99261904D02*
X78485714Y-99261904D01*
X78580952Y-99261904D02*
X78533333Y-99214285D01*
X78485714Y-99119047D01*
X78485714Y-98976190D01*
X78533333Y-98880952D01*
X78628571Y-98833333D01*
X79152380Y-98833333D01*
X78628571Y-98833333D02*
X78533333Y-98785714D01*
X78485714Y-98690476D01*
X78485714Y-98547619D01*
X78533333Y-98452380D01*
X78628571Y-98404761D01*
X79152380Y-98404761D01*
X80000000Y-115000000D02*
X80000000Y-90000000D01*
X95000000Y-115000000D02*
X79413579Y-115000000D01*
X95000000Y-90000000D02*
X79413579Y-90000000D01*
X80000000Y-90000000D02*
X80586421Y-91126504D01*
X80000000Y-90000000D02*
X79413579Y-91126504D01*
X80000000Y-115000000D02*
X80586421Y-113873496D01*
X80000000Y-115000000D02*
X79413579Y-113873496D01*
D11*
%TO.C,Y1*%
X96500000Y-101230000D02*
X96500000Y-93610000D01*
X96500000Y-93610000D02*
X144760000Y-93610000D01*
X146030000Y-111390000D02*
X146030000Y-94880000D01*
X146030000Y-111390000D02*
X96500000Y-111390000D01*
X96500000Y-111390000D02*
X96500000Y-103770000D01*
%TD*%
M02*
