<?xml version="1.0" standalone="no"?>
 <!DOCTYPE svg PUBLIC "-//W3C//DTD SVG 1.1//EN" 
 "http://www.w3.org/Graphics/SVG/1.1/DTD/svg11.dtd"> 
<svg
  xmlns:svg="http://www.w3.org/2000/svg"
  xmlns="http://www.w3.org/2000/svg"
  xmlns:xlink="http://www.w3.org/1999/xlink"
  version="1.1"
  width="27.940000cm" height="21.590000cm" viewBox="0 0 110000 85000">
<title>SVG Picture created as FieldSensorYSO-brd.svg date 2020/11/27 18:17:23 </title>
  <desc>Picture generated by PCBNEW </desc>
<g style="fill:#000000; fill-opacity:1;stroke:#000000; stroke-opacity:1;
stroke-linecap:round; stroke-linejoin:round;"
 transform="translate(0 0) scale(1 1)">
</g>
<g style="fill:#000000; fill-opacity:0.0; 
stroke:#000000; stroke-width:-0.000393701; stroke-opacity:1; 
stroke-linecap:round; stroke-linejoin:round;">
</g>
<g style="fill:#000000; fill-opacity:0.0; 
stroke:#000000; stroke-width:39.3701; stroke-opacity:1; 
stroke-linecap:round; stroke-linejoin:round;">
</g>
<g style="fill:#000000; fill-opacity:0.0; 
stroke:#000000; stroke-width:59.0551; stroke-opacity:1; 
stroke-linecap:round; stroke-linejoin:round;">
<rect x="62755.9" y="67677.2" width="42519.7" height="12598.4" rx="0" />
</g>
<g style="fill:#000000; fill-opacity:0.0; 
stroke:#000000; stroke-width:39.3701; stroke-opacity:1; 
stroke-linecap:round; stroke-linejoin:round;">
</g>
<g style="fill:#000000; fill-opacity:0.0; 
stroke:#000000; stroke-width:59.0551; stroke-opacity:1; 
stroke-linecap:round; stroke-linejoin:round;">
<rect x="3937.01" y="3937.01" width="102126" height="77126" rx="0" />
</g>
<g style="fill:#000000; fill-opacity:0.0; 
stroke:#000000; stroke-width:39.3701; stroke-opacity:1; 
stroke-linecap:round; stroke-linejoin:round;">
</g>
<g style="fill:#000000; fill-opacity:0.0; 
stroke:#000000; stroke-width:59.0551; stroke-opacity:1; 
stroke-linecap:round; stroke-linejoin:round;">
<rect x="4724.41" y="4724.41" width="100551" height="75551.2" rx="0" />
</g>
<g style="fill:#000000; fill-opacity:0.0; 
stroke:#000000; stroke-width:39.3701; stroke-opacity:1; 
stroke-linecap:round; stroke-linejoin:round;">
</g>
<g style="fill:#000000; fill-opacity:0.0; 
stroke:#000000; stroke-width:59.0551; stroke-opacity:1; 
stroke-linecap:round; stroke-linejoin:round;">
<path d="M23622 4724
L23622 3937
" />
</g>
<g style="fill:#000000; fill-opacity:0.0; 
stroke:#000000; stroke-width:39.3701; stroke-opacity:1; 
stroke-linecap:round; stroke-linejoin:round;">
</g>
<g style="fill:#000000; fill-opacity:0.0; 
stroke:#000000; stroke-width:59.0551; stroke-opacity:1; 
stroke-linecap:round; stroke-linejoin:round;">
<path d="M43307 4724
L43307 3937
" />
</g>
<g style="fill:#000000; fill-opacity:0.0; 
stroke:#000000; stroke-width:39.3701; stroke-opacity:1; 
stroke-linecap:round; stroke-linejoin:round;">
</g>
<g style="fill:#000000; fill-opacity:0.0; 
stroke:#000000; stroke-width:59.0551; stroke-opacity:1; 
stroke-linecap:round; stroke-linejoin:round;">
<path d="M62992 4724
L62992 3937
" />
</g>
<g style="fill:#000000; fill-opacity:0.0; 
stroke:#000000; stroke-width:39.3701; stroke-opacity:1; 
stroke-linecap:round; stroke-linejoin:round;">
</g>
<g style="fill:#000000; fill-opacity:0.0; 
stroke:#000000; stroke-width:59.0551; stroke-opacity:1; 
stroke-linecap:round; stroke-linejoin:round;">
<path d="M82677 4724
L82677 3937
" />
</g>
<g style="fill:#000000; fill-opacity:0.0; 
stroke:#000000; stroke-width:39.3701; stroke-opacity:1; 
stroke-linecap:round; stroke-linejoin:round;">
</g>
<g style="fill:#000000; fill-opacity:0.0; 
stroke:#000000; stroke-width:59.0551; stroke-opacity:1; 
stroke-linecap:round; stroke-linejoin:round;">
<path d="M102362 4724
L102362 3937
" />
</g>
<g style="fill:#000000; fill-opacity:0.0; 
stroke:#000000; stroke-width:39.3701; stroke-opacity:1; 
stroke-linecap:round; stroke-linejoin:round;">
</g>
<g style="fill:#000000; fill-opacity:0.0; 
stroke:#000000; stroke-width:59.0551; stroke-opacity:1; 
stroke-linecap:round; stroke-linejoin:round;">
<text x="13779.5" y="4586.61"
textLength="564.211" font-size="682.415" lengthAdjust="spacingAndGlyphs"
text-anchor="start" opacity="0">1</text>
<path d="M14199 4562
L13906 4562
" />
<path d="M14052 4562
L14052 4050
L14004 4123
L13955 4172
L13906 4196
" />
</g>
<g style="fill:#000000; fill-opacity:0.0; 
stroke:#000000; stroke-width:39.3701; stroke-opacity:1; 
stroke-linecap:round; stroke-linejoin:round;">
</g>
<g style="fill:#000000; fill-opacity:0.0; 
stroke:#000000; stroke-width:59.0551; stroke-opacity:1; 
stroke-linecap:round; stroke-linejoin:round;">
<text x="33464.6" y="4586.61"
textLength="546.494" font-size="682.415" lengthAdjust="spacingAndGlyphs"
text-anchor="start" opacity="0">2</text>
<path d="M33591 4099
L33615 4074
L33664 4050
L33786 4050
L33835 4074
L33859 4099
L33884 4147
L33884 4196
L33859 4269
L33567 4562
L33884 4562
" />
</g>
<g style="fill:#000000; fill-opacity:0.0; 
stroke:#000000; stroke-width:39.3701; stroke-opacity:1; 
stroke-linecap:round; stroke-linejoin:round;">
</g>
<g style="fill:#000000; fill-opacity:0.0; 
stroke:#000000; stroke-width:59.0551; stroke-opacity:1; 
stroke-linecap:round; stroke-linejoin:round;">
<text x="53149.6" y="4586.61"
textLength="546.494" font-size="682.415" lengthAdjust="spacingAndGlyphs"
text-anchor="start" opacity="0">3</text>
<path d="M53252 4050
L53569 4050
L53398 4245
L53471 4245
L53520 4269
L53544 4294
L53569 4342
L53569 4464
L53544 4513
L53520 4537
L53471 4562
L53325 4562
L53276 4537
L53252 4513
" />
</g>
<g style="fill:#000000; fill-opacity:0.0; 
stroke:#000000; stroke-width:39.3701; stroke-opacity:1; 
stroke-linecap:round; stroke-linejoin:round;">
</g>
<g style="fill:#000000; fill-opacity:0.0; 
stroke:#000000; stroke-width:59.0551; stroke-opacity:1; 
stroke-linecap:round; stroke-linejoin:round;">
<text x="72834.6" y="4586.61"
textLength="546.494" font-size="682.415" lengthAdjust="spacingAndGlyphs"
text-anchor="start" opacity="0">4</text>
<path d="M73205 4221
L73205 4562
" />
<path d="M73083 4026
L72961 4391
L73278 4391
" />
</g>
<g style="fill:#000000; fill-opacity:0.0; 
stroke:#000000; stroke-width:39.3701; stroke-opacity:1; 
stroke-linecap:round; stroke-linejoin:round;">
</g>
<g style="fill:#000000; fill-opacity:0.0; 
stroke:#000000; stroke-width:59.0551; stroke-opacity:1; 
stroke-linecap:round; stroke-linejoin:round;">
<text x="92519.7" y="4586.61"
textLength="546.494" font-size="682.415" lengthAdjust="spacingAndGlyphs"
text-anchor="start" opacity="0">5</text>
<path d="M92914 4050
L92671 4050
L92646 4294
L92671 4269
L92719 4245
L92841 4245
L92890 4269
L92914 4294
L92939 4342
L92939 4464
L92914 4513
L92890 4537
L92841 4562
L92719 4562
L92671 4537
L92646 4513
" />
</g>
<g style="fill:#000000; fill-opacity:0.0; 
stroke:#000000; stroke-width:39.3701; stroke-opacity:1; 
stroke-linecap:round; stroke-linejoin:round;">
</g>
<g style="fill:#000000; fill-opacity:0.0; 
stroke:#000000; stroke-width:59.0551; stroke-opacity:1; 
stroke-linecap:round; stroke-linejoin:round;">
<path d="M23622 80275
L23622 81062
" />
</g>
<g style="fill:#000000; fill-opacity:0.0; 
stroke:#000000; stroke-width:39.3701; stroke-opacity:1; 
stroke-linecap:round; stroke-linejoin:round;">
</g>
<g style="fill:#000000; fill-opacity:0.0; 
stroke:#000000; stroke-width:59.0551; stroke-opacity:1; 
stroke-linecap:round; stroke-linejoin:round;">
<path d="M43307 80275
L43307 81062
" />
</g>
<g style="fill:#000000; fill-opacity:0.0; 
stroke:#000000; stroke-width:39.3701; stroke-opacity:1; 
stroke-linecap:round; stroke-linejoin:round;">
</g>
<g style="fill:#000000; fill-opacity:0.0; 
stroke:#000000; stroke-width:59.0551; stroke-opacity:1; 
stroke-linecap:round; stroke-linejoin:round;">
<path d="M62992 80275
L62992 81062
" />
</g>
<g style="fill:#000000; fill-opacity:0.0; 
stroke:#000000; stroke-width:39.3701; stroke-opacity:1; 
stroke-linecap:round; stroke-linejoin:round;">
</g>
<g style="fill:#000000; fill-opacity:0.0; 
stroke:#000000; stroke-width:59.0551; stroke-opacity:1; 
stroke-linecap:round; stroke-linejoin:round;">
<path d="M82677 80275
L82677 81062
" />
</g>
<g style="fill:#000000; fill-opacity:0.0; 
stroke:#000000; stroke-width:39.3701; stroke-opacity:1; 
stroke-linecap:round; stroke-linejoin:round;">
</g>
<g style="fill:#000000; fill-opacity:0.0; 
stroke:#000000; stroke-width:59.0551; stroke-opacity:1; 
stroke-linecap:round; stroke-linejoin:round;">
<path d="M102362 80275
L102362 81062
" />
</g>
<g style="fill:#000000; fill-opacity:0.0; 
stroke:#000000; stroke-width:39.3701; stroke-opacity:1; 
stroke-linecap:round; stroke-linejoin:round;">
</g>
<g style="fill:#000000; fill-opacity:0.0; 
stroke:#000000; stroke-width:59.0551; stroke-opacity:1; 
stroke-linecap:round; stroke-linejoin:round;">
<text x="13779.5" y="80925.2"
textLength="546.494" font-size="682.415" lengthAdjust="spacingAndGlyphs"
text-anchor="start" opacity="0">1</text>
<path d="M14199 80900
L13906 80900
" />
<path d="M14052 80900
L14052 80389
L14004 80462
L13955 80510
L13906 80535
" />
</g>
<g style="fill:#000000; fill-opacity:0.0; 
stroke:#000000; stroke-width:39.3701; stroke-opacity:1; 
stroke-linecap:round; stroke-linejoin:round;">
</g>
<g style="fill:#000000; fill-opacity:0.0; 
stroke:#000000; stroke-width:59.0551; stroke-opacity:1; 
stroke-linecap:round; stroke-linejoin:round;">
<text x="33464.6" y="80925.2"
textLength="546.494" font-size="682.415" lengthAdjust="spacingAndGlyphs"
text-anchor="start" opacity="0">2</text>
<path d="M33591 80437
L33615 80413
L33664 80389
L33786 80389
L33835 80413
L33859 80437
L33884 80486
L33884 80535
L33859 80608
L33567 80900
L33884 80900
" />
</g>
<g style="fill:#000000; fill-opacity:0.0; 
stroke:#000000; stroke-width:39.3701; stroke-opacity:1; 
stroke-linecap:round; stroke-linejoin:round;">
</g>
<g style="fill:#000000; fill-opacity:0.0; 
stroke:#000000; stroke-width:59.0551; stroke-opacity:1; 
stroke-linecap:round; stroke-linejoin:round;">
<text x="53149.6" y="80925.2"
textLength="546.494" font-size="682.415" lengthAdjust="spacingAndGlyphs"
text-anchor="start" opacity="0">3</text>
<path d="M53252 80389
L53569 80389
L53398 80583
L53471 80583
L53520 80608
L53544 80632
L53569 80681
L53569 80803
L53544 80852
L53520 80876
L53471 80900
L53325 80900
L53276 80876
L53252 80852
" />
</g>
<g style="fill:#000000; fill-opacity:0.0; 
stroke:#000000; stroke-width:39.3701; stroke-opacity:1; 
stroke-linecap:round; stroke-linejoin:round;">
</g>
<g style="fill:#000000; fill-opacity:0.0; 
stroke:#000000; stroke-width:59.0551; stroke-opacity:1; 
stroke-linecap:round; stroke-linejoin:round;">
<text x="72834.6" y="80925.2"
textLength="546.494" font-size="682.415" lengthAdjust="spacingAndGlyphs"
text-anchor="start" opacity="0">4</text>
<path d="M73205 80559
L73205 80900
" />
<path d="M73083 80364
L72961 80730
L73278 80730
" />
</g>
<g style="fill:#000000; fill-opacity:0.0; 
stroke:#000000; stroke-width:39.3701; stroke-opacity:1; 
stroke-linecap:round; stroke-linejoin:round;">
</g>
<g style="fill:#000000; fill-opacity:0.0; 
stroke:#000000; stroke-width:59.0551; stroke-opacity:1; 
stroke-linecap:round; stroke-linejoin:round;">
<text x="92519.7" y="80925.2"
textLength="546.494" font-size="682.415" lengthAdjust="spacingAndGlyphs"
text-anchor="start" opacity="0">5</text>
<path d="M92914 80389
L92671 80389
L92646 80632
L92671 80608
L92719 80583
L92841 80583
L92890 80608
L92914 80632
L92939 80681
L92939 80803
L92914 80852
L92890 80876
L92841 80900
L92719 80900
L92671 80876
L92646 80852
" />
</g>
<g style="fill:#000000; fill-opacity:0.0; 
stroke:#000000; stroke-width:39.3701; stroke-opacity:1; 
stroke-linecap:round; stroke-linejoin:round;">
</g>
<g style="fill:#000000; fill-opacity:0.0; 
stroke:#000000; stroke-width:59.0551; stroke-opacity:1; 
stroke-linecap:round; stroke-linejoin:round;">
<path d="M3937 23622
L4724 23622
" />
</g>
<g style="fill:#000000; fill-opacity:0.0; 
stroke:#000000; stroke-width:39.3701; stroke-opacity:1; 
stroke-linecap:round; stroke-linejoin:round;">
</g>
<g style="fill:#000000; fill-opacity:0.0; 
stroke:#000000; stroke-width:59.0551; stroke-opacity:1; 
stroke-linecap:round; stroke-linejoin:round;">
<path d="M3937 43307
L4724 43307
" />
</g>
<g style="fill:#000000; fill-opacity:0.0; 
stroke:#000000; stroke-width:39.3701; stroke-opacity:1; 
stroke-linecap:round; stroke-linejoin:round;">
</g>
<g style="fill:#000000; fill-opacity:0.0; 
stroke:#000000; stroke-width:59.0551; stroke-opacity:1; 
stroke-linecap:round; stroke-linejoin:round;">
<path d="M3937 62992
L4724 62992
" />
</g>
<g style="fill:#000000; fill-opacity:0.0; 
stroke:#000000; stroke-width:39.3701; stroke-opacity:1; 
stroke-linecap:round; stroke-linejoin:round;">
</g>
<g style="fill:#000000; fill-opacity:0.0; 
stroke:#000000; stroke-width:59.0551; stroke-opacity:1; 
stroke-linecap:round; stroke-linejoin:round;">
<text x="4330.71" y="14035.4"
textLength="497.75" font-size="682.415" lengthAdjust="spacingAndGlyphs"
text-anchor="middle" opacity="0">A</text>
<path d="M4208 13864
L4452 13864
" />
<path d="M4160 14011
L4330 13499
L4501 14011
" />
</g>
<g style="fill:#000000; fill-opacity:0.0; 
stroke:#000000; stroke-width:39.3701; stroke-opacity:1; 
stroke-linecap:round; stroke-linejoin:round;">
</g>
<g style="fill:#000000; fill-opacity:0.0; 
stroke:#000000; stroke-width:59.0551; stroke-opacity:1; 
stroke-linecap:round; stroke-linejoin:round;">
<text x="4330.71" y="33720.5"
textLength="570.866" font-size="682.415" lengthAdjust="spacingAndGlyphs"
text-anchor="middle" opacity="0">B</text>
<path d="M4367 33428
L4440 33452
L4464 33476
L4489 33525
L4489 33598
L4464 33647
L4440 33671
L4391 33696
L4196 33696
L4196 33184
L4367 33184
L4416 33208
L4440 33233
L4464 33281
L4464 33330
L4440 33379
L4416 33403
L4367 33428
L4196 33428
" />
</g>
<g style="fill:#000000; fill-opacity:0.0; 
stroke:#000000; stroke-width:39.3701; stroke-opacity:1; 
stroke-linecap:round; stroke-linejoin:round;">
</g>
<g style="fill:#000000; fill-opacity:0.0; 
stroke:#000000; stroke-width:59.0551; stroke-opacity:1; 
stroke-linecap:round; stroke-linejoin:round;">
<text x="4330.71" y="53405.5"
textLength="570.866" font-size="682.415" lengthAdjust="spacingAndGlyphs"
text-anchor="middle" opacity="0">C</text>
<path d="M4489 53332
L4464 53356
L4391 53381
L4342 53381
L4269 53356
L4221 53308
L4196 53259
L4172 53161
L4172 53088
L4196 52991
L4221 52942
L4269 52893
L4342 52869
L4391 52869
L4464 52893
L4489 52918
" />
</g>
<g style="fill:#000000; fill-opacity:0.0; 
stroke:#000000; stroke-width:39.3701; stroke-opacity:1; 
stroke-linecap:round; stroke-linejoin:round;">
</g>
<g style="fill:#000000; fill-opacity:0.0; 
stroke:#000000; stroke-width:59.0551; stroke-opacity:1; 
stroke-linecap:round; stroke-linejoin:round;">
<text x="4330.71" y="73090.6"
textLength="570.866" font-size="682.415" lengthAdjust="spacingAndGlyphs"
text-anchor="middle" opacity="0">D</text>
<path d="M4196 73066
L4196 72554
L4318 72554
L4391 72578
L4440 72627
L4464 72676
L4489 72773
L4489 72846
L4464 72944
L4440 72993
L4391 73041
L4318 73066
L4196 73066
" />
</g>
<g style="fill:#000000; fill-opacity:0.0; 
stroke:#000000; stroke-width:39.3701; stroke-opacity:1; 
stroke-linecap:round; stroke-linejoin:round;">
</g>
<g style="fill:#000000; fill-opacity:0.0; 
stroke:#000000; stroke-width:59.0551; stroke-opacity:1; 
stroke-linecap:round; stroke-linejoin:round;">
<path d="M106062 23622
L105275 23622
" />
</g>
<g style="fill:#000000; fill-opacity:0.0; 
stroke:#000000; stroke-width:39.3701; stroke-opacity:1; 
stroke-linecap:round; stroke-linejoin:round;">
</g>
<g style="fill:#000000; fill-opacity:0.0; 
stroke:#000000; stroke-width:59.0551; stroke-opacity:1; 
stroke-linecap:round; stroke-linejoin:round;">
<path d="M106062 43307
L105275 43307
" />
</g>
<g style="fill:#000000; fill-opacity:0.0; 
stroke:#000000; stroke-width:39.3701; stroke-opacity:1; 
stroke-linecap:round; stroke-linejoin:round;">
</g>
<g style="fill:#000000; fill-opacity:0.0; 
stroke:#000000; stroke-width:59.0551; stroke-opacity:1; 
stroke-linecap:round; stroke-linejoin:round;">
<path d="M106062 62992
L105275 62992
" />
</g>
<g style="fill:#000000; fill-opacity:0.0; 
stroke:#000000; stroke-width:39.3701; stroke-opacity:1; 
stroke-linecap:round; stroke-linejoin:round;">
</g>
<g style="fill:#000000; fill-opacity:0.0; 
stroke:#000000; stroke-width:59.0551; stroke-opacity:1; 
stroke-linecap:round; stroke-linejoin:round;">
<text x="105669" y="14035.4"
textLength="497.75" font-size="682.415" lengthAdjust="spacingAndGlyphs"
text-anchor="middle" opacity="0">A</text>
<path d="M105547 13864
L105791 13864
" />
<path d="M105498 14011
L105669 13499
L105839 14011
" />
</g>
<g style="fill:#000000; fill-opacity:0.0; 
stroke:#000000; stroke-width:39.3701; stroke-opacity:1; 
stroke-linecap:round; stroke-linejoin:round;">
</g>
<g style="fill:#000000; fill-opacity:0.0; 
stroke:#000000; stroke-width:59.0551; stroke-opacity:1; 
stroke-linecap:round; stroke-linejoin:round;">
<text x="105669" y="33720.5"
textLength="570.866" font-size="682.415" lengthAdjust="spacingAndGlyphs"
text-anchor="middle" opacity="0">B</text>
<path d="M105705 33428
L105778 33452
L105803 33476
L105827 33525
L105827 33598
L105803 33647
L105778 33671
L105730 33696
L105535 33696
L105535 33184
L105705 33184
L105754 33208
L105778 33233
L105803 33281
L105803 33330
L105778 33379
L105754 33403
L105705 33428
L105535 33428
" />
</g>
<g style="fill:#000000; fill-opacity:0.0; 
stroke:#000000; stroke-width:39.3701; stroke-opacity:1; 
stroke-linecap:round; stroke-linejoin:round;">
</g>
<g style="fill:#000000; fill-opacity:0.0; 
stroke:#000000; stroke-width:59.0551; stroke-opacity:1; 
stroke-linecap:round; stroke-linejoin:round;">
<text x="105669" y="53405.5"
textLength="570.866" font-size="682.415" lengthAdjust="spacingAndGlyphs"
text-anchor="middle" opacity="0">C</text>
<path d="M105827 53332
L105803 53356
L105730 53381
L105681 53381
L105608 53356
L105559 53308
L105535 53259
L105510 53161
L105510 53088
L105535 52991
L105559 52942
L105608 52893
L105681 52869
L105730 52869
L105803 52893
L105827 52918
" />
</g>
<g style="fill:#000000; fill-opacity:0.0; 
stroke:#000000; stroke-width:39.3701; stroke-opacity:1; 
stroke-linecap:round; stroke-linejoin:round;">
</g>
<g style="fill:#000000; fill-opacity:0.0; 
stroke:#000000; stroke-width:59.0551; stroke-opacity:1; 
stroke-linecap:round; stroke-linejoin:round;">
<text x="105669" y="73090.6"
textLength="570.866" font-size="682.415" lengthAdjust="spacingAndGlyphs"
text-anchor="middle" opacity="0">D</text>
<path d="M105535 73066
L105535 72554
L105657 72554
L105730 72578
L105778 72627
L105803 72676
L105827 72773
L105827 72846
L105803 72944
L105778 72993
L105730 73041
L105657 73066
L105535 73066
" />
</g>
<g style="fill:#000000; fill-opacity:0.0; 
stroke:#000000; stroke-width:39.3701; stroke-opacity:1; 
stroke-linecap:round; stroke-linejoin:round;">
</g>
<g style="fill:#000000; fill-opacity:0.0; 
stroke:#000000; stroke-width:59.0551; stroke-opacity:1; 
stroke-linecap:round; stroke-linejoin:round;">
<text x="71811" y="78641.7"
textLength="8720.47" font-size="787.402" lengthAdjust="spacingAndGlyphs"
text-anchor="start" opacity="0">Date: 2020-11-27</text>
<path d="M71981 78613
L71981 78023
L72121 78023
L72206 78051
L72262 78107
L72290 78163
L72318 78276
L72318 78360
L72290 78473
L72262 78529
L72206 78585
L72121 78613
L71981 78613
" />
<path d="M72824 78613
L72824 78304
L72796 78248
L72740 78219
L72627 78219
L72571 78248
" />
<path d="M72824 78585
L72768 78613
L72627 78613
L72571 78585
L72543 78529
L72543 78473
L72571 78416
L72627 78388
L72768 78388
L72824 78360
" />
<path d="M73021 78219
L73246 78219
" />
<path d="M73106 78023
L73106 78529
L73134 78585
L73190 78613
L73246 78613
" />
<path d="M73668 78585
L73612 78613
L73499 78613
L73443 78585
L73415 78529
L73415 78304
L73443 78248
L73499 78219
L73612 78219
L73668 78248
L73696 78304
L73696 78360
L73415 78416
" />
<path d="M73949 78557
L73977 78585
L73949 78613
L73921 78585
L73949 78557
L73949 78613
" />
<path d="M73949 78248
L73977 78276
L73949 78304
L73921 78276
L73949 78248
L73949 78304
" />
<path d="M74652 78079
L74680 78051
L74737 78023
L74877 78023
L74933 78051
L74962 78079
L74990 78135
L74990 78191
L74962 78276
L74624 78613
L74990 78613
" />
<path d="M75355 78023
L75411 78023
L75468 78051
L75496 78079
L75524 78135
L75552 78248
L75552 78388
L75524 78501
L75496 78557
L75468 78585
L75411 78613
L75355 78613
L75299 78585
L75271 78557
L75243 78501
L75215 78388
L75215 78248
L75243 78135
L75271 78079
L75299 78051
L75355 78023
" />
<path d="M75777 78079
L75805 78051
L75861 78023
L76002 78023
L76058 78051
L76086 78079
L76115 78135
L76115 78191
L76086 78276
L75749 78613
L76115 78613
" />
<path d="M76480 78023
L76536 78023
L76593 78051
L76621 78079
L76649 78135
L76677 78248
L76677 78388
L76649 78501
L76621 78557
L76593 78585
L76536 78613
L76480 78613
L76424 78585
L76396 78557
L76368 78501
L76339 78388
L76339 78248
L76368 78135
L76396 78079
L76424 78051
L76480 78023
" />
<path d="M76930 78388
L77380 78388
" />
<path d="M77971 78613
L77633 78613
" />
<path d="M77802 78613
L77802 78023
L77746 78107
L77689 78163
L77633 78191
" />
<path d="M78533 78613
L78196 78613
" />
<path d="M78364 78613
L78364 78023
L78308 78107
L78252 78163
L78196 78191
" />
<path d="M78786 78388
L79236 78388
" />
<path d="M79489 78079
L79517 78051
L79573 78023
L79714 78023
L79770 78051
L79798 78079
L79827 78135
L79827 78191
L79798 78276
L79461 78613
L79827 78613
" />
<path d="M80023 78023
L80417 78023
L80164 78613
" />
</g>
<g style="fill:#000000; fill-opacity:0.0; 
stroke:#000000; stroke-width:39.3701; stroke-opacity:1; 
stroke-linecap:round; stroke-linejoin:round;">
</g>
<g style="fill:#000000; fill-opacity:0.0; 
stroke:#000000; stroke-width:59.0551; stroke-opacity:1; 
stroke-linecap:round; stroke-linejoin:round;">
<path d="M62755 78897
L105275 78897
" />
</g>
<g style="fill:#000000; fill-opacity:0.0; 
stroke:#000000; stroke-width:39.3701; stroke-opacity:1; 
stroke-linecap:round; stroke-linejoin:round;">
</g>
<g style="fill:#000000; fill-opacity:0.0; 
stroke:#000000; stroke-width:59.0551; stroke-opacity:1; 
stroke-linecap:round; stroke-linejoin:round;">
<text x="63149.6" y="79744.1"
textLength="13529.2" font-size="787.402" lengthAdjust="spacingAndGlyphs"
text-anchor="start" opacity="0">KiCad E.D.A.  kicad (5.1.8)-1</text>
<path d="M63319 79715
L63319 79125
" />
<path d="M63657 79715
L63404 79378
" />
<path d="M63657 79125
L63319 79462
" />
<path d="M63910 79715
L63910 79322
" />
<path d="M63910 79125
L63882 79153
L63910 79181
L63938 79153
L63910 79125
L63910 79181
" />
<path d="M64528 79659
L64500 79687
L64416 79715
L64360 79715
L64275 79687
L64219 79631
L64191 79575
L64163 79462
L64163 79378
L64191 79266
L64219 79209
L64275 79153
L64360 79125
L64416 79125
L64500 79153
L64528 79181
" />
<path d="M65035 79715
L65035 79406
L65007 79350
L64950 79322
L64838 79322
L64782 79350
" />
<path d="M65035 79687
L64978 79715
L64838 79715
L64782 79687
L64753 79631
L64753 79575
L64782 79519
L64838 79491
L64978 79491
L65035 79462
" />
<path d="M65569 79715
L65569 79125
" />
<path d="M65569 79687
L65513 79715
L65400 79715
L65344 79687
L65316 79659
L65288 79603
L65288 79434
L65316 79378
L65344 79350
L65400 79322
L65513 79322
L65569 79350
" />
<path d="M66300 79406
L66497 79406
" />
<path d="M66581 79715
L66300 79715
L66300 79125
L66581 79125
" />
<path d="M66834 79659
L66863 79687
L66834 79715
L66806 79687
L66834 79659
L66834 79715
" />
<path d="M67116 79715
L67116 79125
L67256 79125
L67341 79153
L67397 79209
L67425 79266
L67453 79378
L67453 79462
L67425 79575
L67397 79631
L67341 79687
L67256 79715
L67116 79715
" />
<path d="M67706 79659
L67734 79687
L67706 79715
L67678 79687
L67706 79659
L67706 79715
" />
<path d="M67959 79547
L68241 79547
" />
<path d="M67903 79715
L68100 79125
L68297 79715
" />
<path d="M68494 79659
L68522 79687
L68494 79715
L68465 79687
L68494 79659
L68494 79715
" />
<path d="M69675 79715
L69675 79125
" />
<path d="M69731 79491
L69900 79715
" />
<path d="M69900 79322
L69675 79547
" />
<path d="M70153 79715
L70153 79322
" />
<path d="M70153 79125
L70125 79153
L70153 79181
L70181 79153
L70153 79125
L70153 79181
" />
<path d="M70687 79687
L70631 79715
L70518 79715
L70462 79687
L70434 79659
L70406 79603
L70406 79434
L70434 79378
L70462 79350
L70518 79322
L70631 79322
L70687 79350
" />
<path d="M71193 79715
L71193 79406
L71165 79350
L71109 79322
L70996 79322
L70940 79350
" />
<path d="M71193 79687
L71137 79715
L70996 79715
L70940 79687
L70912 79631
L70912 79575
L70940 79519
L70996 79491
L71137 79491
L71193 79462
" />
<path d="M71728 79715
L71728 79125
" />
<path d="M71728 79687
L71671 79715
L71559 79715
L71503 79687
L71474 79659
L71446 79603
L71446 79434
L71474 79378
L71503 79350
L71559 79322
L71671 79322
L71728 79350
" />
<path d="M72627 79940
L72599 79912
L72543 79828
L72515 79772
L72487 79687
L72459 79547
L72459 79434
L72487 79294
L72515 79209
L72543 79153
L72599 79069
L72627 79041
" />
<path d="M73134 79125
L72852 79125
L72824 79406
L72852 79378
L72909 79350
L73049 79350
L73106 79378
L73134 79406
L73162 79462
L73162 79603
L73134 79659
L73106 79687
L73049 79715
L72909 79715
L72852 79687
L72824 79659
" />
<path d="M73415 79659
L73443 79687
L73415 79715
L73387 79687
L73415 79659
L73415 79715
" />
<path d="M74005 79715
L73668 79715
" />
<path d="M73837 79715
L73837 79125
L73780 79209
L73724 79266
L73668 79294
" />
<path d="M74258 79659
L74287 79687
L74258 79715
L74230 79687
L74258 79659
L74258 79715
" />
<path d="M74624 79378
L74568 79350
L74540 79322
L74512 79266
L74512 79237
L74540 79181
L74568 79153
L74624 79125
L74737 79125
L74793 79153
L74821 79181
L74849 79237
L74849 79266
L74821 79322
L74793 79350
L74737 79378
L74624 79378
L74568 79406
L74540 79434
L74512 79491
L74512 79603
L74540 79659
L74568 79687
L74624 79715
L74737 79715
L74793 79687
L74821 79659
L74849 79603
L74849 79491
L74821 79434
L74793 79406
L74737 79378
" />
<path d="M75046 79940
L75074 79912
L75130 79828
L75158 79772
L75187 79687
L75215 79547
L75215 79434
L75187 79294
L75158 79209
L75130 79153
L75074 79069
L75046 79041
" />
<path d="M75496 79491
L75946 79491
" />
<path d="M76536 79715
L76199 79715
" />
<path d="M76368 79715
L76368 79125
L76311 79209
L76255 79266
L76199 79294
" />
</g>
<g style="fill:#000000; fill-opacity:0.0; 
stroke:#000000; stroke-width:39.3701; stroke-opacity:1; 
stroke-linecap:round; stroke-linejoin:round;">
</g>
<g style="fill:#000000; fill-opacity:0.0; 
stroke:#000000; stroke-width:59.0551; stroke-opacity:1; 
stroke-linecap:round; stroke-linejoin:round;">
<path d="M62755 77716
L105275 77716
" />
</g>
<g style="fill:#000000; fill-opacity:0.0; 
stroke:#000000; stroke-width:39.3701; stroke-opacity:1; 
stroke-linecap:round; stroke-linejoin:round;">
</g>
<g style="fill:#000000; fill-opacity:0.0; 
stroke:#000000; stroke-width:118.11; stroke-opacity:1; 
stroke-linecap:round; stroke-linejoin:round;">
<text x="96614.2" y="78641.7"
textLength="2899.33" font-size="787.402" lengthAdjust="spacingAndGlyphs"
text-anchor="start" opacity="0">Rev: 1</text>
<path d="M97169 78613
L96972 78332
" />
<path d="M96831 78613
L96831 78023
L97056 78023
L97112 78051
L97140 78079
L97169 78135
L97169 78219
L97140 78276
L97112 78304
L97056 78332
L96831 78332
" />
<path d="M97647 78585
L97590 78613
L97478 78613
L97422 78585
L97393 78529
L97393 78304
L97422 78248
L97478 78219
L97590 78219
L97647 78248
L97675 78304
L97675 78360
L97393 78416
" />
<path d="M97872 78219
L98012 78613
L98153 78219
" />
<path d="M98378 78557
L98406 78585
L98378 78613
L98350 78585
L98378 78557
L98378 78613
" />
<path d="M98378 78248
L98406 78276
L98378 78304
L98350 78276
L98378 78248
L98378 78304
" />
<path d="M99418 78613
L99081 78613
" />
<path d="M99250 78613
L99250 78023
L99193 78107
L99137 78163
L99081 78191
" />
</g>
<g style="fill:#000000; fill-opacity:0.0; 
stroke:#000000; stroke-width:39.3701; stroke-opacity:1; 
stroke-linecap:round; stroke-linejoin:round;">
</g>
<g style="fill:#000000; fill-opacity:0.0; 
stroke:#000000; stroke-width:59.0551; stroke-opacity:1; 
stroke-linecap:round; stroke-linejoin:round;">
<text x="63149.6" y="78641.7"
textLength="3218.79" font-size="787.402" lengthAdjust="spacingAndGlyphs"
text-anchor="start" opacity="0">Size: A</text>
<path d="M63291 78585
L63375 78613
L63516 78613
L63572 78585
L63600 78557
L63629 78501
L63629 78444
L63600 78388
L63572 78360
L63516 78332
L63404 78304
L63347 78276
L63319 78248
L63291 78191
L63291 78135
L63319 78079
L63347 78051
L63404 78023
L63544 78023
L63629 78051
" />
<path d="M63882 78613
L63882 78219
" />
<path d="M63882 78023
L63854 78051
L63882 78079
L63910 78051
L63882 78023
L63882 78079
" />
<path d="M64107 78219
L64416 78219
L64107 78613
L64416 78613
" />
<path d="M64866 78585
L64810 78613
L64697 78613
L64641 78585
L64613 78529
L64613 78304
L64641 78248
L64697 78219
L64810 78219
L64866 78248
L64894 78304
L64894 78360
L64613 78416
" />
<path d="M65147 78557
L65175 78585
L65147 78613
L65119 78585
L65147 78557
L65147 78613
" />
<path d="M65147 78248
L65175 78276
L65147 78304
L65119 78276
L65147 78248
L65147 78304
" />
<path d="M65850 78444
L66131 78444
" />
<path d="M65794 78613
L65991 78023
L66188 78613
" />
</g>
<g style="fill:#000000; fill-opacity:0.0; 
stroke:#000000; stroke-width:39.3701; stroke-opacity:1; 
stroke-linecap:round; stroke-linejoin:round;">
</g>
<g style="fill:#000000; fill-opacity:0.0; 
stroke:#000000; stroke-width:59.0551; stroke-opacity:1; 
stroke-linecap:round; stroke-linejoin:round;">
<text x="96614.2" y="79744.1"
textLength="3349.27" font-size="787.402" lengthAdjust="spacingAndGlyphs"
text-anchor="start" opacity="0">Id: 1/1</text>
<path d="M96784 79715
L96784 79125
" />
<path d="M97318 79715
L97318 79125
" />
<path d="M97318 79687
L97262 79715
L97149 79715
L97093 79687
L97065 79659
L97037 79603
L97037 79434
L97065 79378
L97093 79350
L97149 79322
L97262 79322
L97318 79350
" />
<path d="M97599 79659
L97627 79687
L97599 79715
L97571 79687
L97599 79659
L97599 79715
" />
<path d="M97599 79350
L97627 79378
L97599 79406
L97571 79378
L97599 79350
L97599 79406
" />
<path d="M98640 79715
L98302 79715
" />
<path d="M98471 79715
L98471 79125
L98415 79209
L98359 79266
L98302 79294
" />
<path d="M99315 79097
L98809 79856
" />
<path d="M99821 79715
L99483 79715
" />
<path d="M99652 79715
L99652 79125
L99596 79209
L99540 79266
L99483 79294
" />
</g>
<g style="fill:#000000; fill-opacity:0.0; 
stroke:#000000; stroke-width:39.3701; stroke-opacity:1; 
stroke-linecap:round; stroke-linejoin:round;">
</g>
<g style="fill:#000000; fill-opacity:0.0; 
stroke:#000000; stroke-width:59.0551; stroke-opacity:1; 
stroke-linecap:round; stroke-linejoin:round;">
<path d="M62755 76141
L105275 76141
" />
</g>
<g style="fill:#000000; fill-opacity:0.0; 
stroke:#000000; stroke-width:39.3701; stroke-opacity:1; 
stroke-linecap:round; stroke-linejoin:round;">
</g>
<g style="fill:#000000; fill-opacity:0.0; 
stroke:#000000; stroke-width:157.48; stroke-opacity:1; 
stroke-linecap:round; stroke-linejoin:round;">
<text x="63149.6" y="77244.1"
textLength="21361.4" font-size="1049.87" lengthAdjust="spacingAndGlyphs"
text-anchor="start" opacity="0">Title: Magnetic Field Sensor - YSO</text>
<path d="M63430 76419
L63880 76419
" />
<path d="M63556 77206
L63655 76419
" />
<path d="M64044 77206
L64109 76681
" />
<path d="M64142 76419
L64100 76456
L64133 76494
L64175 76456
L64142 76419
L64133 76494
" />
<path d="M64372 76681
L64672 76681
" />
<path d="M64517 76419
L64433 77094
L64461 77169
L64531 77206
L64606 77206
" />
<path d="M64981 77206
L64911 77169
L64883 77094
L64967 76419
" />
<path d="M65586 77169
L65506 77206
L65356 77206
L65286 77169
L65257 77094
L65295 76794
L65342 76719
L65422 76681
L65571 76681
L65642 76719
L65670 76794
L65661 76869
L65276 76944
" />
<path d="M65965 77131
L65998 77169
L65956 77206
L65923 77169
L65965 77131
L65956 77206
" />
<path d="M66017 76719
L66050 76756
L66007 76794
L65975 76756
L66017 76719
L66007 76794
" />
<path d="M66931 77206
L67029 76419
L67221 76981
L67554 76419
L67456 77206
" />
<path d="M68168 77206
L68220 76794
L68191 76719
L68121 76681
L67971 76681
L67892 76719
" />
<path d="M68173 77169
L68093 77206
L67906 77206
L67835 77169
L67807 77094
L67817 77019
L67863 76944
L67943 76906
L68131 76906
L68210 76869
" />
<path d="M68946 76681
L68866 77319
L68820 77394
L68777 77431
L68698 77469
L68585 77469
L68515 77431
" />
<path d="M68885 77169
L68805 77206
L68655 77206
L68585 77169
L68552 77131
L68524 77056
L68552 76831
L68599 76756
L68641 76719
L68721 76681
L68871 76681
L68941 76719
" />
<path d="M69321 76681
L69255 77206
" />
<path d="M69312 76756
L69354 76719
L69434 76681
L69546 76681
L69616 76719
L69644 76794
L69593 77206
" />
<path d="M70272 77169
L70193 77206
L70043 77206
L69973 77169
L69944 77094
L69982 76794
L70029 76719
L70108 76681
L70258 76681
L70329 76719
L70357 76794
L70347 76869
L69963 76944
" />
<path d="M70596 76681
L70896 76681
" />
<path d="M70741 76419
L70657 77094
L70685 77169
L70755 77206
L70830 77206
" />
<path d="M71093 77206
L71158 76681
" />
<path d="M71191 76419
L71149 76456
L71182 76494
L71224 76456
L71191 76419
L71182 76494
" />
<path d="M71810 77169
L71730 77206
L71580 77206
L71510 77169
L71477 77131
L71449 77056
L71477 76831
L71524 76756
L71566 76719
L71646 76681
L71796 76681
L71866 76719
" />
<path d="M73056 76794
L72794 76794
" />
<path d="M72742 77206
L72841 76419
L73216 76419
" />
<path d="M73417 77206
L73483 76681
" />
<path d="M73516 76419
L73474 76456
L73506 76494
L73549 76456
L73516 76419
L73506 76494
" />
<path d="M74097 77169
L74017 77206
L73867 77206
L73797 77169
L73769 77094
L73806 76794
L73853 76719
L73933 76681
L74083 76681
L74153 76719
L74181 76794
L74172 76869
L73788 76944
" />
<path d="M74580 77206
L74509 77169
L74481 77094
L74566 76419
" />
<path d="M75217 77206
L75316 76419
" />
<path d="M75222 77169
L75142 77206
L74992 77206
L74922 77169
L74889 77131
L74861 77056
L74889 76831
L74936 76756
L74978 76719
L75058 76681
L75208 76681
L75278 76719
" />
<path d="M76159 77169
L76267 77206
L76455 77206
L76534 77169
L76576 77131
L76623 77056
L76633 76981
L76604 76906
L76572 76869
L76501 76831
L76356 76794
L76286 76756
L76253 76719
L76225 76644
L76234 76569
L76281 76494
L76323 76456
L76403 76419
L76590 76419
L76698 76456
" />
<path d="M77247 77169
L77167 77206
L77017 77206
L76947 77169
L76919 77094
L76956 76794
L77003 76719
L77083 76681
L77233 76681
L77303 76719
L77331 76794
L77322 76869
L76937 76944
" />
<path d="M77682 76681
L77617 77206
" />
<path d="M77673 76756
L77715 76719
L77795 76681
L77907 76681
L77978 76719
L78006 76794
L77954 77206
" />
<path d="M78296 77169
L78367 77206
L78517 77206
L78596 77169
L78643 77094
L78648 77056
L78620 76981
L78550 76944
L78437 76944
L78367 76906
L78339 76831
L78343 76794
L78390 76719
L78470 76681
L78582 76681
L78653 76719
" />
<path d="M79079 77206
L79009 77169
L78976 77131
L78948 77056
L78976 76831
L79023 76756
L79065 76719
L79145 76681
L79257 76681
L79328 76719
L79360 76756
L79389 76831
L79360 77056
L79314 77131
L79271 77169
L79192 77206
L79079 77206
" />
<path d="M79679 77206
L79745 76681
" />
<path d="M79726 76831
L79773 76756
L79815 76719
L79895 76681
L79970 76681
" />
<path d="M80804 76906
L81404 76906
" />
<path d="M82538 76831
L82491 77206
" />
<path d="M82327 76419
L82538 76831
L82852 76419
" />
<path d="M82983 77169
L83091 77206
L83279 77206
L83358 77169
L83401 77131
L83447 77056
L83457 76981
L83429 76906
L83396 76869
L83326 76831
L83180 76794
L83110 76756
L83077 76719
L83049 76644
L83058 76569
L83105 76494
L83147 76456
L83227 76419
L83415 76419
L83522 76456
" />
<path d="M84014 76419
L84164 76419
L84235 76456
L84300 76531
L84319 76681
L84286 76944
L84230 77094
L84146 77169
L84066 77206
L83916 77206
L83846 77169
L83780 77094
L83761 76944
L83794 76681
L83850 76531
L83935 76456
L84014 76419
" />
</g>
<g style="fill:#000000; fill-opacity:0.0; 
stroke:#000000; stroke-width:39.3701; stroke-opacity:1; 
stroke-linecap:round; stroke-linejoin:round;">
</g>
<g style="fill:#000000; fill-opacity:0.0; 
stroke:#000000; stroke-width:59.0551; stroke-opacity:1; 
stroke-linecap:round; stroke-linejoin:round;">
<text x="63149.6" y="75728.3"
textLength="13984.3" font-size="787.402" lengthAdjust="spacingAndGlyphs"
text-anchor="start" opacity="0">File: FieldSensorYSO.kicad_pcb</text>
<path d="M63516 75390
L63319 75390
" />
<path d="M63319 75700
L63319 75109
L63600 75109
" />
<path d="M63825 75700
L63825 75306
" />
<path d="M63825 75109
L63797 75137
L63825 75165
L63854 75137
L63825 75109
L63825 75165
" />
<path d="M64191 75700
L64135 75672
L64107 75615
L64107 75109
" />
<path d="M64641 75672
L64585 75700
L64472 75700
L64416 75672
L64388 75615
L64388 75390
L64416 75334
L64472 75306
L64585 75306
L64641 75334
L64669 75390
L64669 75447
L64388 75503
" />
<path d="M64922 75643
L64950 75672
L64922 75700
L64894 75672
L64922 75643
L64922 75700
" />
<path d="M64922 75334
L64950 75362
L64922 75390
L64894 75362
L64922 75334
L64922 75390
" />
<path d="M65850 75390
L65653 75390
" />
<path d="M65653 75700
L65653 75109
L65935 75109
" />
<path d="M66160 75700
L66160 75306
" />
<path d="M66160 75109
L66131 75137
L66160 75165
L66188 75137
L66160 75109
L66160 75165
" />
<path d="M66666 75672
L66609 75700
L66497 75700
L66441 75672
L66413 75615
L66413 75390
L66441 75334
L66497 75306
L66609 75306
L66666 75334
L66694 75390
L66694 75447
L66413 75503
" />
<path d="M67031 75700
L66975 75672
L66947 75615
L66947 75109
" />
<path d="M67509 75700
L67509 75109
" />
<path d="M67509 75672
L67453 75700
L67341 75700
L67284 75672
L67256 75643
L67228 75587
L67228 75419
L67256 75362
L67284 75334
L67341 75306
L67453 75306
L67509 75334
" />
<path d="M67762 75672
L67847 75700
L67987 75700
L68044 75672
L68072 75643
L68100 75587
L68100 75531
L68072 75475
L68044 75447
L67987 75419
L67875 75390
L67819 75362
L67791 75334
L67762 75278
L67762 75222
L67791 75165
L67819 75137
L67875 75109
L68016 75109
L68100 75137
" />
<path d="M68578 75672
L68522 75700
L68409 75700
L68353 75672
L68325 75615
L68325 75390
L68353 75334
L68409 75306
L68522 75306
L68578 75334
L68606 75390
L68606 75447
L68325 75503
" />
<path d="M68859 75306
L68859 75700
" />
<path d="M68859 75362
L68887 75334
L68944 75306
L69028 75306
L69084 75334
L69112 75390
L69112 75700
" />
<path d="M69365 75672
L69422 75700
L69534 75700
L69590 75672
L69618 75615
L69618 75587
L69590 75531
L69534 75503
L69450 75503
L69393 75475
L69365 75419
L69365 75390
L69393 75334
L69450 75306
L69534 75306
L69590 75334
" />
<path d="M69956 75700
L69900 75672
L69872 75643
L69843 75587
L69843 75419
L69872 75362
L69900 75334
L69956 75306
L70040 75306
L70097 75334
L70125 75362
L70153 75419
L70153 75587
L70125 75643
L70097 75672
L70040 75700
L69956 75700
" />
<path d="M70406 75700
L70406 75306
" />
<path d="M70406 75419
L70434 75362
L70462 75334
L70518 75306
L70575 75306
" />
<path d="M70884 75419
L70884 75700
" />
<path d="M70687 75109
L70884 75419
L71081 75109
" />
<path d="M71250 75672
L71334 75700
L71474 75700
L71531 75672
L71559 75643
L71587 75587
L71587 75531
L71559 75475
L71531 75447
L71474 75419
L71362 75390
L71306 75362
L71278 75334
L71250 75278
L71250 75222
L71278 75165
L71306 75137
L71362 75109
L71503 75109
L71587 75137
" />
<path d="M71953 75109
L72065 75109
L72121 75137
L72178 75194
L72206 75306
L72206 75503
L72178 75615
L72121 75672
L72065 75700
L71953 75700
L71896 75672
L71840 75615
L71812 75503
L71812 75306
L71840 75194
L71896 75137
L71953 75109
" />
<path d="M72459 75643
L72487 75672
L72459 75700
L72431 75672
L72459 75643
L72459 75700
" />
<path d="M72740 75700
L72740 75109
" />
<path d="M72796 75475
L72965 75700
" />
<path d="M72965 75306
L72740 75531
" />
<path d="M73218 75700
L73218 75306
" />
<path d="M73218 75109
L73190 75137
L73218 75165
L73246 75137
L73218 75109
L73218 75165
" />
<path d="M73752 75672
L73696 75700
L73584 75700
L73527 75672
L73499 75643
L73471 75587
L73471 75419
L73499 75362
L73527 75334
L73584 75306
L73696 75306
L73752 75334
" />
<path d="M74258 75700
L74258 75390
L74230 75334
L74174 75306
L74062 75306
L74005 75334
" />
<path d="M74258 75672
L74202 75700
L74062 75700
L74005 75672
L73977 75615
L73977 75559
L74005 75503
L74062 75475
L74202 75475
L74258 75447
" />
<path d="M74793 75700
L74793 75109
" />
<path d="M74793 75672
L74737 75700
L74624 75700
L74568 75672
L74540 75643
L74512 75587
L74512 75419
L74540 75362
L74568 75334
L74624 75306
L74737 75306
L74793 75334
" />
<path d="M74933 75756
L75383 75756
" />
<path d="M75524 75306
L75524 75897
" />
<path d="M75524 75334
L75580 75306
L75693 75306
L75749 75334
L75777 75362
L75805 75419
L75805 75587
L75777 75643
L75749 75672
L75693 75700
L75580 75700
L75524 75672
" />
<path d="M76311 75672
L76255 75700
L76143 75700
L76086 75672
L76058 75643
L76030 75587
L76030 75419
L76058 75362
L76086 75334
L76143 75306
L76255 75306
L76311 75334
" />
<path d="M76564 75700
L76564 75109
" />
<path d="M76564 75334
L76621 75306
L76733 75306
L76789 75334
L76818 75362
L76846 75419
L76846 75587
L76818 75643
L76789 75672
L76733 75700
L76621 75700
L76564 75672
" />
</g>
<g style="fill:#000000; fill-opacity:0.0; 
stroke:#000000; stroke-width:39.3701; stroke-opacity:1; 
stroke-linecap:round; stroke-linejoin:round;">
</g>
<g style="fill:#000000; fill-opacity:0.0; 
stroke:#000000; stroke-width:59.0551; stroke-opacity:1; 
stroke-linecap:round; stroke-linejoin:round;">
<path d="M62755 73779
L105275 73779
" />
</g>
<g style="fill:#000000; fill-opacity:0.0; 
stroke:#000000; stroke-width:39.3701; stroke-opacity:1; 
stroke-linecap:round; stroke-linejoin:round;">
</g>
<g style="fill:#000000; fill-opacity:0.0; 
stroke:#000000; stroke-width:59.0551; stroke-opacity:1; 
stroke-linecap:round; stroke-linejoin:round;">
<text x="63149.6" y="74665.4"
textLength="3236.78" font-size="787.402" lengthAdjust="spacingAndGlyphs"
text-anchor="start" opacity="0">Sheet: </text>
<path d="M63291 74609
L63375 74637
L63516 74637
L63572 74609
L63600 74580
L63629 74524
L63629 74468
L63600 74412
L63572 74384
L63516 74356
L63404 74327
L63347 74299
L63319 74271
L63291 74215
L63291 74159
L63319 74102
L63347 74074
L63404 74046
L63544 74046
L63629 74074
" />
<path d="M63882 74637
L63882 74046
" />
<path d="M64135 74637
L64135 74327
L64107 74271
L64050 74243
L63966 74243
L63910 74271
L63882 74299
" />
<path d="M64641 74609
L64585 74637
L64472 74637
L64416 74609
L64388 74552
L64388 74327
L64416 74271
L64472 74243
L64585 74243
L64641 74271
L64669 74327
L64669 74384
L64388 74440
" />
<path d="M65147 74609
L65091 74637
L64978 74637
L64922 74609
L64894 74552
L64894 74327
L64922 74271
L64978 74243
L65091 74243
L65147 74271
L65175 74327
L65175 74384
L64894 74440
" />
<path d="M65344 74243
L65569 74243
" />
<path d="M65428 74046
L65428 74552
L65456 74609
L65513 74637
L65569 74637
" />
<path d="M65766 74580
L65794 74609
L65766 74637
L65738 74609
L65766 74580
L65766 74637
" />
<path d="M65766 74271
L65794 74299
L65766 74327
L65738 74299
L65766 74271
L65766 74327
" />
</g>
<g style="fill:#000000; fill-opacity:0.0; 
stroke:#000000; stroke-width:39.3701; stroke-opacity:1; 
stroke-linecap:round; stroke-linejoin:round;">
</g>
<g style="fill:#000000; fill-opacity:0.0; 
stroke:#000000; stroke-width:118.11; stroke-opacity:1; 
stroke-linecap:round; stroke-linejoin:round;">
<text x="63149.6" y="73484.3"
textLength="4558.49" font-size="787.402" lengthAdjust="spacingAndGlyphs"
text-anchor="start" opacity="0">NthDegree</text>
<path d="M63366 73456
L63366 72865
L63704 73456
L63704 72865
" />
<path d="M63901 73062
L64126 73062
" />
<path d="M63985 72865
L63985 73371
L64013 73428
L64070 73456
L64126 73456
" />
<path d="M64323 73456
L64323 72865
" />
<path d="M64576 73456
L64576 73146
L64548 73090
L64491 73062
L64407 73062
L64351 73090
L64323 73118
" />
<path d="M64857 73456
L64857 72865
L64998 72865
L65082 72893
L65138 72949
L65166 73006
L65194 73118
L65194 73203
L65166 73315
L65138 73371
L65082 73428
L64998 73456
L64857 73456
" />
<path d="M65672 73428
L65616 73456
L65504 73456
L65447 73428
L65419 73371
L65419 73146
L65447 73090
L65504 73062
L65616 73062
L65672 73090
L65701 73146
L65701 73203
L65419 73259
" />
<path d="M66207 73062
L66207 73540
L66179 73596
L66151 73624
L66094 73652
L66010 73652
L65954 73624
" />
<path d="M66207 73428
L66151 73456
L66038 73456
L65982 73428
L65954 73399
L65926 73343
L65926 73174
L65954 73118
L65982 73090
L66038 73062
L66151 73062
L66207 73090
" />
<path d="M66488 73456
L66488 73062
" />
<path d="M66488 73174
L66516 73118
L66544 73090
L66600 73062
L66657 73062
" />
<path d="M67079 73428
L67022 73456
L66910 73456
L66854 73428
L66825 73371
L66825 73146
L66854 73090
L66910 73062
L67022 73062
L67079 73090
L67107 73146
L67107 73203
L66825 73259
" />
<path d="M67585 73428
L67528 73456
L67416 73456
L67360 73428
L67332 73371
L67332 73146
L67360 73090
L67416 73062
L67528 73062
L67585 73090
L67613 73146
L67613 73203
L67332 73259
" />
</g>
<g style="fill:#000000; fill-opacity:0.0; 
stroke:#000000; stroke-width:39.3701; stroke-opacity:1; 
stroke-linecap:round; stroke-linejoin:round;">
</g>
<g style="fill:#000000; fill-opacity:0.0; 
stroke:#000000; stroke-width:59.0551; stroke-opacity:1; 
stroke-linecap:round; stroke-linejoin:round;">
<path d="M70629 77716
L70629 78897
" />
</g>
<g style="fill:#000000; fill-opacity:0.0; 
stroke:#000000; stroke-width:39.3701; stroke-opacity:1; 
stroke-linecap:round; stroke-linejoin:round;">
</g>
<g style="fill:#000000; fill-opacity:0.0; 
stroke:#000000; stroke-width:59.0551; stroke-opacity:1; 
stroke-linecap:round; stroke-linejoin:round;">
<path d="M95826 77716
L95826 80275
" />
</g>
<g style="fill:#840084; fill-opacity:0.0; 
stroke:#840084; stroke-width:59.0551; stroke-opacity:1; 
stroke-linecap:round; stroke-linejoin:round;">
<path d="M58909 35671
L58909 37769
" />
<path d="M59988 37769
L58909 37769
" />
<path d="M59988 35671
L59988 37769
" />
<path d="M59988 35671
L58909 35671
" />
<path d="M35681 42757
L35681 44856
" />
<path d="M36759 44856
L35681 44856
" />
<path d="M36759 42757
L36759 44856
" />
<path d="M36759 42757
L35681 42757
" />
<g transform="rotate(-90 59409.4 38543.3)">
<text x="59409.4" y="38740.2"
transform="scale(-1 1) translate(-118818.897638 0)"
textLength="521.372" font-size="524.934" lengthAdjust="spacingAndGlyphs"
text-anchor="end" opacity="0">J2</text>
</g>
<path d="M59193 38036
L59475 38036
L59531 38017
L59568 37979
L59587 37923
L59587 37886
" />
<path d="M59231 38204
L59212 38223
L59193 38261
L59193 38354
L59212 38392
L59231 38411
L59268 38429
L59306 38429
L59362 38411
L59587 38186
L59587 38429
" />
<g transform="rotate(-90 36220.5 42716.5)">
<text x="36220.5" y="42913.4"
transform="scale(-1 1) translate(-72440.944882 0)"
textLength="598.144" font-size="524.934" lengthAdjust="spacingAndGlyphs"
text-anchor="end" opacity="0">J1</text>
</g>
<path d="M36004 42209
L36286 42209
L36342 42190
L36379 42153
L36398 42096
L36398 42059
" />
<path d="M36398 42603
L36398 42378
" />
<path d="M36398 42490
L36004 42490
L36061 42453
L36098 42415
L36117 42378
" />
<g >
</g>
</g>
<g style="fill:#000000; fill-opacity:0.0; 
stroke:#000000; stroke-width:59.0551; stroke-opacity:1; 
stroke-linecap:round; stroke-linejoin:round;">
<g >
</g>
<g >
</g>
<g >
</g>
<g >
</g>
<g >
</g>
<g >
</g>
</g>
<g style="fill:#000000; fill-opacity:0.0; 
stroke:#000000; stroke-width:59.0551; stroke-opacity:1; 
stroke-linecap:round; stroke-linejoin:round;">
<g >
</g>
<g style="fill:#848400; fill-opacity:0.0; 
stroke:#848400; stroke-width:59.0551; stroke-opacity:1; 
stroke-linecap:round; stroke-linejoin:round;">
</g>
<g style="fill:#848400; fill-opacity:1.0; 
stroke:#848400; stroke-width:0; stroke-opacity:1; 
stroke-linecap:round; stroke-linejoin:round;">
<circle cx="59448.8" cy="37220.5" r="309.055" /> 
</g>
<g style="fill:#848400; fill-opacity:1.0; 
stroke:#848400; stroke-width:39.3701; stroke-opacity:1; 
stroke-linecap:round; stroke-linejoin:round;">
</g>
<g style="fill:#848400; fill-opacity:1.0; 
stroke:#848400; stroke-width:0; stroke-opacity:1; 
stroke-linecap:round; stroke-linejoin:round;">
<path style="fill:#848400; fill-opacity:1.0; 
stroke:#848400; stroke-width:0; stroke-opacity:1; 
stroke-linecap:round; stroke-linejoin:round;fill-rule:evenodd;"
d="M 59139.8,35911.4
59757.9,35911.4
59757.9,36529.5
59139.8,36529.5
Z" /> 
</g>
<g >
</g>
<g style="fill:#848400; fill-opacity:1.0; 
stroke:#848400; stroke-width:0; stroke-opacity:1; 
stroke-linecap:round; stroke-linejoin:round;">
<circle cx="36220.5" cy="44307.1" r="309.055" /> 
</g>
<g style="fill:#848400; fill-opacity:1.0; 
stroke:#848400; stroke-width:39.3701; stroke-opacity:1; 
stroke-linecap:round; stroke-linejoin:round;">
</g>
<g style="fill:#848400; fill-opacity:1.0; 
stroke:#848400; stroke-width:0; stroke-opacity:1; 
stroke-linecap:round; stroke-linejoin:round;">
<path style="fill:#848400; fill-opacity:1.0; 
stroke:#848400; stroke-width:0; stroke-opacity:1; 
stroke-linecap:round; stroke-linejoin:round;fill-rule:evenodd;"
d="M 35911.4,42998
36529.5,42998
36529.5,43616.1
35911.4,43616.1
Z" /> 
</g>
<g >
</g>
<g >
</g>
<g >
</g>
<g >
</g>
</g>
<g style="fill:#FFFFFF; fill-opacity:1.0; 
stroke:#FFFFFF; stroke-width:0; stroke-opacity:1; 
stroke-linecap:round; stroke-linejoin:round;">
<circle cx="59448.8" cy="37220.5" r="200.787" /> 
</g>
<g style="fill:#FFFFFF; fill-opacity:1.0; 
stroke:#FFFFFF; stroke-width:39.3701; stroke-opacity:1; 
stroke-linecap:round; stroke-linejoin:round;">
</g>
<g style="fill:#FFFFFF; fill-opacity:1.0; 
stroke:#FFFFFF; stroke-width:0; stroke-opacity:1; 
stroke-linecap:round; stroke-linejoin:round;">
<circle cx="59448.8" cy="36220.5" r="200.787" /> 
</g>
<g style="fill:#FFFFFF; fill-opacity:1.0; 
stroke:#FFFFFF; stroke-width:39.3701; stroke-opacity:1; 
stroke-linecap:round; stroke-linejoin:round;">
</g>
<g style="fill:#FFFFFF; fill-opacity:1.0; 
stroke:#FFFFFF; stroke-width:0; stroke-opacity:1; 
stroke-linecap:round; stroke-linejoin:round;">
<circle cx="36220.5" cy="44307.1" r="200.787" /> 
</g>
<g style="fill:#FFFFFF; fill-opacity:1.0; 
stroke:#FFFFFF; stroke-width:39.3701; stroke-opacity:1; 
stroke-linecap:round; stroke-linejoin:round;">
</g>
<g style="fill:#FFFFFF; fill-opacity:1.0; 
stroke:#FFFFFF; stroke-width:0; stroke-opacity:1; 
stroke-linecap:round; stroke-linejoin:round;">
<circle cx="36220.5" cy="43307.1" r="200.787" /> 
</g>
<g style="fill:#FFFFFF; fill-opacity:1.0; 
stroke:#FFFFFF; stroke-width:39.3701; stroke-opacity:1; 
stroke-linecap:round; stroke-linejoin:round;">
</g>
<g style="fill:#000000; fill-opacity:1.0; 
stroke:#000000; stroke-width:39.3701; stroke-opacity:1; 
stroke-linecap:round; stroke-linejoin:round;">
</g>
<g style="fill:#840000; fill-opacity:1.0; 
stroke:#840000; stroke-width:39.3701; stroke-opacity:1; 
stroke-linecap:round; stroke-linejoin:round;">
</g>
<g style="fill:#840000; fill-opacity:1.0; 
stroke:#840000; stroke-width:295.276; stroke-opacity:1; 
stroke-linecap:round; stroke-linejoin:round;">
</g>
<g style="fill:#840000; fill-opacity:0.0; 
stroke:#840000; stroke-width:295.276; stroke-opacity:1; 
stroke-linecap:round; stroke-linejoin:round;">
<path d="M58464 44685
L37519 44685
" />
<path d="M58464 36023
L58464 44685
" />
<path d="M37204 36023
L58464 36023
" />
<path d="M37204 43188
L37204 36023
" />
<g >
</g>
<g style="fill:#848400; fill-opacity:0.0; 
stroke:#848400; stroke-width:295.276; stroke-opacity:1; 
stroke-linecap:round; stroke-linejoin:round;">
</g>
<g style="fill:#848400; fill-opacity:1.0; 
stroke:#848400; stroke-width:0; stroke-opacity:1; 
stroke-linecap:round; stroke-linejoin:round;">
<circle cx="59448.8" cy="37220.5" r="309.055" /> 
</g>
<g style="fill:#848400; fill-opacity:1.0; 
stroke:#848400; stroke-width:39.3701; stroke-opacity:1; 
stroke-linecap:round; stroke-linejoin:round;">
</g>
<g style="fill:#848400; fill-opacity:1.0; 
stroke:#848400; stroke-width:0; stroke-opacity:1; 
stroke-linecap:round; stroke-linejoin:round;">
<path style="fill:#848400; fill-opacity:1.0; 
stroke:#848400; stroke-width:0; stroke-opacity:1; 
stroke-linecap:round; stroke-linejoin:round;fill-rule:evenodd;"
d="M 59139.8,35911.4
59757.9,35911.4
59757.9,36529.5
59139.8,36529.5
Z" /> 
</g>
<g >
</g>
<g style="fill:#848400; fill-opacity:1.0; 
stroke:#848400; stroke-width:0; stroke-opacity:1; 
stroke-linecap:round; stroke-linejoin:round;">
<circle cx="36220.5" cy="44307.1" r="309.055" /> 
</g>
<g style="fill:#848400; fill-opacity:1.0; 
stroke:#848400; stroke-width:39.3701; stroke-opacity:1; 
stroke-linecap:round; stroke-linejoin:round;">
</g>
<g style="fill:#848400; fill-opacity:1.0; 
stroke:#848400; stroke-width:0; stroke-opacity:1; 
stroke-linecap:round; stroke-linejoin:round;">
<path style="fill:#848400; fill-opacity:1.0; 
stroke:#848400; stroke-width:0; stroke-opacity:1; 
stroke-linecap:round; stroke-linejoin:round;fill-rule:evenodd;"
d="M 35911.4,42998
36529.5,42998
36529.5,43616.1
35911.4,43616.1
Z" /> 
</g>
<g >
</g>
<g style="fill:#840000; fill-opacity:1.0; 
stroke:#840000; stroke-width:0; stroke-opacity:1; 
stroke-linecap:round; stroke-linejoin:round;">
<path style="fill:#840000; fill-opacity:1.0; 
stroke:#840000; stroke-width:0; stroke-opacity:1; 
stroke-linecap:round; stroke-linejoin:round;fill-rule:evenodd;"
d="M 36904.7,43803.9
36904.7,43203.9
37504.7,43203.9
37504.7,43803.9
Z" /> 
<path style="fill:#840000; fill-opacity:1.0; 
stroke:#840000; stroke-width:0; stroke-opacity:1; 
stroke-linecap:round; stroke-linejoin:round;fill-rule:evenodd;"
d="M 36904.7,44985
36904.7,44385
37504.7,44385
37504.7,44985
Z" /> 
</g>
<g >
</g>
<g >
</g>
<g style="fill:#840000; fill-opacity:1.0; 
stroke:#840000; stroke-width:0; stroke-opacity:1; 
stroke-linecap:round; stroke-linejoin:round;">
</g>
<g style="fill:#840000; fill-opacity:1.0; 
stroke:#840000; stroke-width:98.4252; stroke-opacity:1; 
stroke-linecap:round; stroke-linejoin:round;">
</g>
<g style="fill:#840000; fill-opacity:0.0; 
stroke:#840000; stroke-width:98.4252; stroke-opacity:1; 
stroke-linecap:round; stroke-linejoin:round;">
<path d="M37204 44685
L36574 44685
" />
<path d="M36574 44685
L36220 44330
" />
<path d="M37204 43503
L36417 43503
" />
<path d="M36417 43503
L36220 43307
" />
</g>
<g >
</g>
</g>
<g style="fill:#FFFFFF; fill-opacity:0.0; 
stroke:#FFFFFF; stroke-width:98.4252; stroke-opacity:1; 
stroke-linecap:round; stroke-linejoin:round;">
</g>
<g style="fill:#FFFFFF; fill-opacity:1.0; 
stroke:#FFFFFF; stroke-width:0; stroke-opacity:1; 
stroke-linecap:round; stroke-linejoin:round;">
<circle cx="59448.8" cy="37220.5" r="200.787" /> 
</g>
<g style="fill:#FFFFFF; fill-opacity:1.0; 
stroke:#FFFFFF; stroke-width:39.3701; stroke-opacity:1; 
stroke-linecap:round; stroke-linejoin:round;">
</g>
<g style="fill:#FFFFFF; fill-opacity:1.0; 
stroke:#FFFFFF; stroke-width:0; stroke-opacity:1; 
stroke-linecap:round; stroke-linejoin:round;">
<circle cx="59448.8" cy="36220.5" r="200.787" /> 
</g>
<g style="fill:#FFFFFF; fill-opacity:1.0; 
stroke:#FFFFFF; stroke-width:39.3701; stroke-opacity:1; 
stroke-linecap:round; stroke-linejoin:round;">
</g>
<g style="fill:#FFFFFF; fill-opacity:1.0; 
stroke:#FFFFFF; stroke-width:0; stroke-opacity:1; 
stroke-linecap:round; stroke-linejoin:round;">
<circle cx="36220.5" cy="44307.1" r="200.787" /> 
</g>
<g style="fill:#FFFFFF; fill-opacity:1.0; 
stroke:#FFFFFF; stroke-width:39.3701; stroke-opacity:1; 
stroke-linecap:round; stroke-linejoin:round;">
</g>
<g style="fill:#FFFFFF; fill-opacity:1.0; 
stroke:#FFFFFF; stroke-width:0; stroke-opacity:1; 
stroke-linecap:round; stroke-linejoin:round;">
<circle cx="36220.5" cy="43307.1" r="200.787" /> 
</g>
<g style="fill:#FFFFFF; fill-opacity:1.0; 
stroke:#FFFFFF; stroke-width:39.3701; stroke-opacity:1; 
stroke-linecap:round; stroke-linejoin:round;">
</g>
<g style="fill:#000000; fill-opacity:1.0; 
stroke:#000000; stroke-width:39.3701; stroke-opacity:1; 
stroke-linecap:round; stroke-linejoin:round;">
<g >
</g>
<g >
</g>
<g >
</g>
<g >
</g>
<g >
</g>
<g >
</g>
</g>
<g style="fill:#000000; fill-opacity:1.0; 
stroke:#000000; stroke-width:39.3701; stroke-opacity:1; 
stroke-linecap:round; stroke-linejoin:round;">
</g>
<g style="fill:#008484; fill-opacity:1.0; 
stroke:#008484; stroke-width:39.3701; stroke-opacity:1; 
stroke-linecap:round; stroke-linejoin:round;">
</g>
<g style="fill:#008484; fill-opacity:0.0; 
stroke:#008484; stroke-width:39.3701; stroke-opacity:1; 
stroke-linecap:round; stroke-linejoin:round;">
</g>
<g style="fill:#008484; fill-opacity:0.0; 
stroke:#008484; stroke-width:118.11; stroke-opacity:1; 
stroke-linecap:round; stroke-linejoin:round;">
<text x="47559.1" y="40492.1"
textLength="13322" font-size="787.402" lengthAdjust="spacingAndGlyphs"
text-anchor="middle" opacity="0">Magnetic Field Sensor - YSO</text>
<path d="M41077 40464
L41077 39873
L41273 40295
L41470 39873
L41470 40464
" />
<path d="M42005 40464
L42005 40154
L41976 40098
L41920 40070
L41808 40070
L41751 40098
" />
<path d="M42005 40435
L41948 40464
L41808 40464
L41751 40435
L41723 40379
L41723 40323
L41751 40267
L41808 40239
L41948 40239
L42005 40210
" />
<path d="M42539 40070
L42539 40548
L42511 40604
L42483 40632
L42426 40660
L42342 40660
L42286 40632
" />
<path d="M42539 40435
L42483 40464
L42370 40464
L42314 40435
L42286 40407
L42258 40351
L42258 40182
L42286 40126
L42314 40098
L42370 40070
L42483 40070
L42539 40098
" />
<path d="M42820 40070
L42820 40464
" />
<path d="M42820 40126
L42848 40098
L42904 40070
L42989 40070
L43045 40098
L43073 40154
L43073 40464
" />
<path d="M43579 40435
L43523 40464
L43411 40464
L43354 40435
L43326 40379
L43326 40154
L43354 40098
L43411 40070
L43523 40070
L43579 40098
L43607 40154
L43607 40210
L43326 40267
" />
<path d="M43776 40070
L44001 40070
" />
<path d="M43861 39873
L43861 40379
L43889 40435
L43945 40464
L44001 40464
" />
<path d="M44198 40464
L44198 40070
" />
<path d="M44198 39873
L44170 39901
L44198 39929
L44226 39901
L44198 39873
L44198 39929
" />
<path d="M44732 40435
L44676 40464
L44564 40464
L44507 40435
L44479 40407
L44451 40351
L44451 40182
L44479 40126
L44507 40098
L44564 40070
L44676 40070
L44732 40098
" />
<path d="M45632 40154
L45435 40154
" />
<path d="M45435 40464
L45435 39873
L45717 39873
" />
<path d="M45942 40464
L45942 40070
" />
<path d="M45942 39873
L45913 39901
L45942 39929
L45970 39901
L45942 39873
L45942 39929
" />
<path d="M46448 40435
L46392 40464
L46279 40464
L46223 40435
L46195 40379
L46195 40154
L46223 40098
L46279 40070
L46392 40070
L46448 40098
L46476 40154
L46476 40210
L46195 40267
" />
<path d="M46813 40464
L46757 40435
L46729 40379
L46729 39873
" />
<path d="M47291 40464
L47291 39873
" />
<path d="M47291 40435
L47235 40464
L47123 40464
L47066 40435
L47038 40407
L47010 40351
L47010 40182
L47038 40126
L47066 40098
L47123 40070
L47235 40070
L47291 40098
" />
<path d="M47994 40435
L48079 40464
L48219 40464
L48276 40435
L48304 40407
L48332 40351
L48332 40295
L48304 40239
L48276 40210
L48219 40182
L48107 40154
L48051 40126
L48023 40098
L47994 40042
L47994 39985
L48023 39929
L48051 39901
L48107 39873
L48248 39873
L48332 39901
" />
<path d="M48810 40435
L48754 40464
L48641 40464
L48585 40435
L48557 40379
L48557 40154
L48585 40098
L48641 40070
L48754 40070
L48810 40098
L48838 40154
L48838 40210
L48557 40267
" />
<path d="M49091 40070
L49091 40464
" />
<path d="M49091 40126
L49119 40098
L49176 40070
L49260 40070
L49316 40098
L49344 40154
L49344 40464
" />
<path d="M49597 40435
L49654 40464
L49766 40464
L49822 40435
L49850 40379
L49850 40351
L49822 40295
L49766 40267
L49682 40267
L49625 40239
L49597 40182
L49597 40154
L49625 40098
L49682 40070
L49766 40070
L49822 40098
" />
<path d="M50188 40464
L50132 40435
L50104 40407
L50075 40351
L50075 40182
L50104 40126
L50132 40098
L50188 40070
L50272 40070
L50329 40098
L50357 40126
L50385 40182
L50385 40351
L50357 40407
L50329 40435
L50272 40464
L50188 40464
" />
<path d="M50638 40464
L50638 40070
" />
<path d="M50638 40182
L50666 40126
L50694 40098
L50750 40070
L50807 40070
" />
<path d="M51453 40239
L51903 40239
" />
<path d="M52747 40182
L52747 40464
" />
<path d="M52550 39873
L52747 40182
L52944 39873
" />
<path d="M53113 40435
L53197 40464
L53338 40464
L53394 40435
L53422 40407
L53450 40351
L53450 40295
L53422 40239
L53394 40210
L53338 40182
L53225 40154
L53169 40126
L53141 40098
L53113 40042
L53113 39985
L53141 39929
L53169 39901
L53225 39873
L53366 39873
L53450 39901
" />
<path d="M53816 39873
L53928 39873
L53984 39901
L54041 39957
L54069 40070
L54069 40267
L54041 40379
L53984 40435
L53928 40464
L53816 40464
L53759 40435
L53703 40379
L53675 40267
L53675 40070
L53703 39957
L53759 39901
L53816 39873
" />
</g>
<g style="fill:#008484; fill-opacity:0.0; 
stroke:#008484; stroke-width:59.0551; stroke-opacity:1; 
stroke-linecap:round; stroke-linejoin:round;">
<text x="38228.3" y="44330.7"
textLength="865.954" font-size="524.934" lengthAdjust="spacingAndGlyphs"
text-anchor="middle" opacity="0">Y1</text>
<path d="M38040 44124
L38040 44311
" />
<path d="M37909 43918
L38040 44124
L38172 43918
" />
<path d="M38509 44311
L38284 44311
" />
<path d="M38397 44311
L38397 43918
L38359 43974
L38322 44011
L38284 44030
" />
<g >
</g>
</g>
<g style="fill:#000000; fill-opacity:0.0; 
stroke:#000000; stroke-width:59.0551; stroke-opacity:1; 
stroke-linecap:round; stroke-linejoin:round;">
</g>
<g style="fill:#C2C2C2; fill-opacity:0.0; 
stroke:#C2C2C2; stroke-width:59.0551; stroke-opacity:1; 
stroke-linecap:round; stroke-linejoin:round;">
<g transform="rotate(-90 34173.2 35728.3)">
<text x="34173.2" y="35925.2"
textLength="3113.89" font-size="524.934" lengthAdjust="spacingAndGlyphs"
text-anchor="middle" opacity="0">1.500 mm</text>
</g>
<path d="M34351 36946
L34351 37171
" />
<path d="M34351 37059
L33957 37059
L34013 37096
L34051 37134
L34070 37171
" />
<path d="M34313 36778
L34332 36759
L34351 36778
L34332 36796
L34313 36778
L34351 36778
" />
<path d="M33957 36403
L33957 36590
L34145 36609
L34126 36590
L34107 36553
L34107 36459
L34126 36422
L34145 36403
L34182 36384
L34276 36384
L34313 36403
L34332 36422
L34351 36459
L34351 36553
L34332 36590
L34313 36609
" />
<path d="M33957 36140
L33957 36103
L33976 36065
L33995 36047
L34032 36028
L34107 36009
L34201 36009
L34276 36028
L34313 36047
L34332 36065
L34351 36103
L34351 36140
L34332 36178
L34313 36197
L34276 36215
L34201 36234
L34107 36234
L34032 36215
L33995 36197
L33976 36178
L33957 36140
" />
<path d="M33957 35765
L33957 35728
L33976 35690
L33995 35672
L34032 35653
L34107 35634
L34201 35634
L34276 35653
L34313 35672
L34332 35690
L34351 35728
L34351 35765
L34332 35803
L34313 35822
L34276 35840
L34201 35859
L34107 35859
L34032 35840
L33995 35822
L33976 35803
L33957 35765
" />
<path d="M34351 35165
L34088 35165
" />
<path d="M34126 35165
L34107 35147
L34088 35109
L34088 35053
L34107 35015
L34145 34997
L34351 34997
" />
<path d="M34145 34997
L34107 34978
L34088 34940
L34088 34884
L34107 34847
L34145 34828
L34351 34828
" />
<path d="M34351 34640
L34088 34640
" />
<path d="M34126 34640
L34107 34622
L34088 34584
L34088 34528
L34107 34491
L34145 34472
L34351 34472
" />
<path d="M34145 34472
L34107 34453
L34088 34416
L34088 34359
L34107 34322
L34145 34303
L34351 34303
" />
<path d="M34685 36023
L34685 35433
" />
<path d="M37795 36023
L34454 36023
" />
<path d="M37795 35433
L34454 35433
" />
<path d="M34685 35433
L34915 35876
" />
<path d="M34685 35433
L34454 35876
" />
<path d="M34685 36023
L34915 35580
" />
<path d="M34685 36023
L34454 35580
" />
<text x="58956.7" y="32874"
textLength="3113.89" font-size="524.934" lengthAdjust="spacingAndGlyphs"
text-anchor="middle" opacity="0">2.500 mm</text>
<path d="M57513 32499
L57531 32480
L57569 32461
L57663 32461
L57700 32480
L57719 32499
L57738 32536
L57738 32574
L57719 32630
L57494 32855
L57738 32855
" />
<path d="M57906 32817
L57925 32836
L57906 32855
L57888 32836
L57906 32817
L57906 32855
" />
<path d="M58281 32461
L58094 32461
L58075 32649
L58094 32630
L58131 32611
L58225 32611
L58263 32630
L58281 32649
L58300 32686
L58300 32780
L58281 32817
L58263 32836
L58225 32855
L58131 32855
L58094 32836
L58075 32817
" />
<path d="M58544 32461
L58581 32461
L58619 32480
L58637 32499
L58656 32536
L58675 32611
L58675 32705
L58656 32780
L58637 32817
L58619 32836
L58581 32855
L58544 32855
L58506 32836
L58488 32817
L58469 32780
L58450 32705
L58450 32611
L58469 32536
L58488 32499
L58506 32480
L58544 32461
" />
<path d="M58919 32461
L58956 32461
L58994 32480
L59012 32499
L59031 32536
L59050 32611
L59050 32705
L59031 32780
L59012 32817
L58994 32836
L58956 32855
L58919 32855
L58881 32836
L58862 32817
L58844 32780
L58825 32705
L58825 32611
L58844 32536
L58862 32499
L58881 32480
L58919 32461
" />
<path d="M59519 32855
L59519 32592
" />
<path d="M59519 32630
L59537 32611
L59575 32592
L59631 32592
L59669 32611
L59687 32649
L59687 32855
" />
<path d="M59687 32649
L59706 32611
L59744 32592
L59800 32592
L59837 32611
L59856 32649
L59856 32855
" />
<path d="M60044 32855
L60044 32592
" />
<path d="M60044 32630
L60062 32611
L60100 32592
L60156 32592
L60194 32611
L60212 32649
L60212 32855
" />
<path d="M60212 32649
L60231 32611
L60269 32592
L60325 32592
L60362 32611
L60381 32649
L60381 32855
" />
<path d="M59448 33188
L58464 33188
" />
<path d="M59448 36181
L59448 32958
" />
<path d="M58464 36181
L58464 32958
" />
<path d="M58464 33188
L58908 32958
" />
<path d="M58464 33188
L58908 33419
" />
<path d="M59448 33188
L59005 32958
" />
<path d="M59448 33188
L59005 33419
" />
<text x="59350.4" y="47086.6"
textLength="3113.89" font-size="524.934" lengthAdjust="spacingAndGlyphs"
text-anchor="middle" opacity="0">4.500 mm</text>
<path d="M58094 46805
L58094 47067
" />
<path d="M58000 46655
L57906 46936
L58150 46936
" />
<path d="M58300 47030
L58319 47049
L58300 47067
L58281 47049
L58300 47030
L58300 47067
" />
<path d="M58675 46674
L58488 46674
L58469 46861
L58488 46842
L58525 46824
L58619 46824
L58656 46842
L58675 46861
L58694 46899
L58694 46992
L58675 47030
L58656 47049
L58619 47067
L58525 47067
L58488 47049
L58469 47030
" />
<path d="M58937 46674
L58975 46674
L59012 46692
L59031 46711
L59050 46749
L59069 46824
L59069 46917
L59050 46992
L59031 47030
L59012 47049
L58975 47067
L58937 47067
L58900 47049
L58881 47030
L58862 46992
L58844 46917
L58844 46824
L58862 46749
L58881 46711
L58900 46692
L58937 46674
" />
<path d="M59312 46674
L59350 46674
L59387 46692
L59406 46711
L59425 46749
L59444 46824
L59444 46917
L59425 46992
L59406 47030
L59387 47049
L59350 47067
L59312 47067
L59275 47049
L59256 47030
L59237 46992
L59219 46917
L59219 46824
L59237 46749
L59256 46711
L59275 46692
L59312 46674
" />
<path d="M59912 47067
L59912 46805
" />
<path d="M59912 46842
L59931 46824
L59969 46805
L60025 46805
L60062 46824
L60081 46861
L60081 47067
" />
<path d="M60081 46861
L60100 46824
L60137 46805
L60194 46805
L60231 46824
L60250 46861
L60250 47067
" />
<path d="M60437 47067
L60437 46805
" />
<path d="M60437 46842
L60456 46824
L60494 46805
L60550 46805
L60587 46824
L60606 46861
L60606 47067
" />
<path d="M60606 46861
L60625 46824
L60662 46805
L60718 46805
L60756 46824
L60775 46861
L60775 47067
" />
<path d="M58464 46377
L60236 46377
" />
<path d="M58464 43464
L58464 46608
" />
<path d="M60236 43464
L60236 46608
" />
<path d="M60236 46377
L59792 46608
" />
<path d="M60236 46377
L59792 46147
" />
<path d="M58464 46377
L58908 46608
" />
<path d="M58464 46377
L58908 46147
" />
<g transform="rotate(-270 62834.6 44980.3)">
<text x="62834.6" y="45177.2"
textLength="3113.89" font-size="524.934" lengthAdjust="spacingAndGlyphs"
text-anchor="middle" opacity="0">1.500 mm</text>
</g>
<path d="M62656 43761
L62656 43536
" />
<path d="M62656 43649
L63050 43649
L62994 43611
L62956 43574
L62937 43536
" />
<path d="M62694 43930
L62675 43949
L62656 43930
L62675 43911
L62694 43930
L62656 43930
" />
<path d="M63050 44305
L63050 44117
L62862 44099
L62881 44117
L62900 44155
L62900 44249
L62881 44286
L62862 44305
L62825 44324
L62731 44324
L62694 44305
L62675 44286
L62656 44249
L62656 44155
L62675 44117
L62694 44099
" />
<path d="M63050 44567
L63050 44605
L63031 44642
L63012 44661
L62975 44680
L62900 44699
L62806 44699
L62731 44680
L62694 44661
L62675 44642
L62656 44605
L62656 44567
L62675 44530
L62694 44511
L62731 44492
L62806 44474
L62900 44474
L62975 44492
L63012 44511
L63031 44530
L63050 44567
" />
<path d="M63050 44942
L63050 44980
L63031 45017
L63012 45036
L62975 45055
L62900 45074
L62806 45074
L62731 45055
L62694 45036
L62675 45017
L62656 44980
L62656 44942
L62675 44905
L62694 44886
L62731 44867
L62806 44849
L62900 44849
L62975 44867
L63012 44886
L63031 44905
L63050 44942
" />
<path d="M62656 45542
L62919 45542
" />
<path d="M62881 45542
L62900 45561
L62919 45598
L62919 45655
L62900 45692
L62862 45711
L62656 45711
" />
<path d="M62862 45711
L62900 45730
L62919 45767
L62919 45823
L62900 45861
L62862 45880
L62656 45880
" />
<path d="M62656 46067
L62919 46067
" />
<path d="M62881 46067
L62900 46086
L62919 46123
L62919 46180
L62900 46217
L62862 46236
L62656 46236
" />
<path d="M62862 46236
L62900 46255
L62919 46292
L62919 46348
L62900 46386
L62862 46405
L62656 46405
" />
<path d="M62322 44685
L62322 45275
" />
<path d="M57755 44685
L62553 44685
" />
<path d="M57755 45275
L62553 45275
" />
<path d="M62322 45275
L62091 44832
" />
<path d="M62322 45275
L62553 44832
" />
<path d="M62322 44685
L62091 45128
" />
<path d="M62322 44685
L62553 45128
" />
<g transform="rotate(-90 61811 35787.4)">
<text x="61811" y="35984.3"
textLength="3113.89" font-size="524.934" lengthAdjust="spacingAndGlyphs"
text-anchor="middle" opacity="0">2.000 mm</text>
</g>
<path d="M61632 37230
L61614 37212
L61595 37174
L61595 37080
L61614 37043
L61632 37024
L61670 37005
L61707 37005
L61764 37024
L61989 37249
L61989 37005
" />
<path d="M61951 36837
L61970 36818
L61989 36837
L61970 36856
L61951 36837
L61989 36837
" />
<path d="M61595 36574
L61595 36537
L61614 36499
L61632 36481
L61670 36462
L61745 36443
L61839 36443
L61914 36462
L61951 36481
L61970 36499
L61989 36537
L61989 36574
L61970 36612
L61951 36631
L61914 36649
L61839 36668
L61745 36668
L61670 36649
L61632 36631
L61614 36612
L61595 36574
" />
<path d="M61595 36199
L61595 36162
L61614 36124
L61632 36106
L61670 36087
L61745 36068
L61839 36068
L61914 36087
L61951 36106
L61970 36124
L61989 36162
L61989 36199
L61970 36237
L61951 36256
L61914 36274
L61839 36293
L61745 36293
L61670 36274
L61632 36256
L61614 36237
L61595 36199
" />
<path d="M61595 35824
L61595 35787
L61614 35749
L61632 35731
L61670 35712
L61745 35693
L61839 35693
L61914 35712
L61951 35731
L61970 35749
L61989 35787
L61989 35824
L61970 35862
L61951 35881
L61914 35899
L61839 35918
L61745 35918
L61670 35899
L61632 35881
L61614 35862
L61595 35824
" />
<path d="M61989 35224
L61726 35224
" />
<path d="M61764 35224
L61745 35206
L61726 35168
L61726 35112
L61745 35074
L61782 35056
L61989 35056
" />
<path d="M61782 35056
L61745 35037
L61726 35000
L61726 34943
L61745 34906
L61782 34887
L61989 34887
" />
<path d="M61989 34700
L61726 34700
" />
<path d="M61764 34700
L61745 34681
L61726 34643
L61726 34587
L61745 34550
L61782 34531
L61989 34531
" />
<path d="M61782 34531
L61745 34512
L61726 34475
L61726 34418
L61745 34381
L61782 34362
L61989 34362
" />
<path d="M61299 36181
L61299 35393
" />
<path d="M59448 36181
L61530 36181
" />
<path d="M59448 35393
L61530 35393
" />
<path d="M61299 35393
L61530 35837
" />
<path d="M61299 35393
L61068 35837
" />
<path d="M61299 36181
L61530 35737
" />
<path d="M61299 36181
L61068 35737
" />
<text x="59842.5" y="34566.9"
textLength="3113.89" font-size="524.934" lengthAdjust="spacingAndGlyphs"
text-anchor="middle" opacity="0">2.000 mm</text>
<path d="M58398 34191
L58417 34173
L58455 34154
L58548 34154
L58586 34173
L58605 34191
L58623 34229
L58623 34266
L58605 34323
L58380 34548
L58623 34548
" />
<path d="M58792 34510
L58811 34529
L58792 34548
L58773 34529
L58792 34510
L58792 34548
" />
<path d="M59055 34154
L59092 34154
L59130 34173
L59148 34191
L59167 34229
L59186 34304
L59186 34398
L59167 34473
L59148 34510
L59130 34529
L59092 34548
L59055 34548
L59017 34529
L58998 34510
L58980 34473
L58961 34398
L58961 34304
L58980 34229
L58998 34191
L59017 34173
L59055 34154
" />
<path d="M59430 34154
L59467 34154
L59505 34173
L59523 34191
L59542 34229
L59561 34304
L59561 34398
L59542 34473
L59523 34510
L59505 34529
L59467 34548
L59430 34548
L59392 34529
L59373 34510
L59355 34473
L59336 34398
L59336 34304
L59355 34229
L59373 34191
L59392 34173
L59430 34154
" />
<path d="M59805 34154
L59842 34154
L59880 34173
L59898 34191
L59917 34229
L59936 34304
L59936 34398
L59917 34473
L59898 34510
L59880 34529
L59842 34548
L59805 34548
L59767 34529
L59748 34510
L59730 34473
L59711 34398
L59711 34304
L59730 34229
L59748 34191
L59767 34173
L59805 34154
" />
<path d="M60404 34548
L60404 34285
" />
<path d="M60404 34323
L60423 34304
L60461 34285
L60517 34285
L60554 34304
L60573 34341
L60573 34548
" />
<path d="M60573 34341
L60592 34304
L60629 34285
L60686 34285
L60723 34304
L60742 34341
L60742 34548
" />
<path d="M60929 34548
L60929 34285
" />
<path d="M60929 34323
L60948 34304
L60986 34285
L61042 34285
L61079 34304
L61098 34341
L61098 34548
" />
<path d="M61098 34341
L61117 34304
L61154 34285
L61211 34285
L61248 34304
L61267 34341
L61267 34548
" />
<path d="M60236 34881
L59448 34881
" />
<path d="M60236 36220
L60236 34651
" />
<path d="M59448 36220
L59448 34651
" />
<path d="M59448 34881
L59892 34651
" />
<path d="M59448 34881
L59892 35112
" />
<path d="M60236 34881
L59792 34651
" />
<path d="M60236 34881
L59792 35112
" />
<g transform="rotate(-90 33976.4 44291.3)">
<text x="33976.4" y="44488.2"
textLength="3113.89" font-size="524.934" lengthAdjust="spacingAndGlyphs"
text-anchor="middle" opacity="0">5.000 mm</text>
</g>
<path d="M33760 45528
L33760 45716
L33948 45734
L33929 45716
L33910 45678
L33910 45584
L33929 45547
L33948 45528
L33985 45509
L34079 45509
L34116 45528
L34135 45547
L34154 45584
L34154 45678
L34135 45716
L34116 45734
" />
<path d="M34116 45341
L34135 45322
L34154 45341
L34135 45359
L34116 45341
L34154 45341
" />
<path d="M33760 45078
L33760 45041
L33779 45003
L33798 44985
L33835 44966
L33910 44947
L34004 44947
L34079 44966
L34116 44985
L34135 45003
L34154 45041
L34154 45078
L34135 45116
L34116 45134
L34079 45153
L34004 45172
L33910 45172
L33835 45153
L33798 45134
L33779 45116
L33760 45078
" />
<path d="M33760 44703
L33760 44666
L33779 44628
L33798 44610
L33835 44591
L33910 44572
L34004 44572
L34079 44591
L34116 44610
L34135 44628
L34154 44666
L34154 44703
L34135 44741
L34116 44760
L34079 44778
L34004 44797
L33910 44797
L33835 44778
L33798 44760
L33779 44741
L33760 44703
" />
<path d="M33760 44328
L33760 44291
L33779 44253
L33798 44235
L33835 44216
L33910 44197
L34004 44197
L34079 44216
L34116 44235
L34135 44253
L34154 44291
L34154 44328
L34135 44366
L34116 44385
L34079 44403
L34004 44422
L33910 44422
L33835 44403
L33798 44385
L33779 44366
L33760 44328
" />
<path d="M34154 43728
L33892 43728
" />
<path d="M33929 43728
L33910 43710
L33892 43672
L33892 43616
L33910 43578
L33948 43560
L34154 43560
" />
<path d="M33948 43560
L33910 43541
L33892 43503
L33892 43447
L33910 43410
L33948 43391
L34154 43391
" />
<path d="M34154 43203
L33892 43203
" />
<path d="M33929 43203
L33910 43185
L33892 43147
L33892 43091
L33910 43053
L33948 43035
L34154 43035
" />
<path d="M33948 43035
L33910 43016
L33892 42979
L33892 42922
L33910 42885
L33948 42866
L34154 42866
" />
<path d="M34488 45275
L34488 43307
" />
<path d="M36220 45275
L34257 45275
" />
<path d="M36220 43307
L34257 43307
" />
<path d="M34488 43307
L34719 43750
" />
<path d="M34488 43307
L34257 43750
" />
<path d="M34488 45275
L34719 44832
" />
<path d="M34488 45275
L34257 44832
" />
<text x="35826.8" y="41417.3"
textLength="3113.89" font-size="524.934" lengthAdjust="spacingAndGlyphs"
text-anchor="middle" opacity="0">2.000 mm</text>
<path d="M34383 41042
L34401 41023
L34439 41004
L34533 41004
L34570 41023
L34589 41042
L34608 41079
L34608 41117
L34589 41173
L34364 41398
L34608 41398
" />
<path d="M34776 41361
L34795 41379
L34776 41398
L34758 41379
L34776 41361
L34776 41398
" />
<path d="M35039 41004
L35076 41004
L35114 41023
L35133 41042
L35151 41079
L35170 41154
L35170 41248
L35151 41323
L35133 41361
L35114 41379
L35076 41398
L35039 41398
L35001 41379
L34983 41361
L34964 41323
L34945 41248
L34945 41154
L34964 41079
L34983 41042
L35001 41023
L35039 41004
" />
<path d="M35414 41004
L35451 41004
L35489 41023
L35508 41042
L35526 41079
L35545 41154
L35545 41248
L35526 41323
L35508 41361
L35489 41379
L35451 41398
L35414 41398
L35376 41379
L35358 41361
L35339 41323
L35320 41248
L35320 41154
L35339 41079
L35358 41042
L35376 41023
L35414 41004
" />
<path d="M35789 41004
L35826 41004
L35864 41023
L35883 41042
L35901 41079
L35920 41154
L35920 41248
L35901 41323
L35883 41361
L35864 41379
L35826 41398
L35789 41398
L35751 41379
L35733 41361
L35714 41323
L35695 41248
L35695 41154
L35714 41079
L35733 41042
L35751 41023
L35789 41004
" />
<path d="M36389 41398
L36389 41136
" />
<path d="M36389 41173
L36407 41154
L36445 41136
L36501 41136
L36539 41154
L36557 41192
L36557 41398
" />
<path d="M36557 41192
L36576 41154
L36614 41136
L36670 41136
L36707 41154
L36726 41192
L36726 41398
" />
<path d="M36914 41398
L36914 41136
" />
<path d="M36914 41173
L36932 41154
L36970 41136
L37026 41136
L37064 41154
L37082 41192
L37082 41398
" />
<path d="M37082 41192
L37101 41154
L37139 41136
L37195 41136
L37232 41154
L37251 41192
L37251 41398
" />
<path d="M35433 41732
L36220 41732
" />
<path d="M35433 43307
L35433 41501
" />
<path d="M36220 43307
L36220 41501
" />
<path d="M36220 41732
L35776 41963
" />
<path d="M36220 41732
L35776 41501
" />
<path d="M35433 41732
L35876 41963
" />
<path d="M35433 41732
L35876 41501
" />
<text x="47834.6" y="49921.3"
textLength="3488.85" font-size="524.934" lengthAdjust="spacingAndGlyphs"
text-anchor="middle" opacity="0">63.000 mm</text>
<path d="M46391 49508
L46316 49508
L46278 49527
L46259 49546
L46222 49602
L46203 49677
L46203 49827
L46222 49865
L46241 49883
L46278 49902
L46353 49902
L46391 49883
L46409 49865
L46428 49827
L46428 49733
L46409 49696
L46391 49677
L46353 49658
L46278 49658
L46241 49677
L46222 49696
L46203 49733
" />
<path d="M46559 49508
L46803 49508
L46672 49658
L46728 49658
L46766 49677
L46784 49696
L46803 49733
L46803 49827
L46784 49865
L46766 49883
L46728 49902
L46616 49902
L46578 49883
L46559 49865
" />
<path d="M46972 49865
L46991 49883
L46972 49902
L46953 49883
L46972 49865
L46972 49902
" />
<path d="M47234 49508
L47272 49508
L47309 49527
L47328 49546
L47347 49583
L47365 49658
L47365 49752
L47347 49827
L47328 49865
L47309 49883
L47272 49902
L47234 49902
L47197 49883
L47178 49865
L47159 49827
L47140 49752
L47140 49658
L47159 49583
L47178 49546
L47197 49527
L47234 49508
" />
<path d="M47609 49508
L47647 49508
L47684 49527
L47703 49546
L47722 49583
L47740 49658
L47740 49752
L47722 49827
L47703 49865
L47684 49883
L47647 49902
L47609 49902
L47572 49883
L47553 49865
L47534 49827
L47515 49752
L47515 49658
L47534 49583
L47553 49546
L47572 49527
L47609 49508
" />
<path d="M47984 49508
L48022 49508
L48059 49527
L48078 49546
L48097 49583
L48115 49658
L48115 49752
L48097 49827
L48078 49865
L48059 49883
L48022 49902
L47984 49902
L47947 49883
L47928 49865
L47909 49827
L47890 49752
L47890 49658
L47909 49583
L47928 49546
L47947 49527
L47984 49508
" />
<path d="M48584 49902
L48584 49640
" />
<path d="M48584 49677
L48603 49658
L48640 49640
L48697 49640
L48734 49658
L48753 49696
L48753 49902
" />
<path d="M48753 49696
L48772 49658
L48809 49640
L48865 49640
L48903 49658
L48922 49696
L48922 49902
" />
<path d="M49109 49902
L49109 49640
" />
<path d="M49109 49677
L49128 49658
L49165 49640
L49221 49640
L49259 49658
L49278 49696
L49278 49902
" />
<path d="M49278 49696
L49296 49658
L49334 49640
L49390 49640
L49428 49658
L49446 49696
L49446 49902
" />
<path d="M35433 49212
L60236 49212
" />
<path d="M35433 45275
L35433 49443
" />
<path d="M60236 45275
L60236 49443
" />
<path d="M60236 49212
L59792 49443
" />
<path d="M60236 49212
L59792 48981
" />
<path d="M35433 49212
L35876 49443
" />
<path d="M35433 49212
L35876 48981
" />
<g transform="rotate(-90 30984.3 40354.3)">
<text x="30984.3" y="40551.2"
textLength="3488.85" font-size="524.934" lengthAdjust="spacingAndGlyphs"
text-anchor="middle" opacity="0">25.000 mm</text>
</g>
<path d="M30806 41985
L30787 41966
L30768 41929
L30768 41835
L30787 41797
L30806 41779
L30843 41760
L30881 41760
L30937 41779
L31162 42004
L31162 41760
" />
<path d="M30768 41404
L30768 41591
L30956 41610
L30937 41591
L30918 41554
L30918 41460
L30937 41422
L30956 41404
L30993 41385
L31087 41385
L31124 41404
L31143 41422
L31162 41460
L31162 41554
L31143 41591
L31124 41610
" />
<path d="M31124 41216
L31143 41197
L31162 41216
L31143 41235
L31124 41216
L31162 41216
" />
<path d="M30768 40954
L30768 40916
L30787 40879
L30806 40860
L30843 40841
L30918 40823
L31012 40823
L31087 40841
L31124 40860
L31143 40879
L31162 40916
L31162 40954
L31143 40991
L31124 41010
L31087 41029
L31012 41047
L30918 41047
L30843 41029
L30806 41010
L30787 40991
L30768 40954
" />
<path d="M30768 40579
L30768 40541
L30787 40504
L30806 40485
L30843 40466
L30918 40448
L31012 40448
L31087 40466
L31124 40485
L31143 40504
L31162 40541
L31162 40579
L31143 40616
L31124 40635
L31087 40654
L31012 40673
L30918 40673
L30843 40654
L30806 40635
L30787 40616
L30768 40579
" />
<path d="M30768 40204
L30768 40166
L30787 40129
L30806 40110
L30843 40091
L30918 40073
L31012 40073
L31087 40091
L31124 40110
L31143 40129
L31162 40166
L31162 40204
L31143 40241
L31124 40260
L31087 40279
L31012 40298
L30918 40298
L30843 40279
L30806 40260
L30787 40241
L30768 40204
" />
<path d="M31162 39604
L30899 39604
" />
<path d="M30937 39604
L30918 39585
L30899 39548
L30899 39491
L30918 39454
L30956 39435
L31162 39435
" />
<path d="M30956 39435
L30918 39416
L30899 39379
L30899 39323
L30918 39285
L30956 39266
L31162 39266
" />
<path d="M31162 39079
L30899 39079
" />
<path d="M30937 39079
L30918 39060
L30899 39023
L30899 38967
L30918 38929
L30956 38910
L31162 38910
" />
<path d="M30956 38910
L30918 38892
L30899 38854
L30899 38798
L30918 38760
L30956 38742
L31162 38742
" />
<path d="M31496 45275
L31496 35433
" />
<path d="M37401 45275
L31265 45275
" />
<path d="M37401 35433
L31265 35433
" />
<path d="M31496 35433
L31726 35876
" />
<path d="M31496 35433
L31265 35876
" />
<path d="M31496 45275
L31726 44832
" />
<path d="M31496 45275
L31265 44832
" />
</g>
<g style="fill:#C2C2C2; fill-opacity:0.0; 
stroke:#C2C2C2; stroke-width:500; stroke-opacity:1; 
stroke-linecap:round; stroke-linejoin:round;">
<path d="M37992 39854
L37992 36854
" />
<path d="M37992 36854
L56992 36854
" />
<path d="M57492 43854
L57492 37354
" />
<path d="M57492 43854
L37992 43854
" />
<path d="M37992 43854
L37992 40854
" />
<g >
</g>
<g >
</g>
<g >
</g>
<g >
</g>
</g>
<g style="fill:#000000; fill-opacity:0.0; 
stroke:#000000; stroke-width:500; stroke-opacity:1; 
stroke-linecap:round; stroke-linejoin:round;">
</g>
<g style="fill:#C26A18; fill-opacity:0.0; 
stroke:#C26A18; stroke-width:500; stroke-opacity:1; 
stroke-linecap:round; stroke-linejoin:round;">
</g>
<g style="fill:#C26A18; fill-opacity:0.0; 
stroke:#C26A18; stroke-width:393.701; stroke-opacity:1; 
stroke-linecap:round; stroke-linejoin:round;">
<path d="M60236 45275
L35433 45275
" />
<path d="M60236 35433
L60236 45275
" />
<path d="M35433 35433
L60236 35433
" />
<path d="M35433 45275
L35433 35433
" />
<g >
</g>
<g >
</g>
<g >
</g>
<g >
</g>
</g> 
</svg>
